<svg width="5" height="10" viewBox="0 0 5 10" fill="none" xmlns="http://www.w3.org/2000/svg">
<path d="M4.99927 4.96365C4.99247 4.72552 4.91028 4.49853 4.76816 4.32575L1.44822 0.298887C1.23986 0.0481471 0.931726 -0.0549012 0.639874 0.028347C0.348032 0.111744 0.116685 0.368725 0.0332092 0.702735C-0.050393 1.03674 0.0264086 1.39691 0.234765 1.64766L2.9928 5L0.234765 8.35233C0.0264077 8.60308 -0.0503926 8.96326 0.0332096 9.29726C0.116692 9.63126 0.348024 9.88823 0.639875 9.97165C0.931717 10.0549 1.23985 9.95185 1.44822 9.70111L4.76816 5.67425C4.9254 5.48331 5.00877 5.227 4.99927 4.96365Z" fill="#F5D955"/>
</svg>
