<svg width="16" height="9" viewBox="0 0 16 9" fill="none" xmlns="http://www.w3.org/2000/svg">
<path d="M7.94184 0.00131606C7.56083 0.0135571 7.19765 0.161505 6.9212 0.417304L0.478218 6.3932C0.0770325 6.76824 -0.0878445 7.32289 0.0453527 7.84823C0.178789 8.37354 0.589958 8.78997 1.12437 8.94022C1.65878 9.09071 2.23505 8.95247 2.63626 8.57742L8 3.61296L13.3637 8.57742C13.7649 8.95247 14.3412 9.09071 14.8756 8.94022C15.41 8.78995 15.8212 8.37356 15.9546 7.84823C16.0879 7.32291 15.923 6.76828 15.5218 6.3932L9.07879 0.417304C8.77329 0.134279 8.36321 -0.015779 7.94184 0.00131606Z" fill="#1D2C53"/>
</svg>
