<svg width="28" height="28" viewBox="0 0 28 28" fill="none" xmlns="http://www.w3.org/2000/svg">
<g clip-path="url(#clip0_30_6758)">
<path d="M23.8335 4.13282C23.799 4.14639 23.7094 4.30926 23.6197 4.20746C23.5921 4.24818 23.6404 4.01745 23.8335 4.13282ZM21.702 3.25061L21.7778 3.20989L21.4191 3.19632L21.702 3.25061ZM20.3775 2.59913C20.4258 2.6127 20.4741 2.62627 20.5224 2.63984C20.5706 2.65342 20.6189 2.66699 20.6672 2.68735C20.7638 2.72807 20.8466 2.76878 20.9087 2.83665L20.9225 2.92487L21.1846 2.78914C21.088 2.74842 20.9776 2.70771 20.8673 2.66699C20.7569 2.62627 20.6465 2.58555 20.5362 2.55162C20.3154 2.48376 20.1223 2.40233 20.005 2.30053C20.0257 2.47698 20.1843 2.54484 20.3775 2.59913ZM19.4876 1.35725C19.4462 1.34367 19.391 1.32332 19.2945 1.27581C19.3152 1.41154 19.0392 1.28938 19.5152 1.40475C19.5014 1.38439 19.4945 1.37082 19.4876 1.35725ZM19.4876 1.35725C19.391 1.21474 19.6877 1.42511 19.4876 1.35725V1.35725ZM18.6667 0.875424C18.3701 0.841493 18.4046 0.922928 18.5288 1.0858L18.8323 1.07222C18.7978 0.99079 18.5633 0.895783 18.6667 0.875424ZM18.3563 1.22152C18.3425 1.18759 18.308 1.16045 18.2045 1.22152C18.2045 1.22152 18.2459 1.22152 18.2804 1.22152C18.3218 1.22152 18.3563 1.22152 18.3563 1.22152ZM18.5012 1.23509C18.446 1.31653 18.5357 1.24867 18.6805 1.22831L18.3563 1.22152C18.3839 1.2826 18.3563 1.37761 18.5012 1.23509ZM19.2117 1.54726C19.2117 1.52012 19.1841 1.4794 19.1151 1.43868C19.053 1.39796 18.9565 1.35046 18.8254 1.32332C18.8875 1.37761 18.9634 1.4319 18.984 1.4794C19.0047 1.52012 18.9771 1.54726 18.8254 1.55405C19.0875 1.62191 19.2117 1.60834 19.2117 1.54726ZM19.7773 2.54484C19.7773 2.54484 19.8118 2.58555 19.8463 2.62627C19.867 2.64663 19.8808 2.66699 19.8946 2.68056C19.9084 2.69413 19.9153 2.70771 19.9153 2.70771L20.1154 2.69413C20.0671 2.70092 19.9912 2.63984 19.9222 2.58555C19.8532 2.53805 19.7911 2.50412 19.7773 2.54484ZM17.0249 0.760058C17.0801 0.753272 17.1353 0.746486 17.1353 0.746486C17.0387 0.678623 16.8456 0.603975 16.8525 0.502181C16.8249 0.563257 16.9146 0.692196 16.9146 0.773631C16.9146 0.773631 16.9284 0.773631 16.9491 0.766844C16.9698 0.773631 16.9974 0.766844 17.0249 0.760058ZM16.9215 0.780417L16.5973 0.834707C16.8594 0.895783 16.9215 0.855065 16.9215 0.780417ZM18.0597 1.54048C18.0597 1.54048 18.1976 1.51333 18.3287 1.49976C18.4667 1.4794 18.6046 1.46583 18.6046 1.46583C18.6046 1.46583 18.446 1.4794 18.2873 1.48619C18.2114 1.49297 18.1287 1.49976 18.0666 1.50654C18.0045 1.51333 17.97 1.52012 17.97 1.52012L18.0597 1.54048ZM15.6936 0.298594C15.7143 0.285022 15.735 0.271449 15.7626 0.257877C15.8109 0.223946 15.8591 0.196801 15.8591 0.196801C15.8591 0.196801 15.7764 0.244304 15.6867 0.291808C15.6039 0.339312 15.5142 0.393602 15.5142 0.393602L15.6591 0.325739C15.666 0.325739 15.6729 0.312167 15.6936 0.298594ZM14.8658 0.291808C15.0038 0.169656 14.6933 0.0746486 14.8382 0C14.6175 0.0135725 14.4243 0.115366 14.2587 0.210373C14.4312 0.156083 14.6244 0.183228 14.8658 0.291808ZM13.9759 0.352884C14.0656 0.318953 14.1553 0.264663 14.2519 0.210373C14.1622 0.237518 14.0656 0.285022 13.9759 0.352884ZM15.866 0.508968L15.9626 0.705768C15.9971 0.712554 16.0385 0.719341 16.0799 0.726127C16.0592 0.678623 16.0316 0.570044 15.866 0.508968ZM15.9626 0.705768C15.8315 0.68541 15.7419 0.671837 15.7074 0.665051C15.735 0.671837 15.8109 0.68541 15.9626 0.705768ZM16.1075 0.726127C16.0937 0.726127 16.0868 0.726127 16.0799 0.719341C16.0868 0.746486 16.0937 0.753272 16.1075 0.726127ZM17.0732 1.49976C17.225 1.40475 17.0456 1.26903 17.3423 1.1808C17.1422 1.24188 16.7628 1.26903 17.0732 1.49976ZM16.3834 1.02472C16.4593 1.05187 16.5352 1.07222 16.5352 1.07222C16.5352 1.02472 16.4938 0.943286 16.5904 0.909355C16.5904 0.909355 16.5007 0.922928 16.411 0.943286C16.3627 0.950073 16.3213 0.956859 16.2868 0.963645C16.2523 0.970431 16.2316 0.977218 16.2316 0.977218C16.2316 0.977218 16.2523 0.984004 16.2799 0.99079C16.3006 0.997576 16.342 1.01115 16.3834 1.02472ZM16.1075 0.943286L16.0592 1.01115L16.2247 0.970431L16.1075 0.943286ZM14.6313 0.68541C14.6588 0.63112 14.7416 0.529326 14.5416 0.529326C14.4726 0.570044 14.3967 0.583616 14.3139 0.597189C14.2381 0.610761 14.1553 0.617547 14.0656 0.624333C14.1622 0.644692 14.2518 0.651478 14.3484 0.665051C14.445 0.678623 14.5347 0.68541 14.6313 0.68541ZM15.2314 0.617547C15.2245 0.624334 15.2107 0.624333 15.1969 0.624333C15.2176 0.644692 15.2383 0.651478 15.2314 0.617547ZM12.3548 0.732913C12.3686 0.739699 12.3755 0.753272 12.3893 0.760058C12.3893 0.746486 12.3893 0.739699 12.3893 0.726127L12.3548 0.732913ZM14.6588 0.726127C14.7968 0.766844 14.8796 0.726127 14.9624 0.671837C14.8589 0.68541 14.7485 0.692196 14.6244 0.692196C14.6175 0.712554 14.6175 0.732913 14.6588 0.726127ZM13.493 0.454678C13.5275 0.475036 13.5689 0.488609 13.6103 0.502181C13.6517 0.515754 13.6931 0.536112 13.7414 0.549685C13.7069 0.52254 13.6517 0.481823 13.5965 0.461464C13.5482 0.434319 13.4999 0.427533 13.493 0.454678ZM15.1555 0.570044C15.1624 0.570044 15.1693 0.563257 15.1762 0.563257C15.1348 0.52254 15.1417 0.542899 15.1555 0.570044ZM15.1555 0.570044C15.0796 0.590402 15.0245 0.63112 14.9624 0.665051C15.0451 0.658265 15.1279 0.644692 15.1969 0.624333C15.1831 0.610761 15.1693 0.590402 15.1555 0.570044ZM12.9412 0.692196C13.0033 0.692196 13.0447 0.692196 13.0447 0.692196L13.0033 0.719341L13.1343 0.692196C13.0585 0.68541 12.9895 0.658265 12.9136 0.63112C12.8377 0.603975 12.7549 0.556471 12.6515 0.502181C12.4376 0.610761 12.4031 0.678623 12.3962 0.732913C12.3962 0.732913 12.5618 0.719341 12.7204 0.712554C12.7963 0.705768 12.8791 0.698982 12.9412 0.692196ZM13.3689 0.692196C13.4172 0.692196 13.4654 0.68541 13.5275 0.678623C13.5896 0.671837 13.6517 0.665051 13.7276 0.658265C13.7 0.705768 13.6655 0.746486 13.6241 0.780417C13.5827 0.821134 13.5413 0.855065 13.5137 0.888997C13.4517 0.963645 13.4241 1.03151 13.5206 1.12651C13.5689 1.11973 13.6034 1.11294 13.6379 1.10616C13.6724 1.09937 13.7 1.09258 13.7207 1.0858C13.769 1.06544 13.7966 1.04508 13.8173 1.02472C13.8655 0.977218 13.8931 0.922928 14.0035 0.88221C13.6931 0.909355 13.7414 0.88221 13.8035 0.834707C13.8655 0.787203 13.9552 0.726127 13.7276 0.671837C13.8518 0.637906 13.9621 0.624334 14.0656 0.617547C13.9552 0.597189 13.8449 0.570044 13.7345 0.536112C13.7414 0.542899 13.7414 0.542899 13.7483 0.549685C13.7759 0.570044 13.7828 0.583616 13.7552 0.570044C13.7552 0.570044 13.7483 0.57683 13.7414 0.57683C13.7345 0.603975 13.7276 0.624333 13.7138 0.644692C13.5275 0.610761 13.6862 0.597189 13.7414 0.57683C13.7414 0.570044 13.7483 0.556471 13.7483 0.549685C13.7483 0.549685 13.7069 0.556471 13.6517 0.570044C13.5896 0.583616 13.5137 0.597189 13.4379 0.617547C13.2792 0.651478 13.1274 0.68541 13.1274 0.68541C13.1964 0.698982 13.2723 0.698982 13.3689 0.692196ZM16.68 1.8255C16.6662 1.80514 16.6662 1.79157 16.6731 1.77799C16.6248 1.79157 16.6111 1.80514 16.68 1.8255ZM16.2592 1.22152C16.2523 1.20795 16.2523 1.19438 16.2454 1.1808C16.2385 1.1808 16.2454 1.19438 16.2592 1.22152ZM16.6938 1.6287C16.8042 1.70334 16.6731 1.71692 16.6731 1.77799C16.7628 1.74406 16.9905 1.70334 16.749 1.56083L16.7007 1.58119C16.5283 1.49976 16.3213 1.30974 16.2592 1.22152C16.3006 1.37761 16.3489 1.49976 16.4593 1.66941C16.5076 1.65584 16.5559 1.58798 16.6938 1.6287ZM14.8658 1.17402C14.7416 1.19438 14.6106 1.20795 14.6106 1.20795L14.8589 1.37761L14.852 1.2826C14.921 1.29617 14.9693 1.29617 15.0038 1.29617C15.0382 1.28938 15.0589 1.2826 15.0727 1.26224C15.1003 1.22831 15.0934 1.1808 15.1141 1.14687C15.1141 1.14687 15.0796 1.14687 15.0314 1.15366C14.99 1.15366 14.9279 1.16045 14.8658 1.17402ZM12.3272 0.447891C12.3272 0.447891 12.2583 0.52254 12.1962 0.603975C12.1341 0.68541 12.0651 0.766844 12.0651 0.766844L12.2858 0.651478L12.3272 0.447891ZM11.6029 0.603975C11.6029 0.603975 11.596 0.610761 11.5753 0.624333C11.5615 0.637906 11.5408 0.651478 11.5201 0.671837C11.4788 0.705768 11.4374 0.739699 11.4374 0.739699L11.6029 0.773631V0.603975ZM0.0621467 12.1406L0.262196 12.1066C0.255298 11.9506 0.296687 11.8352 0.358771 11.7402C0.158722 11.9234 -0.131004 12.1338 0.0621467 12.1406ZM5.34621 3.69171C5.15306 3.75957 5.00819 3.83422 4.89782 3.90887C5.15306 3.84101 5.3945 3.84779 5.34621 3.69171ZM10.782 27.7082C10.8786 27.6946 10.9269 27.6675 10.9338 27.6268C10.8303 27.6403 10.7682 27.6607 10.782 27.7082ZM4.89782 3.90887C4.80125 3.92923 4.71157 3.96995 4.64259 4.03102C4.5667 4.0921 4.51152 4.17353 4.48393 4.28211C4.52532 4.27533 4.55291 4.25497 4.5874 4.24818C4.62879 4.18711 4.67018 4.13282 4.71847 4.07174C4.77365 4.01745 4.82884 3.95637 4.89782 3.90887ZM24.7993 5.7683C24.8476 5.80902 24.9165 5.88366 24.9786 5.95831C24.9579 5.91081 24.9096 5.84973 24.7993 5.7683ZM8.9333 1.44547C8.94709 1.41832 9.06436 1.38439 8.9333 1.44547V1.44547ZM9.82317 2.00873C9.81627 1.96122 9.83007 1.92729 9.84387 1.90693C9.82317 1.93408 9.80937 1.96801 9.82317 2.00873ZM8.97469 1.46583C9.00918 1.46583 9.07126 1.46583 9.16784 1.45225C9.11265 1.45225 9.04367 1.45225 8.97469 1.46583ZM9.11265 1.37761C9.16094 1.37082 9.20233 1.35725 9.23682 1.35046C9.24372 1.31653 9.22302 1.30296 9.11265 1.37761ZM8.9333 1.44547C8.89191 1.46583 8.84362 1.49297 8.74705 1.53369C8.82293 1.49976 8.89881 1.4794 8.97469 1.45904C8.94709 1.46583 8.9333 1.45904 8.9333 1.44547ZM24.9786 5.95153C25.0269 6.07368 24.8269 6.06689 24.7579 6.14833C24.7579 6.14833 24.7579 6.13475 24.7441 6.1144C24.7372 6.09404 24.7234 6.06011 24.7096 6.02618C24.682 5.95153 24.6475 5.85652 24.613 5.76151C24.5785 5.6665 24.5371 5.56471 24.5164 5.49006C24.5026 5.44935 24.4889 5.4222 24.482 5.40184C24.4751 5.38148 24.4682 5.36791 24.4682 5.36791C24.3095 5.40863 24.1646 5.25933 24.0198 5.11682C23.9508 5.04217 23.8749 4.97431 23.8059 4.93359C23.7369 4.89287 23.668 4.87252 23.6059 4.90645L23.8197 5.04217C23.5852 5.04217 23.5438 5.24576 23.5024 5.48328C23.4955 5.50364 23.4955 5.53078 23.4886 5.55114C23.3162 5.3747 23.1437 5.20504 22.9574 5.04217C20.2326 2.55162 16.7076 1.43868 13.2654 1.66941C13.2723 1.66941 13.2723 1.66263 13.2792 1.66263L13.2585 1.56762C13.0998 1.58119 12.9964 1.64905 13.086 1.68299C12.9481 1.69656 12.817 1.70334 12.679 1.7237C12.9067 1.54726 12.6721 1.03829 12.3686 0.766844C12.3686 0.841493 12.3755 0.902569 12.0789 1.05187C12.141 1.09258 12.3203 1.11294 12.4514 1.16723C12.5825 1.21474 12.6721 1.27581 12.548 1.36403C12.3479 1.42511 12.2652 1.42511 12.2031 1.39796C12.141 1.37082 12.0996 1.31653 11.9961 1.28938C12.0996 1.38439 11.9823 1.4794 11.8582 1.58798C11.7616 1.66941 11.6719 1.77121 11.665 1.873C11.4719 1.90693 11.2718 1.95444 11.0787 1.99515L10.9545 1.80514L10.8855 2.00194L11.0787 1.99515C10.4992 2.13088 9.91975 2.30732 9.36099 2.53127C9.36789 2.50412 9.35409 2.47697 9.3127 2.4634L9.11955 2.57877C8.98848 2.53127 9.05747 2.42947 9.12645 2.34804C9.19543 2.25982 9.26441 2.19195 9.11265 2.20553C9.14025 2.17159 9.17474 2.14445 9.20233 2.11052C9.22992 2.07659 9.26441 2.04944 9.29891 2.01551C9.36099 1.95444 9.42997 1.89336 9.50585 1.83228C9.58173 1.77799 9.66451 1.7237 9.75419 1.68299C9.85076 1.64905 9.94734 1.62191 10.0646 1.61512L10.2233 1.84586C10.1957 1.77799 9.90595 1.77799 9.80938 1.89336C9.87836 1.81192 10.0646 1.84586 10.244 1.85264C10.3336 1.85943 10.4233 1.85264 10.4923 1.8255C10.5613 1.79835 10.6165 1.75085 10.6441 1.65584C10.6441 1.65584 10.5544 1.6287 10.4716 1.60834C10.4302 1.59476 10.3819 1.58119 10.3543 1.57441C10.3198 1.56762 10.2992 1.56083 10.2992 1.56083C10.3681 1.50654 10.4371 1.44547 10.5061 1.37761C10.582 1.31653 10.6579 1.24867 10.7406 1.18759C10.8234 1.12651 10.9062 1.07222 11.0028 1.03829C11.0925 1.00436 11.1959 0.977218 11.2925 0.977218C11.1752 0.868638 11.1545 0.88221 11.12 0.888997C11.0856 0.895783 11.0373 0.902569 10.8579 0.787203C11.0235 0.943286 10.7682 0.997576 10.5406 1.05865C10.4233 1.0858 10.3129 1.11294 10.2647 1.15366C10.2233 1.18759 10.2233 1.22831 10.2992 1.2826C10.1336 1.1808 10.0094 1.18759 9.87836 1.19438C9.73349 1.20795 9.58173 1.22152 9.35409 1.14687C9.39548 1.22831 9.54034 1.25545 9.20233 1.3301C9.19543 1.35725 9.17474 1.40475 9.16094 1.42511C9.14714 1.42511 9.14714 1.42511 9.14025 1.42511C9.14714 1.42511 9.15404 1.42511 9.16094 1.42511C9.15404 1.43868 9.15404 1.44547 9.16784 1.42511C9.25751 1.4319 9.3334 1.45225 9.37479 1.49297C9.3334 1.61512 9.18163 1.71692 9.03677 1.81192C8.89191 1.91372 8.73325 2.00194 8.67806 2.08337C8.47801 2.1173 8.71255 1.96122 8.57459 1.91372C8.57459 1.91372 8.5263 1.97479 8.48491 2.03587C8.44352 2.09695 8.39523 2.16481 8.39523 2.16481C8.34005 2.08337 8.18829 2.06301 8.09171 2.02908C7.99514 1.99515 7.96064 1.94765 8.1538 1.79157L7.76059 1.96801C7.62263 1.97479 7.47087 2.01551 7.3398 2.0698C7.20184 2.12409 7.08457 2.19874 7.00869 2.28696C6.80864 2.35482 6.68447 2.73485 6.75345 2.51091C6.75345 2.51091 6.71896 2.53805 6.67067 2.57877C6.62238 2.61949 6.5603 2.67378 6.49821 2.73485C6.37405 2.85022 6.25678 2.97237 6.25678 2.97237L6.22228 2.93844C5.93946 3.10809 5.71871 3.37954 5.46348 3.61706C5.22204 3.86815 4.93921 4.08531 4.54601 4.21425C4.48393 4.30926 4.41494 4.40427 4.33216 4.49927C4.24939 4.60107 4.14591 4.70965 3.99415 4.81823L3.86308 4.79108C3.7803 4.91323 3.60785 5.04217 3.45609 5.17111C3.30432 5.30005 3.18016 5.4222 3.20775 5.52399C3.06978 5.51042 2.93872 5.5715 2.82145 5.67329C2.75936 5.72079 2.70418 5.78187 2.64209 5.84973C2.58691 5.91759 2.53172 5.99224 2.48343 6.07368C2.43515 6.15511 2.37996 6.23655 2.33167 6.31798C2.28338 6.39942 2.2351 6.48085 2.19371 6.56229C2.11093 6.71837 2.02815 6.86088 1.93847 6.95589L2.11783 7.08483C2.09023 7.11876 2.06954 7.15269 2.04884 7.19341C2.02815 7.22734 2.00745 7.26806 1.98676 7.30877C1.94537 7.38342 1.91088 7.46486 1.87639 7.54629C1.8419 7.62773 1.8074 7.71595 1.77981 7.81095C1.75222 7.90596 1.72463 8.00097 1.69703 8.10276L1.88328 8.17062C1.87639 8.36743 1.73152 8.55065 1.57976 8.76781C1.50388 8.87639 1.4211 8.98497 1.33832 9.10034C1.26244 9.22249 1.20036 9.35143 1.15207 9.48037C1.09688 9.41929 1.16587 9.29035 1.24865 9.20892C1.08309 9.32428 0.986512 9.48037 0.924428 9.65002C0.869242 9.81968 0.855446 10.0029 0.841649 10.1861C0.827853 10.3694 0.834751 10.5526 0.807158 10.7155C0.779565 10.8851 0.717481 11.0344 0.607109 11.1634C0.6416 11.333 0.593312 11.4348 0.517431 11.5298C0.517431 11.5162 0.517431 11.5027 0.517431 11.4891C0.510533 11.5027 0.503635 11.5298 0.503635 11.5502C0.455347 11.6112 0.400161 11.6723 0.358771 11.7402C0.420856 11.6859 0.469143 11.6316 0.496736 11.5841C0.476042 11.6995 0.469143 11.8827 0.48294 12.0659L0.262196 12.1066C0.262196 12.1202 0.262196 12.1338 0.262196 12.1474C0.151824 12.3102 0.338077 12.3034 0.510533 12.2356C0.524329 12.3306 0.558821 12.412 0.60021 12.4799C0.420856 12.5274 0.434652 12.6428 0.448449 12.7649C0.455347 12.826 0.455347 12.8871 0.434652 12.9481C0.413957 13.0024 0.372568 13.0567 0.275992 13.0974C0.358771 13.1653 0.372568 13.3892 0.413957 13.6064C0.455347 13.7964 0.517431 13.9796 0.648498 14.0543C0.593312 14.2443 0.558821 14.4343 0.669193 14.604L0.400161 14.6922C0.400161 14.6922 0.489838 14.794 0.586414 14.8958C0.682989 14.9976 0.779565 15.0926 0.779565 15.0926C0.634702 15.3505 0.545024 15.4726 0.32428 15.2283C0.413957 15.3776 0.469143 15.4862 0.503635 15.5676C0.545024 15.6491 0.565719 15.7033 0.586414 15.7576C0.627803 15.8662 0.669193 15.968 0.855446 16.1987H0.682989C0.71748 16.382 0.993411 16.6398 0.869242 16.7688C0.807158 16.8841 0.80026 17.0674 0.827853 17.2981C0.834751 17.3524 0.841649 17.4135 0.848547 17.4813C0.862344 17.5424 0.87614 17.6103 0.889937 17.6714C0.91753 17.8071 0.952021 17.9428 0.993411 18.0921C1.15897 18.6689 1.37971 19.3136 1.46939 19.8701C1.66254 19.6733 1.65564 19.809 1.65564 19.9855C1.66254 20.1551 1.66944 20.3655 1.85569 20.2976C1.77291 20.4062 1.77981 20.5759 1.60735 20.4605C1.64874 20.5148 1.69013 20.5759 1.71773 20.6301C1.75222 20.6844 1.77981 20.7319 1.80051 20.7862C1.84879 20.888 1.88328 20.983 1.91778 21.0713C1.95227 21.1595 1.99366 21.2409 2.05574 21.3088C2.11783 21.3766 2.2075 21.4309 2.32477 21.4716C2.25579 21.587 2.11093 21.4581 2.07644 21.5463C2.12472 21.5734 2.26269 21.6481 2.2282 21.7295C2.2006 21.8177 2.09713 21.7092 2.00745 21.6617C2.09023 21.7838 2.17301 21.8652 2.25579 21.9195C2.33857 21.967 2.42825 21.9874 2.51103 21.9874C2.67658 21.9874 2.84214 21.906 3.0008 21.8313C3.0146 21.9942 3.04219 22.1028 3.11117 22.1706C3.18016 22.2385 3.28363 22.2724 3.43539 22.286C3.4009 22.4285 3.4078 22.6321 3.16636 22.381C3.19395 22.4217 3.24224 22.5099 3.31122 22.6117C3.34571 22.666 3.38021 22.7203 3.42159 22.7814C3.46298 22.8357 3.50437 22.8968 3.55266 22.951C3.73202 23.1682 3.91827 23.3446 4.03554 23.2564C4.02174 23.3446 4.208 23.4668 4.26318 23.4872C4.33216 23.5686 4.38735 23.6364 4.43564 23.6907C4.48393 23.745 4.52531 23.7857 4.5667 23.8333C4.64948 23.9215 4.73226 24.0029 4.89782 24.1386L4.84263 24.0233C5.02199 23.9622 5.09097 24.0097 5.16685 24.0911C5.23584 24.1793 5.29792 24.3015 5.44278 24.4033L5.41519 24.4237C5.52556 24.6001 5.60834 24.6883 5.67042 24.7426C5.73251 24.7969 5.7739 24.8105 5.81529 24.8308C5.85668 24.8444 5.89807 24.8648 5.95325 24.919C5.98085 24.9462 6.01534 24.9869 6.05673 25.0412C6.09812 25.0887 6.1464 25.1566 6.20849 25.2448L6.29817 25.0548C6.46372 24.8987 6.5603 25.048 6.67757 25.2516C6.80174 25.4552 6.9604 25.713 7.20184 25.7605C7.20184 25.7605 7.19494 25.747 7.18804 25.7334C7.18114 25.713 7.17424 25.6927 7.16045 25.6655C7.13975 25.618 7.12596 25.5705 7.12596 25.5705C7.27082 25.5773 7.3398 25.7877 7.40189 26.0252C7.46397 26.2627 7.51916 26.5342 7.62953 26.6156C7.66402 26.6767 7.51916 26.6292 7.43638 26.6156C7.67782 26.8871 7.733 26.8396 7.78129 26.7378C7.82958 26.6428 7.88476 26.5002 8.1193 26.5817C8.1262 26.6699 8.05722 26.7378 8.02273 26.8056C8.00893 26.8396 7.99514 26.8735 8.00893 26.9142C8.02273 26.9549 8.05722 26.9956 8.14 27.0364C8.19518 27.1246 8.47112 27.1178 8.77464 27.1449C8.9264 27.1517 9.08506 27.1653 9.22302 27.1992C9.29201 27.2196 9.36099 27.2467 9.41617 27.2807C9.47826 27.3146 9.52655 27.3553 9.57484 27.4028C9.51275 27.2671 9.45756 27.1246 9.7059 27.1178C9.79558 27.1381 9.88526 27.1856 9.98183 27.2535C10.0301 27.2874 10.0784 27.3214 10.1267 27.3553C10.175 27.3892 10.2302 27.4232 10.2785 27.4571C10.4854 27.586 10.7061 27.681 10.9062 27.5385C10.9407 27.5793 10.9545 27.6132 10.9476 27.6403C11.0166 27.6335 11.1131 27.6335 11.2097 27.6335C11.3132 27.6335 11.4167 27.6403 11.527 27.6268C11.7409 27.6132 11.9409 27.586 12.0306 27.5046C12.0651 27.6946 12.1893 27.7761 12.3548 27.81C12.5204 27.8439 12.7273 27.8236 12.9274 27.7896C13.024 27.7761 13.1205 27.7557 13.2102 27.7489C13.2999 27.7353 13.3758 27.7353 13.4448 27.7353C13.5827 27.7421 13.6655 27.8032 13.6586 27.9661C13.6586 27.9661 13.7138 27.9661 13.7897 27.9661C13.8655 27.9661 13.9759 27.9661 14.0794 27.9593C14.2863 27.9457 14.5002 27.9389 14.5002 27.9389L14.4795 28.0068C14.5485 28.0136 14.6106 28.0136 14.6657 28.0136C14.7209 28.0136 14.7761 28.0068 14.8244 27.9932C14.921 27.9796 14.9969 27.9525 15.0658 27.9186C15.1969 27.8575 15.2866 27.7761 15.3694 27.6878C15.4935 27.7218 15.4108 27.7896 15.4039 27.8236C15.7971 27.8507 16.0178 27.8575 16.2041 27.7896C16.3006 27.7557 16.3903 27.715 16.4938 27.6539C16.5421 27.62 16.5973 27.586 16.6593 27.5453C16.7145 27.4978 16.7835 27.4503 16.8525 27.396L16.9629 27.5928C16.9974 27.5521 17.0939 27.5385 17.2181 27.5385C17.3492 27.5317 17.5078 27.5317 17.6872 27.5182C17.7769 27.5114 17.8734 27.5046 17.97 27.491C18.0666 27.4775 18.1632 27.4571 18.2597 27.43C18.3563 27.4028 18.4529 27.3689 18.5426 27.3282C18.6322 27.2874 18.7219 27.2332 18.7978 27.1721C18.7978 27.1992 18.7978 27.2399 18.7495 27.2942C18.8392 27.2264 18.9427 27.1789 19.053 27.1381C19.1082 27.1178 19.1634 27.0974 19.2186 27.0839C19.2738 27.0635 19.3359 27.0499 19.391 27.0296C19.6256 26.9685 19.8739 26.9346 20.0947 26.8667C20.205 26.8396 20.3154 26.8056 20.4051 26.7649C20.4534 26.7445 20.5017 26.7242 20.5431 26.7038C20.5844 26.6767 20.6189 26.6563 20.6534 26.6292C20.7914 26.5206 20.8673 26.3713 20.8397 26.1677C20.8397 26.1677 20.8673 26.1406 20.9018 26.0999C20.9432 26.0591 20.9845 26.0048 21.0328 25.9438C21.1294 25.8284 21.2191 25.7198 21.2191 25.7198C20.8949 25.8759 20.8742 25.7877 20.8949 25.6723C20.9156 25.5502 20.9707 25.4009 20.8121 25.4144C20.9156 25.3262 21.1018 25.2855 21.226 25.2923C21.2881 25.2923 21.3364 25.3059 21.3501 25.333C21.3639 25.3602 21.3501 25.4009 21.2812 25.4552L21.2122 25.4484C21.2398 25.5502 21.3088 25.5841 21.3915 25.5705C21.4743 25.5637 21.5778 25.5095 21.6813 25.4484C21.7847 25.3941 21.8882 25.3262 21.9779 25.2923C22.0676 25.2584 22.1365 25.2516 22.171 25.3059C22.3159 25.1973 22.4539 25.0955 22.6056 24.9869C22.7505 24.8783 22.8885 24.7765 23.0333 24.668C23.1023 24.6137 23.1782 24.5662 23.2472 24.5119C23.3162 24.4576 23.3851 24.4033 23.4541 24.349C23.5231 24.2947 23.5921 24.2404 23.6611 24.1861C23.6956 24.159 23.73 24.1318 23.7645 24.1047L23.8611 24.0165C23.9922 23.9011 24.1301 23.7857 24.2612 23.6772C24.3923 23.5618 24.5164 23.4396 24.6406 23.3175C24.7027 23.2564 24.7648 23.1953 24.8269 23.1343C24.8821 23.0732 24.9441 23.0053 24.9993 22.9443C25.0545 22.8764 25.1097 22.8153 25.1649 22.7542C25.2201 22.6932 25.2753 22.6253 25.3235 22.5574C25.3235 22.5574 25.2339 22.5439 25.1511 22.5235C25.1097 22.5167 25.0614 22.5099 25.0338 22.5031C24.9993 22.4964 24.9786 22.4896 24.9786 22.4896C24.9786 22.4896 24.9855 22.4828 24.9924 22.476C24.9993 22.4692 25.0131 22.4556 25.0269 22.4353C25.0545 22.4014 25.089 22.3539 25.1235 22.3131C25.1925 22.2249 25.2684 22.1299 25.2684 22.1299C25.3994 22.0756 25.5719 22.1367 25.3649 22.4014C25.4891 22.381 25.5443 22.2453 25.5581 22.1095C25.5719 21.9738 25.5374 21.8381 25.5098 21.811C25.7374 21.5734 25.7857 21.6752 25.7857 21.8177C25.7857 21.9603 25.7374 22.1435 25.7995 22.062L25.9306 21.8177L25.8616 21.8517C25.8685 21.7227 25.8409 21.6345 25.8478 21.5395C25.8478 21.492 25.8616 21.4445 25.8823 21.3834C25.903 21.3223 25.9375 21.2545 25.9927 21.173C26.172 20.9898 26.2272 21.1595 26.2893 21.078C26.31 21.0916 26.3376 21.0645 26.3721 20.9491C26.3721 20.9491 26.3928 20.9152 26.4204 20.8677C26.448 20.8202 26.4824 20.7523 26.5238 20.6912C26.5997 20.5623 26.6756 20.4333 26.6756 20.4333C26.6756 20.4333 26.5928 20.4605 26.51 20.4809C26.4273 20.508 26.3445 20.5284 26.3445 20.5284C26.3514 20.3858 26.4135 20.2637 26.4342 20.1958C26.4411 20.1619 26.4342 20.1348 26.4066 20.128C26.379 20.1212 26.3238 20.1348 26.2272 20.1619C26.51 20.0805 26.7791 19.6054 26.9653 19.11C27.0136 18.9879 27.055 18.8657 27.0895 18.7504C27.1309 18.635 27.1654 18.5196 27.193 18.4246C27.2551 18.2278 27.3033 18.0785 27.3516 18.031C27.3309 17.9292 27.324 17.8342 27.324 17.746C27.324 17.651 27.324 17.556 27.3378 17.4678C27.3585 17.2778 27.4137 17.0877 27.462 16.8774C27.393 16.9724 27.1033 16.9859 27.1999 16.6263C27.3378 16.6873 27.4275 16.6738 27.4965 16.6195C27.5655 16.5652 27.6138 16.4702 27.6483 16.3616C27.6827 16.253 27.7172 16.1241 27.7724 16.0087C27.8 15.9544 27.8276 15.8934 27.869 15.8459C27.8966 15.8051 27.9311 15.7712 27.9794 15.7373C27.8621 15.8051 27.8621 15.5473 27.8552 15.3165C27.8552 15.1876 27.8345 15.0654 27.7931 15.0044C27.7517 14.9433 27.6965 14.9365 27.5931 15.0383C27.6483 14.7261 27.8138 15.0315 27.9587 14.794C27.9311 14.699 27.9173 14.5972 27.9035 14.5022C27.8897 14.4004 27.8828 14.2986 27.8828 14.1968C27.8828 14.095 27.8897 13.9864 27.8966 13.8778C27.8966 13.7693 27.9035 13.6607 27.9104 13.5521C27.9173 13.4435 27.9242 13.3282 27.9311 13.2128C27.9311 13.0974 27.9311 12.9821 27.9311 12.8667C27.9311 12.8056 27.9311 12.7513 27.9242 12.6903L27.9173 12.602L27.9035 12.5138C27.8897 12.3984 27.869 12.2831 27.8345 12.1677C27.7586 12.1677 27.662 12.3374 27.5172 12.1609C27.5172 12.1609 27.5379 12.127 27.5655 12.0727C27.5793 12.0456 27.5931 12.0184 27.6138 11.9845C27.6276 11.9506 27.6483 11.9166 27.662 11.8827C27.731 11.7402 27.8 11.5977 27.8 11.5977C27.7586 11.5095 27.6414 11.4891 27.5586 11.4416C27.5172 11.4212 27.4827 11.3873 27.4689 11.3398C27.4551 11.2923 27.462 11.2244 27.5103 11.1294C27.462 11.1905 27.3861 11.2855 27.324 11.1701C27.3102 10.9394 27.2826 10.7087 27.2275 10.4779C27.1999 10.3626 27.1723 10.254 27.1378 10.1386C27.1033 10.0233 27.0619 9.91469 27.0205 9.80611C26.9791 9.69753 26.9377 9.58895 26.8963 9.48037C26.8481 9.37179 26.7998 9.26321 26.7446 9.16142C26.6963 9.05284 26.648 8.95104 26.5928 8.84246L26.4273 8.5303C26.3169 8.31992 26.1996 8.11633 26.0823 7.91275L25.9996 7.75666C25.972 7.70237 25.9444 7.65487 25.9099 7.60058C25.8547 7.49879 25.7995 7.39021 25.7443 7.28841L25.6685 7.12555C25.6409 7.07126 25.6133 7.02375 25.5857 6.96946C25.5305 6.86088 25.4822 6.7523 25.4339 6.64372C25.3856 6.52836 25.3373 6.41978 25.2959 6.30441C25.2477 6.18904 25.2063 6.07368 25.1718 5.95153C25.2201 6.23655 25.1028 6.10761 24.9786 5.95153ZM27.9725 15.7305C27.9794 15.7237 27.9932 15.7169 28.0001 15.7101C27.9932 15.7101 27.9794 15.7169 27.9725 15.7305ZM10.3129 0.902569C10.3336 0.895783 10.3474 0.888997 10.3474 0.888997C10.3267 0.888997 10.3198 0.895783 10.3129 0.902569ZM10.3474 1.01115C10.3336 0.970431 10.2716 0.929714 10.3129 0.902569C10.306 0.902569 10.3061 0.909355 10.2992 0.909355C10.2716 0.922928 10.2371 0.9365 10.1957 0.956859C10.1267 0.99079 10.0508 1.03151 10.0508 1.03151C10.1957 0.970431 10.2647 0.997576 10.3474 1.01115ZM11.0787 1.3301C11.0028 1.34367 10.9062 1.41832 10.8027 1.4794C10.8372 1.56083 10.8924 1.57441 10.9683 1.56083C11.0028 1.55405 11.0442 1.54047 11.0925 1.52012C11.1407 1.49976 11.189 1.48619 11.2373 1.46583C11.2235 1.46583 11.2166 1.47261 11.2028 1.47261C11.2028 1.35046 11.1545 1.31653 11.0787 1.3301ZM11.4719 1.40475C11.4788 1.30296 11.3891 1.39796 11.2787 1.44547C11.3477 1.4319 11.4098 1.41154 11.4719 1.40475ZM8.547 1.76442C8.66427 1.76442 8.5194 1.53369 8.60218 1.57441C8.61598 1.45225 8.47801 1.58119 8.40213 1.69656C8.36074 1.75763 8.34005 1.81192 8.36074 1.83907C8.37454 1.85943 8.42973 1.84586 8.547 1.76442ZM9.51965 2.31411L9.85077 2.25982C9.83697 2.22588 9.86456 2.19195 9.90595 2.15802C9.7128 2.22588 9.48516 2.25982 9.51965 2.31411ZM10.1474 2.04944C10.0922 2.0698 9.97493 2.11052 9.90595 2.16481C10.0025 2.13088 10.0991 2.10373 10.1474 2.04944ZM24.2198 4.81144C24.2474 4.81823 24.275 4.8318 24.275 4.8318C24.275 4.8318 24.2681 4.81144 24.2543 4.79108C24.2405 4.76394 24.2267 4.73 24.206 4.69607C24.1715 4.62821 24.137 4.56035 24.137 4.56035L24.1646 4.79108C24.1646 4.79108 24.1922 4.80465 24.2198 4.81144ZM23.7921 4.42462C23.7921 4.42462 23.7162 4.4382 23.6404 4.45856C23.5645 4.47213 23.4886 4.49249 23.4886 4.49249C23.5438 4.52642 23.6473 4.59428 23.6404 4.67571L23.7921 4.42462Z" fill="#F5D955"/>
</g>
<g clip-path="url(#clip1_30_6758)">
<path d="M21.3261 19.15C21.3137 19.1296 21.2007 19.0906 21.2554 19.0227C21.2266 19.0097 21.378 19.015 21.3261 19.15ZM21.6519 17.7032L21.686 17.7468L21.6553 17.5181L21.6519 17.7032ZM21.9197 16.7929C21.9164 16.825 21.9131 16.8571 21.9098 16.8892C21.9065 16.9212 21.9032 16.9533 21.8955 16.9861C21.8803 17.0518 21.8636 17.1086 21.8274 17.1554L21.773 17.1738L21.8876 17.325C21.9029 17.2594 21.9166 17.185 21.9303 17.1106C21.944 17.0362 21.9578 16.9619 21.9672 16.8882C21.986 16.741 22.0165 16.6097 22.0682 16.5243C21.9587 16.5567 21.933 16.6646 21.9197 16.7929ZM22.6092 16.0934C22.6132 16.0657 22.6201 16.0285 22.6396 15.9621C22.5559 15.9901 22.6031 15.8019 22.5821 16.1161C22.5935 16.1051 22.6013 16.0993 22.6092 16.0934ZM22.6092 16.0934C22.6889 16.0166 22.588 16.2276 22.6092 16.0934V16.0934ZM22.8246 15.5207C22.8137 15.3291 22.7659 15.3598 22.6763 15.4563L22.7181 15.6471C22.7659 15.6163 22.8004 15.4574 22.8246 15.5207ZM22.5714 15.3619C22.5914 15.3494 22.6048 15.3246 22.5548 15.2658C22.5548 15.2658 22.5594 15.292 22.5631 15.3138C22.5677 15.34 22.5714 15.3619 22.5714 15.3619ZM22.5787 15.4552C22.5211 15.4291 22.5739 15.4785 22.6026 15.568L22.5714 15.3619C22.5358 15.3861 22.4726 15.379 22.5787 15.4552ZM22.4586 15.9394C22.4758 15.9364 22.4986 15.9145 22.5168 15.8663C22.5358 15.8226 22.5554 15.7562 22.5582 15.6702C22.5306 15.7155 22.5045 15.7695 22.4767 15.7878C22.4532 15.8053 22.433 15.7908 22.4121 15.6954C22.3977 15.8689 22.4199 15.9461 22.4586 15.9394ZM21.8885 16.4068C21.8885 16.4068 21.8665 16.4331 21.8445 16.4594C21.8338 16.4748 21.8224 16.4857 21.8154 16.4959C21.8083 16.5062 21.8004 16.512 21.8004 16.512L21.8309 16.6373C21.8213 16.6074 21.8517 16.5527 21.8786 16.503C21.9011 16.4541 21.9158 16.4111 21.8885 16.4068ZM22.7182 14.468C22.7285 14.5023 22.7389 14.5365 22.7389 14.5365C22.7713 14.4679 22.7975 14.3373 22.8627 14.3306C22.821 14.3198 22.7491 14.3907 22.6975 14.3996C22.6975 14.3996 22.699 14.4083 22.7056 14.4207C22.7036 14.4346 22.7109 14.4513 22.7182 14.468ZM22.694 14.4047L22.6241 14.2053C22.6141 14.378 22.6467 14.4129 22.694 14.4047ZM22.3369 15.2089C22.3369 15.2089 22.3692 15.2933 22.3922 15.3748C22.4201 15.46 22.4438 15.5459 22.4438 15.5459C22.4438 15.5459 22.4179 15.4469 22.3962 15.3471C22.3836 15.2998 22.3703 15.2481 22.3592 15.2095C22.3481 15.1709 22.34 15.1498 22.34 15.1498L22.3369 15.2089ZM22.8649 13.5742C22.8758 13.5858 22.8867 13.5974 22.8983 13.6134C22.9251 13.6403 22.9475 13.6679 22.9475 13.6679C22.9475 13.6679 22.9084 13.6207 22.8685 13.5691C22.8293 13.5218 22.7851 13.4709 22.7851 13.4709L22.844 13.5553C22.8447 13.5597 22.8541 13.5625 22.8649 13.5742ZM22.7787 13.049C22.8712 13.1231 22.8974 12.916 22.9606 12.9996C22.9278 12.8613 22.8422 12.7501 22.7639 12.6556C22.8172 12.7589 22.8211 12.8842 22.7787 13.049ZM22.6427 12.492C22.674 12.5451 22.7182 12.596 22.7632 12.6512C22.7362 12.5974 22.6955 12.5414 22.6427 12.492ZM22.7505 13.7064L22.6364 13.7891C22.6359 13.8117 22.6361 13.8387 22.6363 13.8656C22.6642 13.8473 22.7299 13.818 22.7505 13.7064ZM22.6364 13.7891C22.635 13.7039 22.6338 13.6456 22.6343 13.623C22.633 13.6412 22.6327 13.6908 22.6364 13.7891ZM22.6394 13.8831C22.6379 13.8744 22.6371 13.87 22.6406 13.8649C22.6242 13.8722 22.6207 13.8773 22.6394 13.8831ZM22.2549 14.5795C22.3317 14.6653 22.398 14.5368 22.4863 14.7151C22.4258 14.595 22.3671 14.3576 22.2549 14.5795ZM22.4804 14.0906C22.4715 14.1416 22.4669 14.1919 22.4669 14.1919C22.497 14.1867 22.544 14.1516 22.5761 14.2091C22.5761 14.2091 22.5577 14.1537 22.535 14.0991C22.5254 14.0693 22.5166 14.0438 22.5085 14.0227C22.5004 14.0016 22.4939 13.9892 22.4939 13.9892C22.4939 13.9892 22.4918 14.0031 22.4906 14.0213C22.4885 14.0352 22.4844 14.0629 22.4804 14.0906ZM22.5018 13.9069L22.4535 13.8837L22.4974 13.9841L22.5018 13.9069ZM22.5037 12.9435C22.5411 12.955 22.6147 12.9963 22.5928 12.8696C22.5595 12.8304 22.5426 12.7838 22.5249 12.7328C22.508 12.6862 22.4947 12.6345 22.4806 12.5785C22.4782 12.6419 22.4837 12.6994 22.4857 12.7621C22.4877 12.8248 22.4932 12.8823 22.5037 12.9435ZM22.6123 13.3163C22.6073 13.3126 22.6058 13.3039 22.6043 13.2952C22.5936 13.3105 22.5916 13.3243 22.6123 13.3163ZM22.2247 11.5066C22.2219 11.5161 22.2141 11.5219 22.2113 11.5314C22.2199 11.5299 22.2242 11.5292 22.2328 11.5277L22.2247 11.5066ZM22.481 12.9654C22.4702 13.0573 22.5051 13.1053 22.5485 13.1518C22.5286 13.0877 22.5123 13.0185 22.4987 12.9399C22.485 12.9377 22.4721 12.9399 22.481 12.9654ZM22.5254 12.1972C22.5163 12.2213 22.5122 12.249 22.5082 12.2767C22.5041 12.3044 22.4957 12.3329 22.4924 12.3649C22.5058 12.3401 22.5256 12.3007 22.5325 12.2635C22.5444 12.23 22.5434 12.1986 22.5254 12.1972ZM22.6341 13.263C22.6349 13.2674 22.64 13.271 22.6407 13.2754C22.662 13.2447 22.6498 13.2513 22.6341 13.263ZM22.6341 13.263C22.6129 13.2172 22.5811 13.1866 22.5528 13.151C22.5662 13.2027 22.5838 13.2537 22.6043 13.2952C22.6114 13.2849 22.6228 13.274 22.6341 13.263ZM22.3146 11.8736C22.3214 11.9129 22.3259 11.9391 22.3259 11.9391L22.3042 11.9159L22.3358 11.996C22.3318 11.9471 22.3414 11.9005 22.3503 11.8494C22.3592 11.7984 22.3802 11.7408 22.4033 11.6693C22.3112 11.5457 22.2644 11.5313 22.2292 11.5328C22.2292 11.5328 22.2559 11.6362 22.2776 11.736C22.2902 11.7833 22.3035 11.835 22.3146 11.8736ZM22.3614 12.1445C22.3667 12.1751 22.3763 12.205 22.3873 12.2436C22.3984 12.2821 22.4095 12.3207 22.4221 12.3681C22.389 12.3558 22.3594 12.3384 22.3334 12.3159C22.3031 12.2941 22.2771 12.2716 22.2526 12.2578C22.1985 12.2267 22.1525 12.2166 22.1029 12.2882C22.1124 12.318 22.1205 12.3391 22.1286 12.3602C22.1366 12.3813 22.144 12.3981 22.1505 12.4104C22.1687 12.4388 22.1846 12.4541 22.1998 12.4649C22.2351 12.4903 22.2726 12.5019 22.3104 12.5673C22.2593 12.3737 22.2818 12.4013 22.3186 12.4354C22.3555 12.4696 22.404 12.5197 22.4135 12.3695C22.4486 12.4445 22.4693 12.5129 22.4849 12.5777C22.4857 12.5056 22.4908 12.4327 22.5003 12.3591C22.4967 12.3642 22.4967 12.3642 22.4932 12.3693C22.4833 12.389 22.4754 12.3949 22.481 12.3759C22.481 12.3759 22.476 12.3723 22.4752 12.3679C22.4573 12.3665 22.4436 12.3643 22.4292 12.3578C22.4303 12.2361 22.4563 12.3352 22.4752 12.3679C22.4795 12.3672 22.4889 12.37 22.4932 12.3693C22.4932 12.3693 22.4843 12.3438 22.4697 12.3103C22.4543 12.2725 22.4374 12.2259 22.4162 12.1801C22.3774 12.0833 22.3393 11.9908 22.3393 11.9908C22.3382 12.036 22.3465 12.0841 22.3614 12.1445ZM22.0055 14.366C22.0169 14.3551 22.0255 14.3536 22.0349 14.3565C22.021 14.3274 22.0109 14.3201 22.0055 14.366ZM22.3421 14.0334C22.35 14.0276 22.3586 14.0261 22.3664 14.0202C22.3657 14.0159 22.3578 14.0217 22.3421 14.0334ZM22.1317 14.3533C22.0965 14.4313 22.0736 14.3498 22.0349 14.3565C22.0662 14.4096 22.1169 14.5493 22.1807 14.3808L22.1626 14.3524C22.1953 14.2343 22.293 14.0824 22.3421 14.0334C22.2478 14.0767 22.1757 14.1207 22.0803 14.2091C22.0941 14.2382 22.1424 14.2614 22.1317 14.3533ZM22.2199 13.1455C22.1934 13.0691 22.1704 12.9875 22.1704 12.9875L22.0901 13.1634L22.1496 13.1486C22.1485 13.1938 22.1538 13.2244 22.1576 13.2463C22.1656 13.2674 22.1722 13.2797 22.1866 13.2862C22.2111 13.3 22.2404 13.2904 22.2642 13.2998C22.2642 13.2998 22.2604 13.278 22.2509 13.2482C22.2463 13.2219 22.2352 13.1833 22.2199 13.1455ZM22.4023 11.458C22.4023 11.458 22.3474 11.4224 22.2891 11.392C22.2307 11.3616 22.1715 11.3268 22.1715 11.3268L22.2688 11.454L22.4023 11.458ZM22.2242 11.0162C22.2242 11.0162 22.2191 11.0125 22.2083 11.0009C22.1982 10.9937 22.1873 10.982 22.1721 10.9712C22.1461 10.9486 22.1201 10.9261 22.1201 10.9261L22.1167 11.0347L22.2242 11.0162ZM13.6539 4.96671L13.6973 5.08973C13.7954 5.06829 13.873 5.08189 13.94 5.11084C13.8021 5.00414 13.6371 4.84361 13.6539 4.96671ZM19.584 7.39025C19.5199 7.27531 19.4567 7.1917 19.3974 7.12994C19.4683 7.28421 19.4904 7.4379 19.584 7.39025ZM4.96419 13.4599C4.98335 13.5196 5.00583 13.5472 5.03238 13.5471C5.01246 13.4831 4.99278 13.446 4.96419 13.4599ZM19.3974 7.12994C19.3739 7.07099 19.3383 7.01863 19.2921 6.98161C19.2451 6.94022 19.1875 6.91417 19.1157 6.90856C19.1245 6.93404 19.1404 6.94929 19.1485 6.9704C19.1917 6.98994 19.2306 7.01022 19.2746 7.03413C19.315 7.06316 19.3597 7.09144 19.3974 7.12994ZM20.3956 19.9406C20.3751 19.9757 20.3354 20.0275 20.2949 20.075C20.3227 20.0567 20.3561 20.0194 20.3956 19.9406ZM21.3992 9.41701C21.4179 9.42278 21.4522 9.49336 21.3992 9.41701V9.41701ZM21.1397 10.0423C21.169 10.0328 21.192 10.0378 21.2064 10.0443C21.187 10.0342 21.164 10.0291 21.1397 10.0423ZM21.3908 9.44546C21.3946 9.46731 21.4014 9.50663 21.4205 9.56633C21.4145 9.53137 21.407 9.48767 21.3908 9.44546ZM21.4618 9.52321C21.4714 9.55306 21.4845 9.57779 21.4926 9.5989C21.5148 9.59956 21.5212 9.58497 21.4618 9.52321ZM21.3992 9.41701C21.3818 9.39302 21.3593 9.36539 21.3229 9.30867C21.3527 9.35303 21.3739 9.39887 21.3951 9.44471C21.3878 9.42798 21.3906 9.41849 21.3992 9.41701ZM20.2992 20.0743C20.2271 20.1182 20.2095 19.9908 20.1503 19.956C20.1503 19.956 20.1589 19.9545 20.1703 19.9435C20.1825 19.9369 20.2025 19.9245 20.2225 19.912C20.2667 19.8864 20.3231 19.8541 20.3796 19.8219C20.436 19.7897 20.4959 19.7523 20.541 19.731C20.5652 19.7178 20.5809 19.7061 20.5931 19.6995C20.6052 19.6929 20.6131 19.6871 20.6131 19.6871C20.5699 19.591 20.6486 19.4829 20.7231 19.3756C20.7628 19.3237 20.7975 19.2682 20.8158 19.2201C20.834 19.1719 20.8394 19.126 20.8111 19.0904L20.7485 19.2407C20.7229 19.0921 20.5894 19.0881 20.4344 19.0879C20.4207 19.0858 20.4035 19.0887 20.3899 19.0866C20.4828 18.958 20.5714 18.8302 20.6542 18.6944C21.934 16.696 22.2536 14.3412 21.731 12.1858C21.7318 12.1902 21.7361 12.1895 21.7368 12.1938L21.7948 12.1703C21.7688 12.0713 21.7145 12.0132 21.7028 12.0737C21.6791 11.9878 21.6605 11.9055 21.6325 11.8203C21.7692 11.9452 22.066 11.741 22.2047 11.519C22.1574 11.5272 22.1195 11.5383 21.9925 11.3667C21.9735 11.4105 21.9802 11.5263 21.9601 11.6153C21.9444 11.7035 21.9155 11.767 21.846 11.698C21.7855 11.5779 21.7764 11.5255 21.7868 11.4832C21.7972 11.4409 21.8271 11.4087 21.833 11.3402C21.7841 11.4161 21.7111 11.3522 21.6287 11.2855C21.5666 11.2332 21.4923 11.1875 21.4271 11.1943C21.3844 11.0756 21.3325 10.9541 21.2856 10.8362L21.3924 10.7367L21.2601 10.7146L21.2856 10.8362C21.1362 10.4839 20.9611 10.1362 20.7581 9.80668C20.7761 9.80808 20.7918 9.79637 20.7958 9.76867L20.7016 9.65892C20.7174 9.5707 20.7894 9.60327 20.8485 9.63806C20.912 9.67211 20.9625 9.70839 20.9373 9.61374C20.9618 9.62751 20.9828 9.64639 21.0073 9.66016C21.0318 9.67393 21.0528 9.69281 21.0781 9.71095C21.1235 9.7436 21.1698 9.78062 21.2168 9.82201C21.2594 9.86415 21.3029 9.91065 21.3385 9.96301C21.3705 10.0205 21.3983 10.0787 21.4154 10.1522L21.2866 10.278C21.3266 10.2531 21.2949 10.0695 21.2113 10.021C21.2704 10.0558 21.2693 10.1775 21.2846 10.2918C21.2901 10.3494 21.3042 10.4054 21.3289 10.4462C21.3537 10.4869 21.3898 10.5167 21.453 10.5238C21.453 10.5238 21.4604 10.464 21.4642 10.4093C21.4683 10.3816 21.4716 10.3495 21.4729 10.3313C21.4734 10.3087 21.4755 10.2949 21.4755 10.2949C21.5174 10.3326 21.5636 10.3697 21.6142 10.4059C21.6612 10.4473 21.7124 10.488 21.7602 10.5337C21.8079 10.5795 21.8514 10.626 21.8834 10.6835C21.9147 10.7366 21.9432 10.7992 21.9538 10.8603C22.0098 10.7742 21.9989 10.7625 21.9908 10.7414C21.9828 10.7203 21.9732 10.6905 22.0266 10.5643C21.9459 10.6862 21.8836 10.5304 21.82 10.3929C21.79 10.3216 21.7607 10.2546 21.7296 10.2285C21.7036 10.206 21.6778 10.2104 21.6517 10.2645C21.6981 10.1484 21.6802 10.0705 21.6616 9.98824C21.6372 9.89795 21.612 9.8033 21.6344 9.65093C21.5873 9.68605 21.5859 9.78079 21.5017 9.57482C21.4837 9.57342 21.4514 9.56551 21.437 9.55899C21.4355 9.55025 21.4355 9.55025 21.4347 9.54588C21.4355 9.55025 21.4362 9.55462 21.437 9.55899C21.4276 9.55611 21.4233 9.55685 21.4377 9.56336C21.4432 9.62091 21.4386 9.67121 21.4174 9.70188C21.3355 9.68902 21.2544 9.60401 21.1784 9.52263C21.098 9.44199 21.0248 9.35113 20.9672 9.32507C20.9238 9.20206 21.0483 9.33357 21.0633 9.24097C21.0633 9.24097 21.0194 9.21706 20.9761 9.19752C20.9329 9.17798 20.8847 9.15481 20.8847 9.15481C20.9302 9.11095 20.9265 9.01258 20.9375 8.94769C20.9484 8.8828 20.9747 8.85576 21.0947 8.96105L20.9399 8.73125C20.9206 8.6446 20.8782 8.55291 20.8294 8.47582C20.78 8.39435 20.7198 8.32823 20.6557 8.2898C20.5908 8.17049 20.3365 8.13339 20.4859 8.1526C20.4859 8.1526 20.4649 8.13372 20.4338 8.10758C20.4028 8.08145 20.3616 8.04805 20.3161 8.0154C20.2295 7.94936 20.1392 7.88842 20.1392 7.88842L20.157 7.86286C20.0186 7.70225 19.8225 7.59209 19.6441 7.45637C19.4586 7.33088 19.2901 7.17546 19.1655 6.94047C19.0985 6.91153 19.0308 6.87822 18.9615 6.83617C18.888 6.79486 18.8079 6.74118 18.7225 6.65691L18.7254 6.57092C18.6389 6.53183 18.5384 6.43668 18.4401 6.35464C18.3418 6.2726 18.2509 6.2073 18.1894 6.23591C18.1829 6.14703 18.1299 6.07068 18.0526 6.00752C18.0157 5.97338 17.971 5.9451 17.9212 5.91319C17.8722 5.88565 17.8189 5.85886 17.762 5.83717C17.7051 5.81549 17.6475 5.78943 17.5906 5.76775C17.5338 5.74606 17.4769 5.72438 17.4208 5.70706C17.3129 5.67169 17.2135 5.63483 17.1435 5.58841L17.0815 5.71613C17.057 5.70236 17.0332 5.69296 17.0051 5.6843C16.9814 5.6749 16.9533 5.66624 16.9253 5.65759C16.8735 5.63953 16.8181 5.62658 16.7627 5.61364C16.7074 5.60069 16.6477 5.58849 16.5845 5.5814C16.5213 5.57431 16.4581 5.56722 16.3906 5.56087L16.368 5.68628C16.2426 5.70343 16.1106 5.63169 15.9565 5.5593C15.8794 5.5231 15.8016 5.48254 15.7194 5.44271C15.6337 5.408 15.5453 5.38277 15.4583 5.36628C15.491 5.32464 15.5802 5.35424 15.6408 5.39778C15.5496 5.30551 15.4402 5.2614 15.3259 5.24062C15.2124 5.22421 15.0949 5.23551 14.9773 5.2468C14.8597 5.2581 14.7444 5.2825 14.6382 5.28283C14.5277 5.2839 14.4263 5.2609 14.3326 5.20508C14.2289 5.24548 14.1591 5.22602 14.0906 5.18834C14.0992 5.18686 14.1078 5.18537 14.1164 5.18389C14.1071 5.181 14.0891 5.1796 14.0762 5.18183C14.0322 5.15792 13.9875 5.12963 13.94 5.11084C13.9812 5.14423 14.0209 5.16888 14.054 5.18117C13.9786 5.18067 13.8618 5.19634 13.7472 5.22511L13.6973 5.08973C13.6887 5.09121 13.6801 5.0927 13.6715 5.09418C13.5563 5.04207 13.5809 5.15932 13.6428 5.26114C13.5841 5.28027 13.5363 5.31103 13.4978 5.34467C13.4481 5.23624 13.3765 5.2576 13.3007 5.2797C13.2627 5.29074 13.224 5.29742 13.1831 5.29099C13.1464 5.28382 13.1075 5.26353 13.0711 5.20681C13.0372 5.26667 12.8969 5.29989 12.7638 5.34986C12.648 5.39686 12.5387 5.45622 12.5057 5.54741C12.3793 5.53323 12.2552 5.53216 12.1598 5.62063L12.0745 5.45985C12.0745 5.45985 12.0198 5.52779 11.9659 5.6001C11.9119 5.67241 11.8623 5.74398 11.8623 5.74398C11.6831 5.68041 11.5959 5.63695 11.7265 5.4704C11.6418 5.54354 11.579 5.59037 11.5312 5.62112C11.4841 5.65625 11.452 5.67529 11.4199 5.69434C11.3556 5.73243 11.2957 5.76978 11.1699 5.913L11.151 5.80375C11.0387 5.84564 10.9055 6.04864 10.8103 5.98408C10.7304 5.95736 10.6136 5.97303 10.4704 6.01574C10.4368 6.02604 10.3988 6.03709 10.3566 6.04888C10.3194 6.0643 10.2779 6.08046 10.2408 6.09588C10.1578 6.1282 10.0756 6.16489 9.98553 6.20743C9.63822 6.37539 9.25395 6.58572 8.91124 6.70338C9.05703 6.80422 8.97029 6.81469 8.85852 6.83398C8.7518 6.85691 8.61928 6.88428 8.68264 6.99485C8.6048 6.95428 8.49808 6.9772 8.55231 6.85534C8.52244 6.88749 8.48828 6.92039 8.4569 6.94381C8.42628 6.9716 8.39921 6.99427 8.36708 7.01332C8.30787 7.05504 8.25146 7.08728 8.19934 7.11877C8.14723 7.15027 8.10016 7.18539 8.06396 7.23214C8.02776 7.27889 8.00318 7.34164 7.9902 7.42038C7.90958 7.3893 7.97542 7.28343 7.91576 7.27123C7.90384 7.30478 7.87164 7.40035 7.81628 7.3874C7.75738 7.37957 7.81485 7.30214 7.83513 7.24014C7.7668 7.30594 7.72427 7.36728 7.69893 7.42566C7.67789 7.48329 7.67479 7.54233 7.68385 7.59477C7.70195 7.69965 7.77164 7.79562 7.83628 7.88797C7.73461 7.91452 7.66884 7.94387 7.6334 7.99499C7.59795 8.04611 7.58777 8.11537 7.59577 8.21299C7.50172 8.20673 7.3735 8.23336 7.50616 8.05295C7.48339 8.07488 7.43278 8.11512 7.37584 8.16995C7.34522 8.19774 7.31459 8.22552 7.28043 8.25842C7.25056 8.29058 7.2164 8.32348 7.18729 8.36C7.06933 8.49737 6.97792 8.63465 7.04663 8.69929C6.98924 8.7002 6.93222 8.83155 6.92536 8.86873C6.88131 8.92134 6.84436 8.96372 6.81525 9.00024C6.78613 9.03677 6.76486 9.06744 6.7393 9.09886C6.69246 9.16094 6.64993 9.22229 6.58205 9.34201L6.6491 9.29443C6.7074 9.40137 6.68485 9.45027 6.64156 9.50724C6.59322 9.56059 6.52262 9.61327 6.47398 9.71617L6.45806 9.70092C6.35836 9.79013 6.31152 9.85222 6.28392 9.89749C6.25632 9.94275 6.25224 9.97046 6.24387 9.9989C6.2398 10.0266 6.23143 10.0551 6.20307 10.0959C6.18889 10.1164 6.16687 10.1427 6.137 10.1749C6.11144 10.2063 6.07373 10.2443 6.02463 10.2933L6.15481 10.3293C6.27179 10.4171 6.18777 10.4946 6.07162 10.5912C5.95623 10.6921 5.81022 10.8208 5.80652 10.9789C5.80652 10.9789 5.81437 10.9731 5.82221 10.9672C5.83435 10.9606 5.8465 10.954 5.86218 10.9423C5.89001 10.924 5.9186 10.9101 5.9186 10.9101C5.93014 11.0026 5.80441 11.0693 5.66074 11.1346C5.51706 11.1999 5.35113 11.2645 5.31162 11.3434C5.2767 11.3719 5.29095 11.2749 5.29049 11.221C5.14494 11.4036 5.18106 11.4334 5.25083 11.4529C5.3163 11.4731 5.41261 11.4924 5.38667 11.6499C5.33153 11.6639 5.281 11.6277 5.23424 11.6132C5.21124 11.6082 5.18823 11.6032 5.16395 11.6164C5.13966 11.6296 5.11764 11.6559 5.1009 11.7127C5.05104 11.7574 5.08551 11.9314 5.10151 12.1267C5.1138 12.2235 5.12256 12.3255 5.11615 12.4166C5.11079 12.4626 5.10114 12.5092 5.08568 12.5479C5.07097 12.5909 5.05046 12.626 5.02565 12.6618C5.10484 12.6076 5.18908 12.5571 5.22053 12.7136C5.21744 12.7727 5.19716 12.8347 5.16473 12.9033C5.14851 12.9376 5.1323 12.9719 5.11608 13.0062C5.09987 13.0405 5.08441 13.0791 5.06819 13.1134C5.00914 13.2586 4.97309 13.4089 5.08525 13.52C5.06322 13.5463 5.04324 13.5588 5.02529 13.5574C5.03713 13.6003 5.04769 13.6615 5.05825 13.7227C5.06956 13.7882 5.07658 13.8545 5.09725 13.923C5.12923 14.0569 5.1683 14.1807 5.22969 14.2286C5.11309 14.2712 5.07508 14.3588 5.07169 14.4674C5.0683 14.576 5.10382 14.7049 5.14719 14.8279C5.16635 14.8876 5.18981 14.9465 5.20391 15.0026C5.22232 15.0579 5.23061 15.106 5.23816 15.1497C5.24894 15.2378 5.2193 15.2969 5.11537 15.3104C5.11537 15.3104 5.12141 15.3453 5.12971 15.3934C5.138 15.4415 5.15007 15.5114 5.16569 15.5762C5.19691 15.7058 5.22459 15.8406 5.22459 15.8406L5.17934 15.8349C5.18259 15.8793 5.18938 15.9186 5.19541 15.9536C5.20144 15.9886 5.21178 16.0228 5.22565 16.0519C5.24481 16.1116 5.27031 16.1567 5.29935 16.1967C5.35237 16.273 5.41376 16.3209 5.4787 16.3637C5.47078 16.4461 5.41874 16.4011 5.39649 16.4004C5.42229 16.6525 5.44213 16.793 5.50549 16.9036C5.53754 16.9611 5.57314 17.0134 5.62315 17.0723C5.64992 17.0992 5.67745 17.1304 5.71004 17.1653C5.74616 17.1951 5.7838 17.2336 5.82573 17.2713L5.71313 17.3628C5.7427 17.3802 5.76185 17.4399 5.77543 17.5185C5.79406 17.6008 5.81141 17.7013 5.83962 17.8135C5.85373 17.8695 5.86859 17.93 5.88774 17.9897C5.9069 18.0494 5.93036 18.1083 5.95812 18.1665C5.98587 18.2247 6.01793 18.2822 6.05353 18.3346C6.08913 18.3869 6.13332 18.4378 6.18031 18.4792C6.16312 18.4822 6.13732 18.4866 6.09765 18.462C6.15045 18.5113 6.19185 18.5717 6.22972 18.6372C6.24865 18.6699 6.26758 18.7026 6.28221 18.7361C6.30114 18.7688 6.31653 18.8067 6.33546 18.8394C6.3998 18.9813 6.44845 19.1349 6.51558 19.2673C6.54484 19.3343 6.57841 19.4005 6.61401 19.4529C6.63218 19.4812 6.65036 19.5096 6.66778 19.5336C6.6895 19.5568 6.70617 19.5765 6.72714 19.5953C6.81101 19.6709 6.91389 19.7026 7.03984 19.6629C7.03984 19.6629 7.06005 19.6774 7.08962 19.6948C7.11994 19.7166 7.15886 19.7368 7.20283 19.7607C7.28647 19.8093 7.36506 19.8542 7.36506 19.8542C7.23073 19.6659 7.28436 19.6432 7.3597 19.6437C7.43935 19.6434 7.53996 19.6621 7.51401 19.563C7.58121 19.6189 7.62737 19.7325 7.63665 19.8119C7.64344 19.8512 7.64012 19.8833 7.62444 19.895C7.60875 19.9067 7.58145 19.9024 7.53951 19.8646L7.53627 19.8202C7.4748 19.8488 7.46085 19.8962 7.4785 19.9472C7.49185 19.9989 7.53755 20.0585 7.58756 20.1174C7.63327 20.177 7.68757 20.2351 7.71887 20.2882C7.75017 20.3413 7.76202 20.3842 7.73139 20.412C7.81602 20.4919 7.89559 20.5682 7.98097 20.6525C8.06559 20.7324 8.14516 20.8086 8.22979 20.8885C8.27172 20.9263 8.31011 20.9692 8.35205 21.0069C8.39398 21.0447 8.43592 21.0825 8.47785 21.1202C8.51979 21.158 8.56172 21.1957 8.60366 21.2335C8.62463 21.2524 8.64559 21.2713 8.66656 21.2902L8.73301 21.3417C8.82042 21.4121 8.90859 21.4869 8.99171 21.558C9.07912 21.6285 9.17008 21.6938 9.26104 21.7591C9.30652 21.7917 9.352 21.8244 9.39748 21.857C9.44221 21.8853 9.49199 21.9172 9.53671 21.9455C9.58574 21.973 9.63046 22.0013 9.67519 22.0296C9.71991 22.0579 9.76894 22.0854 9.81721 22.1086C9.81721 22.1086 9.816 22.0503 9.81984 21.9956C9.81962 21.9687 9.81864 21.9373 9.81992 21.9191C9.82045 21.8965 9.82248 21.8827 9.82248 21.8827C9.82248 21.8827 9.82753 21.8863 9.83259 21.8899C9.83764 21.8935 9.84775 21.9008 9.86215 21.9073C9.88667 21.9211 9.92053 21.9377 9.9501 21.9551C10.0135 21.9892 10.082 22.0269 10.082 22.0269C10.1307 22.104 10.1109 22.2199 9.92061 22.1177C9.94708 22.1942 10.0391 22.2143 10.1266 22.2082C10.2141 22.2021 10.2963 22.1654 10.3105 22.1449C10.4858 22.2632 10.4266 22.3049 10.3363 22.3205C10.2461 22.3361 10.1247 22.3255 10.1831 22.3559L10.3522 22.4123L10.3231 22.3723C10.4056 22.3625 10.4584 22.3354 10.5194 22.3294C10.5495 22.3242 10.5811 22.3277 10.622 22.3342C10.663 22.3406 10.7097 22.355 10.7674 22.3811C10.9031 22.4747 10.8016 22.5282 10.86 22.5586C10.8537 22.5732 10.8739 22.5877 10.9507 22.5969C10.9507 22.5969 10.9745 22.6063 11.0076 22.6186C11.0407 22.6309 11.0875 22.6453 11.1307 22.6649C11.2207 22.6989 11.3106 22.7328 11.3106 22.7328C11.3106 22.7328 11.2844 22.6834 11.2624 22.6331C11.2362 22.5837 11.2142 22.5335 11.2142 22.5335C11.3053 22.5222 11.3895 22.5482 11.4347 22.5539C11.457 22.5546 11.4734 22.5472 11.4747 22.529C11.476 22.5108 11.4613 22.4773 11.4336 22.4191C11.5161 22.5894 11.8464 22.7078 12.1806 22.7717C12.2633 22.7889 12.3452 22.8018 12.4221 22.811C12.4997 22.8246 12.5765 22.8338 12.6397 22.8409C12.7712 22.8587 12.871 22.873 12.9064 22.8984C12.9686 22.8742 13.0281 22.8594 13.084 22.8498C13.1441 22.8394 13.2043 22.829 13.2617 22.8281C13.3844 22.8204 13.5108 22.8346 13.6493 22.8422C13.5816 22.8089 13.5413 22.6268 13.7797 22.6487C13.7561 22.7427 13.7745 22.7981 13.8164 22.8358C13.8584 22.8736 13.9238 22.8938 13.9964 22.9038C14.069 22.9137 14.1544 22.9215 14.2335 22.9438C14.2709 22.9554 14.3126 22.9662 14.3473 22.9872C14.3761 23.0002 14.4013 23.0184 14.4281 23.0453C14.3723 22.9784 14.5357 22.9502 14.6811 22.9206C14.7628 22.9065 14.8379 22.88 14.872 22.8471C14.9062 22.8142 14.9045 22.7785 14.8287 22.7241C15.0325 22.7249 14.8571 22.8632 15.0234 22.929C15.0806 22.9011 15.1436 22.8813 15.2022 22.8621C15.2652 22.8423 15.3289 22.8268 15.3934 22.8156C15.4579 22.8045 15.5275 22.797 15.597 22.7895C15.6658 22.7776 15.7353 22.7701 15.8049 22.7626C15.8744 22.7551 15.9482 22.7469 16.0221 22.7386C16.0951 22.726 16.1682 22.7134 16.2413 22.7008C16.28 22.6941 16.3144 22.6882 16.3523 22.6771L16.4075 22.6631L16.4618 22.6447C16.5334 22.6234 16.6042 22.5976 16.6736 22.5632C16.6653 22.5151 16.5472 22.4725 16.6432 22.3614C16.6432 22.3614 16.6669 22.3708 16.7043 22.3823C16.723 22.3881 16.7417 22.3939 16.7655 22.4033C16.7885 22.4083 16.8122 22.4177 16.8353 22.4227C16.9331 22.4509 17.0309 22.479 17.0309 22.479C17.0823 22.4431 17.0823 22.3666 17.1034 22.309C17.1117 22.2805 17.1295 22.255 17.1581 22.241C17.1866 22.2271 17.2304 22.224 17.2958 22.2442C17.2519 22.2203 17.1834 22.1826 17.2497 22.1307C17.3943 22.0967 17.5375 22.054 17.6776 21.9938C17.7477 21.9637 17.8135 21.9344 17.8828 21.8999C17.9521 21.8655 18.0163 21.8274 18.0806 21.7893C18.1449 21.7512 18.2091 21.7131 18.2734 21.675C18.3369 21.6325 18.4004 21.5901 18.4588 21.544C18.5223 21.5015 18.5815 21.4598 18.6443 21.413L18.8239 21.274C18.9451 21.181 19.0613 21.0845 19.1774 20.9879L19.2673 20.9184C19.2986 20.895 19.3257 20.8723 19.3563 20.8445C19.4148 20.7985 19.4775 20.7516 19.536 20.7055L19.6309 20.6396C19.6622 20.6162 19.6893 20.5936 19.7207 20.5701C19.7834 20.5233 19.8469 20.4808 19.9104 20.4384C19.9782 20.3952 20.0418 20.3527 20.1103 20.3139C20.1781 20.2707 20.2467 20.2318 20.3203 20.1966C20.145 20.2584 20.2139 20.17 20.2992 20.0743ZM14.4317 23.0401C14.4367 23.0438 14.4425 23.0518 14.4476 23.0554C14.4468 23.051 14.441 23.043 14.4317 23.0401ZM21.894 10.2316C21.9005 10.244 21.9063 10.252 21.9063 10.252C21.9041 10.2389 21.899 10.2353 21.894 10.2316ZM21.829 10.2654C21.8532 10.2522 21.8723 10.2084 21.894 10.2316C21.8932 10.2273 21.8889 10.228 21.8882 10.2236C21.8765 10.2076 21.8642 10.1873 21.8468 10.1633C21.8177 10.1233 21.7836 10.0797 21.7836 10.0797C21.8382 10.1648 21.8285 10.2114 21.829 10.2654ZM21.7069 10.7635C21.69 10.7169 21.6321 10.6639 21.5821 10.605C21.5343 10.6357 21.5317 10.6722 21.5486 10.7188C21.5567 10.7399 21.5698 10.7646 21.588 10.793C21.6062 10.8213 21.6201 10.8504 21.6382 10.8788C21.6367 10.8701 21.6317 10.8664 21.6302 10.8577C21.7075 10.8443 21.7238 10.81 21.7069 10.7635ZM21.7026 11.0207C21.7678 11.0139 21.6978 10.9675 21.6557 10.9028C21.6718 10.945 21.6915 10.9821 21.7026 11.0207ZM21.1549 9.20717C21.1677 9.28146 21.298 9.16446 21.2813 9.22135C21.3602 9.21673 21.2634 9.14343 21.182 9.10798C21.1388 9.08844 21.1022 9.08126 21.0872 9.09734C21.0759 9.10831 21.0905 9.14178 21.1549 9.20717ZM20.913 9.88344L20.9836 10.0873C21.0036 10.0748 21.0281 10.0886 21.0542 10.1111C20.99 9.99615 20.9437 9.85565 20.913 9.88344ZM21.1493 10.2522C21.1304 10.2194 21.0918 10.1496 21.0499 10.1118C21.0819 10.1693 21.1097 10.2275 21.1493 10.2522ZM20.9384 19.4689C20.9371 19.4871 20.9316 19.5061 20.9316 19.5061C20.9316 19.5061 20.9437 19.4995 20.9551 19.4885C20.9708 19.4768 20.9908 19.4644 21.01 19.4476C21.0492 19.4183 21.0884 19.389 21.0884 19.389L20.9453 19.4317C20.9453 19.4317 20.9397 19.4507 20.9384 19.4689ZM21.1367 19.1557C21.1367 19.1557 21.1198 19.1091 21.0986 19.0633C21.0817 19.0167 21.0605 18.9708 21.0605 18.9708C21.0451 19.0095 21.0134 19.0825 20.961 19.087L21.1367 19.1557Z" fill="#38632E"/>
</g>
<defs>
<clipPath id="clip0_30_6758">
<rect width="28" height="28" fill="white"/>
</clipPath>
<clipPath id="clip1_30_6758">
<rect width="18" height="18" fill="white" transform="translate(21.3379 3.6001) rotate(80.2066)"/>
</clipPath>
</defs>
</svg>
