<svg width="140" height="140" viewBox="0 0 140 140" fill="none" xmlns="http://www.w3.org/2000/svg">
<circle cx="70" cy="70" r="69" stroke="#F5D955" stroke-width="2"/>
<path d="M38.6228 41.2C40.9385 41.2 42.8228 39.3157 42.8228 37C42.8228 34.6843 40.9385 32.8 38.6228 32.8C36.3071 32.8 34.4228 34.6843 34.4228 37C34.4228 39.3157 36.3071 41.2 38.6228 41.2ZM38.6228 35.2C39.6155 35.2 40.4228 36.0073 40.4228 37C40.4228 37.9927 39.6155 38.8 38.6228 38.8C37.6301 38.8 36.8228 37.9927 36.8228 37C36.8228 36.0073 37.6301 35.2 38.6228 35.2ZM97.4228 98.8C95.1071 98.8 93.2228 100.684 93.2228 103C93.2228 105.316 95.1071 107.2 97.4228 107.2C99.7385 107.2 101.623 105.316 101.623 103C101.623 100.684 99.7385 98.8 97.4228 98.8ZM97.4228 104.8C96.4301 104.8 95.6228 103.993 95.6228 103C95.6228 102.007 96.4301 101.2 97.4228 101.2C98.4155 101.2 99.2228 102.007 99.2228 103C99.2228 103.993 98.4155 104.8 97.4228 104.8ZM95.57 37.756L96.926 36.4L95.57 35.044C95.1014 34.5754 95.1014 33.8158 95.57 33.3472C96.0386 32.8786 96.7982 32.8786 97.2668 33.3472L98.6228 34.7032L99.9788 33.3472C100.447 32.8786 101.207 32.8786 101.676 33.3472C102.144 33.8158 102.144 34.5754 101.676 35.044L100.32 36.4L101.676 37.756C102.144 38.2246 102.144 38.9842 101.676 39.4528C101.441 39.6871 101.134 39.8044 100.827 39.8044C100.52 39.8044 100.213 39.6871 99.9788 39.4528L98.6228 38.0968L97.2668 39.4528C97.0325 39.6871 96.7253 39.8044 96.4184 39.8044C96.1115 39.8044 95.8043 39.6871 95.57 39.4528C95.1014 38.9839 95.1014 38.2246 95.57 37.756ZM40.4756 99.844L39.1196 101.2L40.4756 102.556C40.9442 103.025 40.9442 103.784 40.4756 104.253C40.2413 104.487 39.9341 104.604 39.6272 104.604C39.3203 104.604 39.0131 104.487 38.7788 104.253L37.4228 102.897L36.0668 104.253C35.8325 104.487 35.5253 104.604 35.2184 104.604C34.9115 104.604 34.6043 104.487 34.37 104.253C33.9014 103.784 33.9014 103.025 34.37 102.556L35.726 101.2L34.37 99.844C33.9014 99.3755 33.9014 98.6159 34.37 98.1473C34.8386 97.6786 35.5982 97.6786 36.0668 98.1473L37.4228 99.5033L38.7788 98.1473C39.2474 97.6786 40.007 97.6786 40.4756 98.1473C40.9442 98.6159 40.9442 99.3755 40.4756 99.844ZM51.6641 37C51.6641 36.2494 52.2725 35.641 53.0231 35.641C53.7737 35.641 54.3821 36.2494 54.3821 37C54.3821 37.7503 53.7737 38.3587 53.0231 38.3587C52.2725 38.3587 51.6641 37.7503 51.6641 37ZM105.982 89.8001C105.982 90.5504 105.373 91.1588 104.623 91.1588C103.872 91.1588 103.264 90.5504 103.264 89.8001C103.264 89.0494 103.872 88.4411 104.623 88.4411C105.373 88.4411 105.982 89.0494 105.982 89.8001ZM34.2641 67.6001C34.2641 66.8494 34.8725 66.2411 35.6231 66.2411C36.3737 66.2411 36.9821 66.8494 36.9821 67.6001C36.9821 68.3503 36.3737 68.9588 35.6231 68.9588C34.8725 68.9588 34.2641 68.3503 34.2641 67.6001ZM105.981 62.0882C105.981 59.7073 104.044 57.7708 101.662 57.7708C99.2822 57.7708 97.3451 59.7073 97.3451 62.0882C97.3451 64.0495 98.6681 65.6908 100.462 66.215V76H95.6225V61.6C95.6225 61.4548 95.5871 61.3193 95.54 61.1905C95.5871 61.0616 95.6225 60.9262 95.6225 60.781V56.8711C95.6225 48.8918 89.1314 42.4003 81.1523 42.4003H54.893C46.9136 42.4003 40.4228 48.892 40.4228 56.8711V60.9998C40.4228 61.129 40.4585 61.2472 40.4963 61.3639C40.4801 61.4429 40.4486 61.5166 40.4486 61.6003V86.6726C40.4438 86.7167 40.4228 86.7551 40.4228 86.8004C40.4228 86.8457 40.4438 86.8841 40.4486 86.9282V94.0444C40.4486 94.7071 40.9853 95.2444 41.6486 95.2444H45.1226C46.949 100.263 51.6683 103.6 57.0587 103.6H79.2377C84.6281 103.6 89.3474 100.263 91.1738 95.2439H94.4228C95.0861 95.2439 95.6228 94.7066 95.6228 94.0438V84.4001H101.663C102.326 84.4001 102.863 83.8628 102.863 83.2001V77.2001V66.2153C104.658 65.6915 105.981 64.0499 105.981 62.0882ZM99.7454 62.0882C99.7454 61.0312 100.606 60.1709 101.663 60.1709C102.721 60.1709 103.581 61.031 103.581 62.0882C103.581 63.1456 102.721 64.0061 101.663 64.0061C100.606 64.0061 99.7454 63.1456 99.7454 62.0882ZM78.8228 85.6001V70H86.0228V85.6001H78.8228ZM87.2228 67.6001H77.6228C76.9595 67.6001 76.4228 68.1374 76.4228 68.8V85.6001H74.0228V68.8C74.0228 68.1374 73.4861 67.6001 72.8228 67.6001H63.2228C62.5595 67.6001 62.0228 68.1374 62.0228 68.8V85.6001H59.6228V68.8C59.6228 68.1374 59.0861 67.6001 58.4228 67.6001H48.8228C48.1595 67.6001 47.6228 68.1374 47.6228 68.8V85.6001H42.8486V62.8001H93.2228V85.6001H88.4228V68.8C88.4228 68.1374 87.8861 67.6001 87.2228 67.6001ZM64.4228 85.6001V70H71.6228V85.6001H64.4228ZM50.0228 85.6001V70H57.2228V85.6001H50.0228ZM46.7822 60.4C47.1596 55.0543 51.6185 50.8177 57.059 50.8177H79.238C84.6785 50.8177 89.1371 55.0546 89.5148 60.4H46.7822ZM79.2377 101.2H57.0587C52.9883 101.2 49.4018 98.849 47.7272 95.2439H88.5695C86.8946 98.849 83.3078 101.2 79.2377 101.2ZM42.8486 92.8438V88H93.2228V92.8438H42.8486ZM100.463 82H95.6228V78.4001H100.463V82ZM83.6228 73.6001V82C83.6228 82.6628 83.0861 83.2001 82.4228 83.2001C81.7595 83.2001 81.2228 82.6628 81.2228 82V73.6001C81.2228 72.9374 81.7595 72.4001 82.4228 72.4001C83.0861 72.4001 83.6228 72.9374 83.6228 73.6001ZM69.2228 73.6001V82C69.2228 82.6628 68.6861 83.2001 68.0228 83.2001C67.3595 83.2001 66.8228 82.6628 66.8228 82V73.6001C66.8228 72.9374 67.3595 72.4001 68.0228 72.4001C68.6861 72.4001 69.2228 72.9374 69.2228 73.6001ZM54.8228 73.6001V82C54.8228 82.6628 54.2861 83.2001 53.6228 83.2001C52.9595 83.2001 52.4228 82.6628 52.4228 82V73.6001C52.4228 72.9374 52.9595 72.4001 53.6228 72.4001C54.2861 72.4001 54.8228 72.9374 54.8228 73.6001ZM63.8588 56.2001C63.8588 56.8825 63.3053 57.4361 62.6228 57.4361C61.9403 57.4361 61.3868 56.8825 61.3868 56.2001C61.3868 55.5173 61.9403 54.964 62.6228 54.964C63.3053 54.964 63.8588 55.5173 63.8588 56.2001ZM68.6588 56.2001C68.6588 56.8825 68.1053 57.4361 67.4228 57.4361C66.7403 57.4361 66.1868 56.8825 66.1868 56.2001C66.1868 55.5173 66.7403 54.964 67.4228 54.964C68.1053 54.964 68.6588 55.5173 68.6588 56.2001ZM73.4588 56.2001C73.4588 56.8825 72.9053 57.4361 72.2228 57.4361C71.5403 57.4361 70.9868 56.8825 70.9868 56.2001C70.9868 55.5173 71.5403 54.964 72.2228 54.964C72.9053 54.964 73.4588 55.5173 73.4588 56.2001Z" fill="#F5D955"/>
</svg>
