<svg width="140" height="140" viewBox="0 0 140 140" fill="none" xmlns="http://www.w3.org/2000/svg">
<circle cx="70" cy="70" r="69" stroke="#F5D955" stroke-width="2"/>
<path d="M40.8022 33.1001C38.4865 33.1001 36.6022 34.9844 36.6022 37.3001C36.6022 39.6158 38.4865 41.5001 40.8022 41.5001C43.1179 41.5001 45.0022 39.6158 45.0022 37.3001C45.0022 34.9844 43.1179 33.1001 40.8022 33.1001ZM40.8022 39.1001C39.8095 39.1001 39.0022 38.2928 39.0022 37.3001C39.0022 36.3074 39.8095 35.5001 40.8022 35.5001C41.7949 35.5001 42.6022 36.3074 42.6022 37.3001C42.6022 38.2928 41.7946 39.1001 40.8022 39.1001ZM99.7609 55.3001C99.7609 56.0504 99.1525 56.6588 98.4019 56.6588C97.6513 56.6588 97.0429 56.0504 97.0429 55.3001C97.0429 54.5495 97.6513 53.9414 98.4019 53.9414C99.1525 53.9414 99.7609 54.5495 99.7609 55.3001ZM56.2432 37.3001C56.2432 36.5495 56.8516 35.9414 57.6022 35.9414C58.3528 35.9414 58.9612 36.5495 58.9612 37.3001C58.9612 38.0504 58.3528 38.6588 57.6022 38.6588C56.8516 38.6588 56.2432 38.0504 56.2432 37.3001ZM93.5494 41.0561L94.9054 39.7001L93.5494 38.3441C93.0808 37.8755 93.0808 37.1159 93.5494 36.6473C94.018 36.1787 94.7776 36.1787 95.2462 36.6473L96.6022 38.0033L97.9582 36.6473C98.4268 36.1787 99.1864 36.1787 99.655 36.6473C100.124 37.1159 100.124 37.8755 99.655 38.3441L98.299 39.7001L99.655 41.0561C100.124 41.5247 100.124 42.2843 99.655 42.7529C99.4207 42.9872 99.1135 43.1045 98.8066 43.1045C98.4997 43.1045 98.1925 42.9872 97.9582 42.7529L96.6022 41.3969L95.2462 42.7529C95.0119 42.9872 94.7047 43.1045 94.3978 43.1045C94.0909 43.1045 93.7837 42.9872 93.5494 42.7529C93.0808 42.284 93.0808 41.5247 93.5494 41.0561ZM40.855 65.9441L39.499 67.3001L40.855 68.6561C41.3236 69.1247 41.3236 69.8843 40.855 70.3529C40.6207 70.5872 40.3135 70.7045 40.0066 70.7045C39.6997 70.7045 39.3925 70.5872 39.1582 70.3529L37.8022 68.9969L36.4462 70.3529C36.2119 70.5872 35.9047 70.7045 35.5978 70.7045C35.2909 70.7045 34.9837 70.5872 34.7494 70.3529C34.2808 69.8843 34.2808 69.1247 34.7494 68.6561L36.1054 67.3001L34.7494 65.9441C34.2808 65.4755 34.2808 64.7159 34.7494 64.2473C35.218 63.7787 35.9776 63.7787 36.4462 64.2473L37.8022 65.6033L39.1582 64.2473C39.6268 63.7787 40.3864 63.7787 40.855 64.2473C41.3236 64.7159 41.3236 65.4755 40.855 65.9441ZM91.8022 73.5836V52.4255C91.8022 51.7622 91.2649 51.2255 90.6022 51.2255C87.8605 51.2255 85.6306 49.0166 85.6306 46.3001C85.6306 45.6368 85.0933 45.1001 84.4306 45.1001H53.5738C52.9111 45.1001 52.3738 45.6368 52.3738 46.3001C52.3738 49.0166 50.1436 51.2255 47.4022 51.2255C46.7395 51.2255 46.2022 51.7622 46.2022 52.4255V98.9747C46.2022 99.638 46.7395 100.175 47.4022 100.175C50.1439 100.175 52.3738 102.384 52.3738 105.1C52.3738 105.763 52.9111 106.3 53.5738 106.3H84.4192C85.8193 106.68 87.2839 106.9 88.8022 106.9C98.0659 106.9 105.602 99.3638 105.602 90.1001C105.602 81.8618 99.637 75.0041 91.8022 73.5836ZM54.6748 103.9C54.1615 100.818 51.7054 98.3783 48.6022 97.8719V53.5283C51.7054 53.0219 54.1615 50.582 54.6748 47.5001H83.3296C83.8429 50.582 86.299 53.0219 89.4022 53.5283V73.3307C89.2015 73.3235 89.0047 73.3001 88.8022 73.3001C79.5385 73.3001 72.0022 80.8364 72.0022 90.1001C72.0022 95.8139 74.8747 100.864 79.246 103.9H54.6748ZM88.8022 101.5C82.5163 101.5 77.4022 96.3863 77.4022 90.1001C77.4022 83.8139 82.5163 78.7001 88.8022 78.7001C95.0881 78.7001 100.202 83.8139 100.202 90.1001C100.202 96.3863 95.0881 101.5 88.8022 101.5ZM88.8022 78.1154C82.1941 78.1154 76.8181 83.492 76.8181 90.1001C76.8181 96.7082 82.1941 102.085 88.8022 102.085C95.4103 102.085 100.786 96.7082 100.786 90.1001C100.786 83.492 95.4103 78.1154 88.8022 78.1154ZM88.8022 99.6848C83.5177 99.6848 79.2181 95.3852 79.2181 90.1001C79.2181 84.815 83.5177 80.5154 88.8022 80.5154C94.0867 80.5154 98.3863 84.815 98.3863 90.1001C98.3863 95.3852 94.0867 99.6848 88.8022 99.6848ZM54.3538 64.0517L56.5054 61.9001L54.3538 59.7485C53.8852 59.2799 53.8852 58.5203 54.3538 58.0517C54.8224 57.5831 55.582 57.5831 56.0506 58.0517L58.2022 60.2033L60.3538 58.0517C60.8224 57.5831 61.582 57.5831 62.0506 58.0517C62.5192 58.5203 62.5192 59.2799 62.0506 59.7485L59.899 61.9001L62.0506 64.0517C62.5192 64.5203 62.5192 65.2799 62.0506 65.7485C61.8163 65.9828 61.5091 66.1001 61.2022 66.1001C60.8953 66.1001 60.5881 65.9828 60.3538 65.7485L58.2022 63.5969L56.0506 65.7485C55.8163 65.9828 55.5091 66.1001 55.2022 66.1001C54.8953 66.1001 54.5881 65.9828 54.3538 65.7485C53.8849 65.2799 53.8849 64.5203 54.3538 64.0517ZM65.1538 64.0517L67.3054 61.9001L65.1538 59.7485C64.6852 59.2799 64.6852 58.5203 65.1538 58.0517C65.6224 57.5831 66.382 57.5831 66.8506 58.0517L69.0022 60.2033L71.1538 58.0517C71.6224 57.5831 72.382 57.5831 72.8506 58.0517C73.3192 58.5203 73.3192 59.2799 72.8506 59.7485L70.699 61.9001L72.8506 64.0517C73.3192 64.5203 73.3192 65.2799 72.8506 65.7485C72.6163 65.9828 72.3091 66.1001 72.0022 66.1001C71.6953 66.1001 71.3881 65.9828 71.1538 65.7485L69.0022 63.5969L66.8506 65.7485C66.6163 65.9828 66.3091 66.1001 66.0022 66.1001C65.6953 66.1001 65.3881 65.9828 65.1538 65.7485C64.6849 65.2799 64.6849 64.5203 65.1538 64.0517ZM54.3538 74.8517L56.5054 72.7001L54.3538 70.5485C53.8852 70.0799 53.8852 69.3203 54.3538 68.8517C54.8224 68.3831 55.582 68.3831 56.0506 68.8517L58.2022 71.0033L60.3538 68.8517C60.8224 68.3831 61.582 68.3831 62.0506 68.8517C62.5192 69.3203 62.5192 70.0799 62.0506 70.5485L59.899 72.7001L62.0506 74.8517C62.5192 75.3203 62.5192 76.0799 62.0506 76.5485C61.8163 76.7828 61.5091 76.9001 61.2022 76.9001C60.8953 76.9001 60.5881 76.7828 60.3538 76.5485L58.2022 74.3969L56.0506 76.5485C55.8163 76.7828 55.5091 76.9001 55.2022 76.9001C54.8953 76.9001 54.5881 76.7828 54.3538 76.5485C53.8849 76.0799 53.8849 75.3203 54.3538 74.8517ZM71.1538 76.5485L69.0022 74.3969L66.8506 76.5485C66.6163 76.7828 66.3091 76.9001 66.0022 76.9001C65.6953 76.9001 65.3881 76.7828 65.1538 76.5485C64.6852 76.0799 64.6852 75.3203 65.1538 74.8517L67.3054 72.7001L65.1538 70.5485C64.6852 70.0799 64.6852 69.3203 65.1538 68.8517C65.6224 68.3831 66.382 68.3831 66.8506 68.8517L69.0022 71.0033L71.1538 68.8517C71.6224 68.3831 72.382 68.3831 72.8506 68.8517C73.3192 69.3203 73.3192 70.0799 72.8506 70.5485L70.699 72.7001L72.8506 74.8517C73.3192 75.3203 73.3192 76.0799 72.8506 76.5485C72.6163 76.7828 72.3091 76.9001 72.0022 76.9001C71.6953 76.9001 71.3881 76.7828 71.1538 76.5485ZM75.9538 64.0517L78.1054 61.9001L75.9538 59.7485C75.4852 59.2799 75.4852 58.5203 75.9538 58.0517C76.4224 57.5831 77.182 57.5831 77.6506 58.0517L79.8022 60.2033L81.9538 58.0517C82.4224 57.5831 83.182 57.5831 83.6506 58.0517C84.1192 58.5203 84.1192 59.2799 83.6506 59.7485L81.499 61.9001L83.6506 64.0517C84.1192 64.5203 84.1192 65.2799 83.6506 65.7485C83.4163 65.9828 83.1091 66.1001 82.8022 66.1001C82.4953 66.1001 82.1881 65.9828 81.9538 65.7485L79.8022 63.5969L77.6506 65.7485C77.4163 65.9828 77.1091 66.1001 76.8022 66.1001C76.4953 66.1001 76.1881 65.9828 75.9538 65.7485C75.4849 65.2799 75.4849 64.5203 75.9538 64.0517ZM69.0022 85.9001C69.0022 86.5634 68.4649 87.1001 67.8022 87.1001H54.6022C53.9395 87.1001 53.4022 86.5634 53.4022 85.9001C53.4022 85.2368 53.9395 84.7001 54.6022 84.7001H67.8022C68.4649 84.7001 69.0022 85.2368 69.0022 85.9001ZM69.0022 91.9001C69.0022 92.5634 68.4649 93.1001 67.8022 93.1001H54.6022C53.9395 93.1001 53.4022 92.5634 53.4022 91.9001C53.4022 91.2368 53.9395 90.7001 54.6022 90.7001H67.8022C68.4649 90.7001 69.0022 91.2368 69.0022 91.9001ZM89.4022 95.3618C89.4022 96.0251 88.8649 96.5618 88.2022 96.5618H84.073C83.5399 96.5618 83.0401 96.2759 82.7686 95.8166C82.498 95.3573 82.4896 94.7819 82.7482 94.3142L85.8022 88.7852V87.6917C85.8022 87.3986 85.5643 87.1607 85.2712 87.1607C84.9781 87.1607 84.7402 87.3986 84.7402 87.6917V88.3001C84.7402 88.9634 84.2029 89.5001 83.5402 89.5001C82.8775 89.5001 82.3402 88.9634 82.3402 88.3001V87.692C82.3402 86.0759 83.6551 84.761 85.2712 84.761C86.8873 84.761 88.2022 86.0759 88.2022 87.692V89.0948C88.2022 89.2976 88.1506 89.498 88.0528 89.675L85.5742 94.1621H88.2022C88.8649 94.1618 89.4022 94.6985 89.4022 95.3618ZM94.2022 85.4384V95.3618C94.2022 96.0251 93.6649 96.5618 93.0022 96.5618C92.3395 96.5618 91.8022 96.0251 91.8022 95.3618V88.7372L91.5214 89.0711C91.0954 89.5796 90.3391 89.6429 89.8309 89.2199C89.323 88.7933 89.2567 88.0364 89.6827 87.5288L92.0827 84.6671C92.4067 84.2792 92.9377 84.1361 93.4123 84.3107C93.8863 84.4832 94.2022 84.9332 94.2022 85.4384Z" fill="#F5D955"/>
</svg>
