<svg width="140" height="140" viewBox="0 0 140 140" fill="none" xmlns="http://www.w3.org/2000/svg">
<circle cx="70" cy="70" r="69" stroke="#F5D955" stroke-width="2"/>
<path d="M50.3699 41.8285C52.6856 41.8285 54.5699 39.9442 54.5699 37.6285C54.5699 35.3128 52.6856 33.4285 50.3699 33.4285C48.0542 33.4285 46.1699 35.3128 46.1699 37.6285C46.1699 39.9442 48.0542 41.8285 50.3699 41.8285ZM50.3699 35.8285C51.3626 35.8285 52.1699 36.6358 52.1699 37.6285C52.1699 38.6212 51.3626 39.4285 50.3699 39.4285C49.3772 39.4285 48.5699 38.6212 48.5699 37.6285C48.5699 36.6358 49.3772 35.8285 50.3699 35.8285ZM38.3171 55.7842L39.6731 54.4282L38.3171 53.0722C37.8485 52.6036 37.8485 51.844 38.3171 51.3754C38.7857 50.9068 39.5453 50.9068 40.0139 51.3754L41.3699 52.7314L42.7259 51.3754C43.1945 50.9068 43.9541 50.9068 44.4227 51.3754C44.8913 51.844 44.8913 52.6036 44.4227 53.0722L43.0667 54.4282L44.4227 55.7842C44.8913 56.2528 44.8913 57.0124 44.4227 57.481C44.1884 57.7153 43.8812 57.8326 43.5743 57.8326C43.2674 57.8326 42.9602 57.7153 42.7259 57.481L41.3699 56.125L40.0139 57.481C39.7796 57.7153 39.4724 57.8326 39.1655 57.8326C38.8586 57.8326 38.5514 57.7153 38.3171 57.481C37.8485 57.0124 37.8485 56.2531 38.3171 55.7842ZM95.9171 40.1842L97.2731 38.8282L95.9171 37.4722C95.4485 37.0036 95.4485 36.244 95.9171 35.7754C96.3857 35.3068 97.1453 35.3068 97.6139 35.7754L98.9699 37.1314L100.326 35.7754C100.794 35.3068 101.554 35.3068 102.023 35.7754C102.491 36.244 102.491 37.0036 102.023 37.4722L100.667 38.8282L102.023 40.1842C102.491 40.6528 102.491 41.4124 102.023 41.881C101.788 42.1153 101.481 42.2326 101.174 42.2326C100.867 42.2326 100.56 42.1153 100.326 41.881L98.9699 40.525L97.6139 41.881C97.3796 42.1153 97.0724 42.2326 96.7655 42.2326C96.4586 42.2326 96.1514 42.1153 95.9171 41.881C95.4485 41.4124 95.4485 40.6531 95.9171 40.1842ZM57.5006 58.6729L57.0482 52.4221C57.0002 51.7612 57.497 51.1864 58.1579 51.1384C58.8083 51.1027 59.393 51.5872 59.441 52.2487L59.5781 54.1417L60.8051 53.23C61.3382 52.8334 62.0882 52.9459 62.4845 53.4778C62.8793 54.0097 62.7692 54.7609 62.2373 55.1566L60.9818 56.0893L62.5937 57.4411C63.101 57.8671 63.1679 58.6234 62.7425 59.1316C62.5046 59.4145 62.1647 59.5606 61.8215 59.5606C61.5497 59.5606 61.2767 59.4685 61.0517 59.2798L59.8793 58.2964L59.894 58.4992C59.942 59.1601 59.4452 59.7349 58.7843 59.7829C58.7549 59.7847 58.7258 59.7859 58.6964 59.7859C58.0727 59.7862 57.5465 59.3047 57.5006 58.6729ZM45.1409 73.501C45.1409 73.5007 45.1409 73.5007 45.1409 73.501L44.4566 71.9815C43.853 70.642 42.2699 70.0408 40.928 70.6456L40.7465 70.7269C40.0973 71.0194 39.6005 71.5477 39.3485 72.214C39.0965 72.8803 39.1187 73.6045 39.4106 74.2537L39.4925 74.4358C39.9365 75.4219 40.9106 76.0072 41.9288 76.0072C42.2945 76.0072 42.6647 75.9316 43.0199 75.7723L43.445 75.5806L43.5953 75.9139C43.6784 76.099 43.5965 76.3171 43.4126 76.4002C43.2602 76.4671 43.1186 76.4194 43.0328 76.3522C42.5159 75.9391 41.7578 76.0246 41.3465 76.5433C40.934 77.0614 41.0195 77.8165 41.5376 78.2296C42.038 78.6286 42.6449 78.8344 43.259 78.8344C43.6433 78.8344 44.0312 78.7534 44.3969 78.5884C45.788 77.9626 46.4102 76.3207 45.7844 74.9293L45.1409 73.501ZM42.0344 73.5838C41.8985 73.6447 41.7413 73.5838 41.6816 73.4503L41.5997 73.2676C41.5622 73.1851 41.5751 73.1113 41.5928 73.0636C41.6114 73.0168 41.6501 72.9523 41.7335 72.9142L41.9141 72.8332C41.9504 72.8167 41.9867 72.8092 42.0242 72.8092C42.1262 72.8092 42.2234 72.8677 42.2678 72.9667L42.4601 73.3921L42.0344 73.5838ZM102.434 58.987L83.7257 54.9619L83.3606 49.9105C83.1707 47.2873 80.8997 45.3097 78.2582 45.4966L56.9384 47.0377C54.4868 47.2159 52.6376 49.354 52.8158 51.805L53.3588 59.3182L36.4259 66.9463C34.184 67.9552 33.1823 70.5997 34.1912 72.8407L48.119 103.758C48.6428 104.92 49.5875 105.809 50.7779 106.26C51.3287 106.468 51.9005 106.572 52.4714 106.572C53.1371 106.572 53.8028 106.43 54.4283 106.148L73.9178 97.3687C74.0795 97.2958 74.2124 97.1881 74.3222 97.0627L93.6686 101.225C93.9827 101.293 94.2968 101.325 94.6061 101.325C96.6617 101.325 98.5142 99.8935 98.963 97.8058L106.095 64.6546C106.648 62.0824 105.006 59.5402 102.434 58.987ZM57.1118 49.4314L78.4316 47.8903C79.7348 47.7802 80.8715 48.7804 80.9675 50.0836L81.284 54.4615C80.1986 54.2902 79.109 54.5044 78.182 55.1044C77.1812 55.75 76.4933 56.7475 76.2437 57.9106L74.5802 65.6422C74.1791 65.3356 73.73 65.0845 73.2368 64.9183C73.3094 64.5766 73.3376 64.2268 73.3211 63.8737C73.2659 62.686 72.7223 61.5979 71.7896 60.8086C70.8827 60.0403 69.7202 59.6542 68.4932 59.7058C65.9444 59.8252 63.9626 61.8883 64.0751 64.306C64.0916 64.6594 64.1537 65.005 64.2566 65.3377C62.6042 66.0718 61.4885 67.699 61.5743 69.529C61.6295 70.7167 62.1731 71.8054 63.1058 72.5947C63.9542 73.3132 65.0348 73.702 66.1691 73.702C66.2465 73.702 66.3251 73.7002 66.4022 73.6966C66.9731 73.6696 67.5179 73.5349 68.0252 73.3237L68.1446 75.8674C68.1752 76.5103 68.7059 77.011 69.3422 77.011C69.3608 77.011 69.3809 77.0104 69.3995 77.0098C70.0616 76.9786 70.5725 76.4167 70.5422 75.7546L70.4264 73.2892C70.8935 73.4125 71.3837 73.4656 71.8805 73.4401C72.2489 73.4227 72.6002 73.3546 72.9404 73.261L69.998 86.9362L60.1889 87.6457C58.9022 87.7354 57.7478 86.7556 57.653 85.4521L55.2086 51.6307C55.1264 50.5003 55.9808 49.5136 57.1118 49.4314ZM53.4413 103.96C52.8635 104.22 52.2191 104.239 51.6284 104.015C51.0365 103.791 50.5679 103.349 50.3078 102.772L36.38 71.8549C35.9135 70.8208 36.3764 69.5995 37.4114 69.1339L53.543 61.8673L54.5558 75.8824C53.2169 75.2761 52.2068 74.8591 52.1498 74.8354C51.845 74.7094 51.5006 74.716 51.1994 74.8513C50.8994 74.9866 50.6675 75.2404 50.5595 75.5521C49.4006 78.8896 47.5772 84.7549 48.3776 86.5309C49.0961 88.1245 50.7062 89.0587 52.4216 89.0587C53.0801 89.0587 53.7539 88.921 54.3998 88.6303C54.9632 88.3762 55.4504 88.0168 55.8635 87.592C56.6861 89.065 58.2479 90.0535 60.0155 90.0535C60.1304 90.0535 60.2465 90.0493 60.3623 90.0412L69.4721 89.3824L69.1103 91.0633C68.6912 93.0157 69.5411 94.9462 71.0978 96.007L53.4413 103.96ZM103.749 64.1491L96.617 97.3003C96.3791 98.41 95.2835 99.1138 94.1726 98.8789L73.277 94.3831C71.9996 94.1083 71.183 92.8444 71.4572 91.567L78.5903 58.4152C78.7064 57.8785 79.0238 57.4186 79.4843 57.1204C79.8218 56.9029 80.2049 56.7904 80.5964 56.7904C80.7416 56.7904 80.8883 56.8063 81.0335 56.8372L101.93 61.333C102.549 61.4665 103.079 61.8328 103.422 62.3647C103.766 62.8963 103.882 63.5305 103.749 64.1491ZM95.7077 96.8956C95.5595 97.5841 94.8812 98.0224 94.1927 97.8742C93.5042 97.726 93.0659 97.0477 93.2141 96.3592C93.3623 95.6707 94.0406 95.2324 94.7291 95.3806C95.4176 95.5285 95.8556 96.2068 95.7077 96.8956ZM81.2141 36.3592C81.3623 35.6707 82.0406 35.2324 82.7291 35.3806C83.4176 35.5288 83.8559 36.2071 83.7077 36.8956C83.5595 37.5841 82.8812 38.0224 82.1927 37.8742C81.5039 37.726 81.0659 37.0477 81.2141 36.3592ZM77.7077 102.896C77.5595 103.584 76.8812 104.022 76.1927 103.874C75.5042 103.726 75.0659 103.048 75.2141 102.359C75.3623 101.671 76.0406 101.232 76.7291 101.381C77.4176 101.528 77.8556 102.207 77.7077 102.896ZM103.129 50.9806C103.818 51.1288 104.256 51.8071 104.108 52.4956C103.959 53.1841 103.281 53.6224 102.593 53.4742C101.904 53.326 101.466 52.6477 101.614 51.9592C101.762 51.2707 102.441 50.8324 103.129 50.9806ZM89.5163 70.1707C89.3453 69.8884 89.0651 69.6892 88.7417 69.6199C88.4207 69.5509 88.082 69.6175 87.8102 69.8038C84.8981 71.8036 79.9505 75.4429 79.5416 77.3461C79.2908 78.5086 79.538 79.6999 80.2376 80.7019C80.9186 81.6763 81.9497 82.3543 83.1416 82.6102C83.7011 82.7308 84.2624 82.7401 84.8078 82.6654L84.2726 85.1545C84.1331 85.8025 84.5456 86.4406 85.1936 86.5801C85.2779 86.5984 85.3634 86.6071 85.4468 86.6071C86 86.6071 86.498 86.2222 86.6186 85.6597L87.1376 83.2456C87.5561 83.4829 88.0154 83.6593 88.5041 83.764C88.8476 83.8378 89.1932 83.8747 89.5364 83.8747C90.3824 83.8747 91.2098 83.6515 91.9364 83.2189C92.9852 82.5937 93.7013 81.6094 93.9509 80.4475C94.361 78.5437 91.3481 73.1914 89.5163 70.1707ZM79.6151 66.5437C79.0457 66.2056 78.8582 65.4691 79.1957 64.8997L82.484 59.3602C82.7441 58.9219 83.2493 58.6975 83.753 58.7959C84.2522 58.8967 84.6344 59.3017 84.7046 59.806L85.5731 66.0127C85.6646 66.6691 85.2074 67.276 84.5513 67.3675C84.4949 67.3756 84.4388 67.3792 84.3836 67.3792C83.7941 67.3792 83.2808 66.9457 83.1965 66.3457L82.8017 63.5269L81.2606 66.1243C80.9207 66.6943 80.186 66.8836 79.6151 66.5437Z" fill="#F5D955"/>
</svg>
