<svg width="40" height="40" viewBox="0 0 40 40" fill="none" xmlns="http://www.w3.org/2000/svg">
<circle cx="20" cy="20" r="20" fill="#E0F9DA"/>
<g clip-path="url(#clip0_303_314)">
<path d="M30 19.5837C29.9999 20.3238 29.7185 21.0361 29.2129 21.5764C28.7072 22.1168 28.015 22.4447 27.2766 22.4937C26.4345 24.2557 25.0534 25.704 23.3333 26.6287V29.1671C23.3333 29.3881 23.2455 29.6 23.0892 29.7563C22.9329 29.9126 22.721 30.0004 22.5 30.0004H17.5C17.2789 30.0004 17.067 29.9126 16.9107 29.7563C16.7544 29.6 16.6666 29.3881 16.6666 29.1671V26.6279C15.0608 25.7536 13.7453 24.4294 12.8816 22.8179C12.78 22.6216 12.7604 22.393 12.8273 22.1824C12.8942 21.9717 13.042 21.7962 13.2383 21.6946C13.4346 21.5929 13.6632 21.5734 13.8738 21.6402C14.0845 21.7071 14.26 21.855 14.3616 22.0512C15.3333 23.9312 17.5833 25.8337 20 25.8337C22.6075 25.8337 25.1766 23.5179 25.94 21.3537C26.0049 21.1671 26.1344 21.0099 26.3051 20.9105C26.4758 20.811 26.6764 20.7758 26.8708 20.8112C26.9409 20.8244 27.012 20.8319 27.0833 20.8337C27.3926 20.83 27.6896 20.7117 27.9168 20.5018C28.144 20.2918 28.2852 20.005 28.3132 19.6969C28.3412 19.3888 28.254 19.0813 28.0683 18.8338C27.8827 18.5863 27.6119 18.4164 27.3083 18.3571C27.1311 18.3249 26.9691 18.2363 26.8465 18.1044C26.7239 17.9725 26.6474 17.8044 26.6283 17.6254C26.5181 16.5713 26.1569 15.5589 25.5751 14.6731C24.9933 13.7872 24.2077 13.0536 23.2841 12.5337C23.0486 13.2716 22.7334 13.9816 22.3441 14.6512C21.2625 16.1847 19.8513 17.4566 18.2141 18.3737C18.4638 18.4348 18.6885 18.5714 18.8577 18.7649C19.0269 18.9584 19.1324 19.1993 19.1597 19.4548C19.1871 19.7104 19.135 19.9682 19.0106 20.193C18.8861 20.4179 18.6954 20.599 18.4643 20.7116C18.2333 20.8241 17.9732 20.8628 17.7194 20.8222C17.4656 20.7816 17.2305 20.6637 17.0461 20.4847C16.8617 20.3056 16.737 20.0741 16.6889 19.8216C16.6408 19.5692 16.6717 19.308 16.7775 19.0737C14.8615 19.8496 12.7898 20.1636 10.73 19.9904C10.5583 19.9674 10.398 19.8914 10.2715 19.7731C10.145 19.6548 10.0585 19.5 10.024 19.3302C9.98952 19.1605 10.0088 18.9842 10.0792 18.8259C10.1496 18.6676 10.2675 18.5352 10.4166 18.4471C10.9204 17.8755 11.2953 17.2022 11.5158 16.4729C12.6033 13.8954 14.25 10.0004 20 10.0004C21.9619 9.99604 23.8622 10.6858 25.3646 11.9477C26.867 13.2095 27.8746 14.9621 28.2091 16.8954C28.7393 17.1172 29.1921 17.4907 29.5107 17.969C29.8293 18.4473 29.9995 19.009 30 19.5837V19.5837ZM23.3333 19.5837C23.3333 19.3365 23.26 19.0948 23.1226 18.8893C22.9853 18.6837 22.7901 18.5235 22.5616 18.4289C22.3332 18.3343 22.0819 18.3095 21.8394 18.3577C21.597 18.406 21.3742 18.525 21.1994 18.6998C21.0246 18.8747 20.9055 19.0974 20.8573 19.3399C20.8091 19.5823 20.8338 19.8337 20.9284 20.0621C21.0231 20.2905 21.1833 20.4857 21.3888 20.6231C21.5944 20.7604 21.8361 20.8337 22.0833 20.8337C22.4148 20.8337 22.7328 20.702 22.9672 20.4676C23.2016 20.2332 23.3333 19.9152 23.3333 19.5837Z" fill="#009C37"/>
</g>
<defs>
<clipPath id="clip0_303_314">
<rect width="20" height="20" fill="white" transform="translate(10 10)"/>
</clipPath>
</defs>
</svg>
