<svg width="40" height="40" viewBox="0 0 40 40" fill="none" xmlns="http://www.w3.org/2000/svg">
<circle cx="20" cy="20" r="20" fill="#E0F9DA"/>
<g clip-path="url(#clip0_303_315)">
<path d="M22.5002 10H17.5002C16.3955 10.0013 15.3365 10.4407 14.5553 11.2218C13.7742 12.003 13.3348 13.062 13.3335 14.1667V23.3333H26.6668V14.1667C26.6655 13.062 26.2261 12.003 25.445 11.2218C24.6639 10.4407 23.6048 10.0013 22.5002 10V10Z" fill="#009C37"/>
<path d="M13.3335 25.8333C13.3348 26.938 13.7742 27.997 14.5553 28.7782C15.3365 29.5593 16.3955 29.9987 17.5002 30H22.5002C23.6048 29.9987 24.6639 29.5593 25.445 28.7782C26.2261 27.997 26.6655 26.938 26.6668 25.8333V25H13.3335V25.8333ZM20.0002 26.6667C20.165 26.6667 20.3261 26.7155 20.4631 26.8071C20.6002 26.8987 20.707 27.0288 20.7701 27.1811C20.8331 27.3334 20.8496 27.5009 20.8175 27.6626C20.7853 27.8242 20.706 27.9727 20.5894 28.0893C20.4729 28.2058 20.3244 28.2852 20.1627 28.3173C20.0011 28.3495 19.8335 28.333 19.6813 28.2699C19.529 28.2068 19.3988 28.1 19.3073 27.963C19.2157 27.8259 19.1668 27.6648 19.1668 27.5C19.1668 27.279 19.2546 27.067 19.4109 26.9107C19.5672 26.7545 19.7791 26.6667 20.0002 26.6667V26.6667Z" fill="#009C37"/>
</g>
<defs>
<clipPath id="clip0_303_315">
<rect width="20" height="20" fill="white" transform="translate(10 10)"/>
</clipPath>
</defs>
</svg>
