<svg width="40" height="40" viewBox="0 0 40 40" fill="none" xmlns="http://www.w3.org/2000/svg">
<circle cx="20" cy="20" r="20" fill="#E0F9DA"/>
<g clip-path="url(#clip0_303_316)">
<path d="M10.2424 17.1267C10.0628 16.7937 9.97962 16.4171 10.0021 16.0394C10.0247 15.6617 10.152 15.2977 10.3699 14.9884C10.7259 14.466 11.2027 14.0372 11.7599 13.7384L18.0107 10.485C18.6251 10.1656 19.3074 9.99878 19.9999 9.99878C20.6924 9.99878 21.3747 10.1656 21.989 10.485L28.239 13.7409C28.7962 14.0397 29.273 14.4685 29.629 14.9909C29.8469 15.3002 29.9743 15.6642 29.9968 16.0419C30.0193 16.4196 29.9361 16.7962 29.7565 17.1292C29.5632 17.4949 29.2733 17.8005 28.9183 18.0129C28.5633 18.2252 28.1569 18.3361 27.7432 18.3334H12.2565C11.8425 18.336 11.4357 18.2248 11.0805 18.012C10.7254 17.7992 10.4354 17.493 10.2424 17.1267V17.1267ZM29.1665 28.3334C29.1665 27.8914 28.991 27.4674 28.6784 27.1549C28.3658 26.8423 27.9419 26.6667 27.4999 26.6667V20H25.8332V26.6667H23.3332V20H21.6665V26.6667H18.3332V20H16.6665V26.6667H14.1665V20H12.4999V26.6667C12.0579 26.6667 11.6339 26.8423 11.3214 27.1549C11.0088 27.4674 10.8332 27.8914 10.8332 28.3334C10.6122 28.3334 10.4002 28.4212 10.244 28.5775C10.0877 28.7337 9.99988 28.9457 9.99988 29.1667C9.99988 29.3877 10.0877 29.5997 10.244 29.756C10.4002 29.9123 10.6122 30 10.8332 30H29.1665C29.3876 30 29.5995 29.9123 29.7558 29.756C29.9121 29.5997 29.9999 29.3877 29.9999 29.1667C29.9999 28.9457 29.9121 28.7337 29.7558 28.5775C29.5995 28.4212 29.3876 28.3334 29.1665 28.3334Z" fill="#009C37"/>
</g>
<defs>
<clipPath id="clip0_303_316">
<rect width="20" height="20" fill="white" transform="translate(10 10)"/>
</clipPath>
</defs>
</svg>
