<svg width="6" height="11" viewBox="0 0 6 11" fill="none" xmlns="http://www.w3.org/2000/svg">
<path d="M0.00087697 5.53998C0.00903756 5.80193 0.107669 6.05162 0.278202 6.24167L4.26213 10.6712C4.51216 10.947 4.88193 11.0604 5.23215 10.9688C5.58236 10.8771 5.85998 10.5944 5.96015 10.227C6.06047 9.85959 5.96831 9.4634 5.71828 9.18757L2.40864 5.5L5.71828 1.81243C5.96831 1.53662 6.06047 1.14041 5.96015 0.773013C5.85997 0.40561 5.58237 0.122951 5.23215 0.0311875C4.88194 -0.0604008 4.51218 0.052966 4.26213 0.328781L0.278202 4.75833C0.0895191 4.96836 -0.0105194 5.2503 0.00087697 5.53998Z" fill="#F5D955"/>
</svg>
