<svg width="9" height="5" viewBox="0 0 9 5" fill="none" xmlns="http://www.w3.org/2000/svg">
<path d="M4.53271 4.99927C4.74703 4.99247 4.95132 4.91028 5.10683 4.76816L8.731 1.44822C8.95667 1.23986 9.04941 0.931726 8.97449 0.639875C8.89943 0.348033 8.66815 0.116686 8.36754 0.0332096C8.06694 -0.0503926 7.74278 0.026409 7.51711 0.234765L4.5 2.9928L1.4829 0.234765C1.25723 0.0264078 0.933065 -0.0503926 0.632466 0.0332096C0.331863 0.116692 0.100597 0.348024 0.025517 0.639875C-0.0494189 0.931717 0.0433358 1.23985 0.269002 1.44822L3.89318 4.76816C4.06502 4.9254 4.2957 5.00877 4.53271 4.99927Z" fill="#778098"/>
</svg>
