<svg width="86" height="54" viewBox="0 0 86 54" fill="none" xmlns="http://www.w3.org/2000/svg">
<g clip-path="url(#clip0_207_3287)">
<path d="M40.2007 3.96973C41.1881 4.46147 42.0591 5.15836 42.7556 6.01379C43.452 6.86922 43.9578 7.86347 44.2391 8.93008C43.8424 7.87331 43.0687 7.00067 42.0671 6.48017C41.0655 5.95967 39.9068 5.82811 38.814 6.11083C40.7112 5.58508 41.1836 4.73168 40.2007 3.96973Z" fill="#DCC34F"/>
<path d="M2.91061 5.81363C1.08191 6.51463 0.952378 7.80234 2.74298 8.86146C1.13525 8.0995 0.114237 8.54144 0.114237 10.0196C0.0228024 9.692 -0.647734 6.75084 2.91061 5.79077V5.81363Z" fill="#B59E31"/>
<path d="M14.7669 12.2218C14.1811 12.3684 13.6302 12.6296 13.1459 12.9904C12.6617 13.3511 12.2537 13.8042 11.9455 14.3235C11.6373 14.8428 11.4351 15.418 11.3504 16.0159C11.2658 16.6138 11.3005 17.2225 11.4524 17.8069C10.5838 15.0277 8.79034 12.6293 6.37012 11.0103C8.94805 12.3627 11.9118 12.7903 14.7669 12.2218Z" fill="#B59E31"/>
<path d="M22.4702 45.2755C21.3532 45.6278 20.157 45.6421 19.0318 45.3168C17.9066 44.9914 16.9026 44.3409 16.146 43.4468C17.5251 44.6583 18.1652 44.0335 17.6089 41.8467C17.8769 42.9042 18.5141 43.8311 19.4056 44.4599C20.2971 45.0887 21.3841 45.378 22.4702 45.2755Z" fill="#C8AF3C"/>
<path d="M40.2008 3.9697C41.1838 4.73166 40.7114 5.62315 38.8065 6.1108L14.7667 12.2598C11.9165 12.8248 8.95873 12.3972 6.38515 11.0483L3.13157 9.12816C3.0249 9.05958 2.91822 9.01387 2.81917 8.95291C2.72011 8.89195 2.81918 8.95291 2.78108 8.95291C0.990477 7.87855 1.12001 6.59084 2.94871 5.90508C3.16887 5.81444 3.39555 5.74057 3.62684 5.68411L24.1007 0.449451C27.0055 -0.152868 30.0179 0.023254 32.8327 0.959967L39.0046 3.36013C39.4333 3.51195 39.8366 3.72774 40.2008 4.00018V3.9697Z" fill="#C8AF3C"/>
<path style="mix-blend-mode:screen" d="M40.2008 3.9697C41.1838 4.73166 40.7114 5.62315 38.8065 6.1108L14.7667 12.2598C11.9165 12.8248 8.95873 12.3972 6.38515 11.0483L3.13157 9.12816C3.0249 9.05958 2.91822 9.01387 2.81917 8.95291C2.72011 8.89195 2.81918 8.95291 2.78108 8.95291C0.990477 7.87855 1.12001 6.59084 2.94871 5.90508C3.16887 5.81444 3.39555 5.74057 3.62684 5.68411L24.1007 0.449451C27.0055 -0.152868 30.0179 0.023254 32.8327 0.959967L39.0046 3.36013C39.4333 3.51195 39.8366 3.72774 40.2008 4.00018V3.9697Z" fill="url(#paint0_linear_207_3287)"/>
<g style="mix-blend-mode:screen">
<path d="M40.2007 3.96991C39.8365 3.69747 39.4332 3.48168 39.0045 3.32986L32.8326 0.929694C30.0178 -0.00701947 27.0054 -0.183142 24.1006 0.419177L3.62671 5.65383C3.39542 5.7103 3.16874 5.78416 2.94858 5.8748C1.47038 6.43865 1.12748 7.39872 1.98088 8.29783C12.7169 3.56607 25.5407 2.49933 35.5528 6.97202L38.8444 6.13387C40.7112 5.58526 41.1836 4.73187 40.2007 3.96991Z" fill="#302E2E"/>
</g>
<path d="M14.7669 12.2218C14.0996 12.5634 13.3726 12.773 12.6258 12.8389C11.8849 12.9114 11.1381 12.8961 10.4009 12.7932C9.66099 12.6857 8.93689 12.4887 8.24453 12.2065C7.54586 11.9374 6.90843 11.5306 6.37012 11.0103C9.10257 11.7618 11.9182 12.1687 14.7517 12.2218H14.7669Z" fill="#D1BB50"/>
<path style="mix-blend-mode:screen" d="M38.8064 6.07293C39.3337 5.95792 39.8334 5.74045 40.2769 5.43288C31.0186 4.08461 21.6766 3.39204 12.3207 3.36035L3.58864 5.59289C3.35735 5.64935 3.13064 5.72322 2.91049 5.81386C2.08757 6.12626 1.63041 6.57582 1.51611 7.04061C9.27484 7.44174 17.0009 8.32734 24.6492 9.69223L38.8064 6.07293Z" fill="url(#paint1_linear_207_3287)"/>
<path d="M44.3764 9.37968L50.5254 33.4195C50.6786 34.0039 50.7144 34.6129 50.6308 35.2112C50.5472 35.8096 50.3458 36.3855 50.0383 36.9055C49.7308 37.4256 49.3233 37.8795 48.8393 38.2412C48.3553 38.6028 47.8044 38.8648 47.2185 39.0122L23.1787 45.1612C22.9524 45.2234 22.7198 45.2592 22.4853 45.2679C21.3992 45.3704 20.3122 45.0811 19.4207 44.4523C18.5292 43.8235 17.8919 42.8967 17.624 41.8391L11.4674 17.7993C11.3155 17.2149 11.2808 16.6062 11.3654 16.0083C11.4501 15.4104 11.6523 14.8352 11.9605 14.3159C12.2687 13.7966 12.6767 13.3435 13.161 12.9828C13.6452 12.622 14.1961 12.3608 14.7819 12.2142L38.8217 6.06516C39.9145 5.78244 41.0733 5.914 42.0749 6.4345C43.0765 6.955 43.8501 7.82764 44.2468 8.8844C44.3061 9.04486 44.3495 9.21075 44.3764 9.37968Z" fill="#C8AF3C"/>
<path style="mix-blend-mode:screen" d="M44.3764 9.37968L50.5254 33.4195C50.6786 34.0039 50.7144 34.6129 50.6308 35.2112C50.5472 35.8096 50.3458 36.3855 50.0383 36.9055C49.7308 37.4256 49.3233 37.8795 48.8393 38.2412C48.3553 38.6028 47.8044 38.8648 47.2185 39.0122L23.1787 45.1612C22.9524 45.2234 22.7198 45.2592 22.4853 45.2679C21.3992 45.3704 20.3122 45.0811 19.4207 44.4523C18.5292 43.8235 17.8919 42.8967 17.624 41.8391L11.4674 17.7993C11.3155 17.2149 11.2808 16.6062 11.3654 16.0083C11.4501 15.4104 11.6523 14.8352 11.9605 14.3159C12.2687 13.7966 12.6767 13.3435 13.161 12.9828C13.6452 12.622 14.1961 12.3608 14.7819 12.2142L38.8217 6.06516C39.9145 5.78244 41.0733 5.914 42.0749 6.4345C43.0765 6.955 43.8501 7.82764 44.2468 8.8844C44.3061 9.04486 44.3495 9.21075 44.3764 9.37968Z" fill="url(#paint2_linear_207_3287)"/>
<path d="M11.452 17.8069C11.2129 17.0155 11.1893 16.1746 11.3835 15.3709C11.5777 14.5673 11.9827 13.83 12.5568 13.2351C13.1554 12.6224 13.9083 12.1828 14.7361 11.9627L17.0676 11.2998C20.1688 10.4159 23.2928 9.60821 26.4169 8.79292C29.5409 7.97762 32.6802 7.21566 35.8271 6.50704L38.1891 5.96605C38.9956 5.71883 39.8484 5.66146 40.6807 5.79842C41.4998 5.9521 42.2622 6.32423 42.8872 6.87548C43.5122 7.42672 43.9767 8.1366 44.2315 8.93007C43.9121 8.20714 43.4108 7.57935 42.7765 7.10794C42.1422 6.63653 41.3965 6.33762 40.6122 6.24036C39.8381 6.15754 39.0553 6.25669 38.3263 6.5299L35.9947 7.19281C32.8859 8.06906 29.7619 8.88435 26.6378 9.69202C23.5138 10.4997 20.3822 11.2693 17.2353 11.9779L14.8732 12.5189C14.1242 12.6842 13.4311 13.0413 12.8616 13.5552C12.2816 14.0834 11.8473 14.7519 11.6004 15.4966C11.3536 16.2412 11.3025 17.0368 11.452 17.8069Z" fill="#C8AF3C"/>
<path style="mix-blend-mode:screen" d="M48.9865 27.3467C40.4665 20.6935 31.2056 15.048 21.3884 10.5227L14.767 12.2219C13.5975 12.5172 12.5921 13.2627 11.9698 14.296C11.3475 15.3293 11.1588 16.5666 11.4448 17.7385C24.3295 23.2703 36.2313 30.6917 47.5769 38.8828C48.6686 38.5134 49.5805 37.7454 50.1301 36.7324C50.6797 35.7193 50.8264 34.5361 50.5409 33.4195L48.9865 27.3467Z" fill="url(#paint3_linear_207_3287)"/>
<path style="mix-blend-mode:screen" d="M13.7764 26.8972L15.1022 32.0633C20.2835 35.7207 25.3505 39.5305 30.4404 43.3022L34.334 42.3116C27.819 36.7381 20.9523 31.5893 13.7764 26.8972Z" fill="url(#paint4_linear_207_3287)"/>
<path style="mix-blend-mode:multiply" opacity="0.5" d="M44.5363 9.9436C41.8466 10.797 39.2026 11.6656 36.5053 12.519C35.7452 12.7981 35.0747 13.2776 34.565 13.9067C34.0553 14.5358 33.7252 15.2912 33.6098 16.0926C32.8735 24.9164 32.7004 33.7782 33.0917 42.624L47.2337 39.0199C47.8196 38.8725 48.3705 38.6104 48.8545 38.2488C49.3385 37.8872 49.746 37.4333 50.0535 36.9132C50.361 36.3932 50.5624 35.8173 50.646 35.2189C50.7296 34.6206 50.6938 34.0116 50.5406 33.4272L44.5363 9.9436Z" fill="url(#paint5_linear_207_3287)"/>
<path d="M6.37002 11.0103C8.79024 12.6293 10.5837 15.0277 11.4523 17.8069L17.6089 41.8467C18.1651 44.0335 17.5251 44.6583 16.146 43.4468C15.9611 43.2868 15.7856 43.1164 15.6202 42.9363L8.76258 35.4844C6.80885 33.207 5.35747 30.5431 4.50324 27.6667L0.289608 11.2008C0.192044 10.8327 0.140841 10.4538 0.137207 10.073C0.137207 8.59484 1.15824 8.11481 2.76597 8.91487C2.76597 8.91487 2.76596 8.91487 2.80406 8.91487L3.13933 9.11298L6.37002 11.0103Z" fill="#C8AF3C"/>
<path style="mix-blend-mode:screen" d="M6.37002 11.0103C8.79024 12.6293 10.5837 15.0277 11.4523 17.8069L17.6089 41.8467C18.1651 44.0335 17.5251 44.6583 16.146 43.4468C15.9611 43.2868 15.7856 43.1164 15.6202 42.9363L8.76258 35.4844C6.80885 33.207 5.35747 30.5431 4.50324 27.6667L0.289608 11.2008C0.192044 10.8327 0.140841 10.4538 0.137207 10.073C0.137207 8.59484 1.15824 8.11481 2.76597 8.91487C2.76597 8.91487 2.76596 8.91487 2.80406 8.91487L3.13933 9.11298L6.37002 11.0103Z" fill="url(#paint6_linear_207_3287)"/>
<path d="M11.4521 17.8069C12.1532 19.7651 12.7475 21.7462 13.3342 23.7349C13.9209 25.7236 14.4466 27.7123 14.9724 29.7163C15.4981 31.7202 15.9782 33.7242 16.4125 35.751L17.0525 38.7988C17.2354 39.8199 17.4488 40.8333 17.6088 41.8467C17.2506 40.8714 16.9459 39.8808 16.6182 38.8979L15.7267 35.9263C15.1324 33.9452 14.6066 31.9412 14.0809 29.9449C13.5551 27.9485 13.0827 25.9294 12.6484 23.9026C12.2141 21.8757 11.7798 19.8566 11.4521 17.8069Z" fill="#C8AF3C"/>
<path d="M0.1142 10.0656C0.0595814 9.74922 0.0857961 9.42422 0.1904 9.12072C0.248482 8.94877 0.343314 8.79153 0.468321 8.65995C0.593328 8.52836 0.745495 8.42558 0.914247 8.35877C1.24281 8.23561 1.59978 8.20917 1.9429 8.28257C2.27047 8.34206 2.59008 8.43922 2.89534 8.57211H2.97154C2.97154 8.57211 2.87249 8.50353 2.88011 8.50353H2.94106H2.97917L3.0706 8.54925L3.25346 8.64069L3.60396 8.83118L4.3126 9.21215C4.78501 9.47122 5.25741 9.72267 5.7222 9.97412C6.187 10.2256 6.64418 10.477 7.13183 10.8275C7.58256 11.1583 8.00558 11.5252 8.39668 11.9247C9.16606 12.718 9.82707 13.6096 10.3625 14.5763C10.9026 15.518 11.2642 16.5513 11.4293 17.6242C11.0114 16.648 10.4794 15.7246 9.8444 14.8735C9.23434 14.0257 8.54275 13.2397 7.7795 12.5267C7.02547 11.8134 6.17991 11.2035 5.26505 10.7132C4.80787 10.4389 4.35831 10.1417 3.90113 9.85982L3.22298 9.42551L2.88772 9.20454L2.72008 9.09024L2.63628 9.03691H2.59819C2.5519 9.00818 2.5085 8.975 2.46865 8.93785L2.56771 9.01405C2.10619 8.70125 1.55473 8.54867 0.998074 8.57973C0.866462 8.60467 0.74151 8.65687 0.631279 8.73298C0.521049 8.80909 0.427983 8.90743 0.358032 9.02167C0.197048 9.34606 0.113575 9.70341 0.1142 10.0656Z" fill="#C8AF3C"/>
<path style="mix-blend-mode:screen" d="M15.0106 31.6975L14.3553 29.1145C12.5622 31.3293 10.8376 33.5999 9.18164 35.9264L10.6218 37.4503C12.0492 35.52 13.5121 33.6024 15.0106 31.6975Z" fill="url(#paint7_linear_207_3287)"/>
<path style="mix-blend-mode:screen" d="M6.88056 32.9243C8.77784 29.7469 10.797 26.6381 12.9762 23.636L11.4523 17.7918C10.6524 15.2649 9.0966 13.0442 6.99485 11.4294C5.2625 14.1974 3.78095 17.1146 2.56787 20.1463L4.488 27.6363C5.03296 29.5027 5.83842 31.2829 6.88056 32.9243Z" fill="url(#paint8_linear_207_3287)"/>
<path d="M19.1251 16.7478C19.2337 17.1854 19.2104 17.6454 19.0583 18.0698C18.9061 18.4943 18.6317 18.8642 18.2698 19.1332C17.9079 19.4021 17.4745 19.558 17.0242 19.5812C16.5739 19.6044 16.1268 19.4939 15.7391 19.2636C15.3514 19.0334 15.0405 18.6936 14.8455 18.287C14.6505 17.8805 14.58 17.4253 14.643 16.9788C14.7061 16.5324 14.8997 16.1145 15.1997 15.7778C15.4996 15.4411 15.8924 15.2007 16.3287 15.0867C16.6214 15.0102 16.9264 14.9926 17.226 15.0349C17.5256 15.0772 17.8138 15.1785 18.0739 15.333C18.334 15.4875 18.5609 15.6922 18.7413 15.935C18.9218 16.1779 19.0522 16.4541 19.1251 16.7478Z" fill="#38632E"/>
<path d="M9.21977 24.497C9.79886 26.8819 8.78547 27.1638 8.00066 26.3485C7.55031 25.8255 7.22232 25.2086 7.04058 24.5427C6.83568 23.9146 6.8093 23.2419 6.96438 22.5997C7.3225 21.6244 8.56449 21.9216 9.21977 24.497Z" fill="#38632E"/>
<path d="M33.572 24.5426C33.6821 24.9801 33.6602 25.4404 33.5092 25.8655C33.3582 26.2906 33.0848 26.6616 32.7233 26.9316C32.3619 27.2016 31.9287 27.3586 31.4782 27.3829C31.0277 27.4072 30.5801 27.2976 30.1918 27.068C29.8034 26.8384 29.4917 26.499 29.2959 26.0925C29.1001 25.6861 29.0289 25.2308 29.0913 24.784C29.1538 24.3372 29.347 23.9189 29.6467 23.5817C29.9464 23.2445 30.3392 23.0035 30.7756 22.8892C31.0678 22.8126 31.3723 22.7946 31.6715 22.8364C31.9707 22.8782 32.2586 22.9789 32.5187 23.1327C32.7787 23.2864 33.0057 23.4902 33.1865 23.7322C33.3673 23.9742 33.4983 24.2496 33.572 24.5426Z" fill="#38632E"/>
<path d="M46.8301 33.1757C46.9387 33.6134 46.9155 34.0733 46.7633 34.4978C46.6111 34.9222 46.3368 35.2922 45.9749 35.5611C45.613 35.8301 45.1796 35.9859 44.7293 36.0091C44.279 36.0324 43.8318 35.9219 43.4442 35.6916C43.0565 35.4613 42.7456 35.1215 42.5506 34.715C42.3555 34.3084 42.2851 33.8533 42.3481 33.4068C42.4111 32.9603 42.6048 32.5425 42.9047 32.2058C43.2047 31.8691 43.5975 31.6286 44.0337 31.5147C44.3265 31.4382 44.6315 31.4206 44.9311 31.4629C45.2306 31.5052 45.5188 31.6065 45.779 31.761C46.0391 31.9155 46.2659 32.1201 46.4464 32.363C46.6268 32.6058 46.7573 32.8821 46.8301 33.1757Z" fill="#AB6A6A"/>
<path d="M14.8736 8.97594C14.965 9.57026 13.9821 10.2256 12.6639 10.4389C11.3457 10.6522 10.2104 10.3475 10.1113 9.75313C10.0123 9.1588 11.0028 8.50352 12.3134 8.28256C13.624 8.06159 14.7745 8.38161 14.8736 8.97594Z" fill="#38632E"/>
<path d="M36.3834 3.96983C36.4748 4.56416 35.4919 5.21944 34.1737 5.43279C32.8555 5.64614 31.7202 5.34135 31.6211 4.74702C31.5221 4.1527 32.505 3.48979 33.8232 3.27644C35.1414 3.06309 36.2843 3.35264 36.3834 3.96983Z" fill="#38632E"/>
<path d="M28.2306 1.34096C28.2916 1.72194 27.4687 2.1715 26.44 2.34675C25.4114 2.522 24.4894 2.34675 24.4285 1.96577C24.3675 1.58479 25.1904 1.13523 26.2115 0.967598C27.2325 0.799967 28.1697 0.959982 28.2306 1.34096Z" fill="#38632E"/>
<path d="M7.10125 6.68231C7.16982 7.06329 6.33931 7.51285 5.31066 7.68048C4.28202 7.84811 3.36004 7.68048 3.29908 7.2995C3.23812 6.91852 4.06104 6.47658 5.08969 6.30133C6.11833 6.12608 7.04029 6.30133 7.10125 6.68231Z" fill="#38632E"/>
<path d="M67.8144 50.2969C68.043 52.5828 69.5897 53.3904 71.3575 52.2322C69.0716 54.0152 67.3039 54.4724 64.0503 53.5047C66.3743 54.16 68.0582 52.7351 67.8144 50.2969Z" fill="#38632E"/>
<path d="M80.295 10.3855C83.5029 11.2084 83.6933 13.1819 83.8686 14.8963C83.6247 12.4656 81.6437 11.2999 79.4492 12.2828C81.1789 11.498 81.4532 10.7512 80.295 10.3855Z" fill="#38632E"/>
<path d="M40.3532 15.7496C39.8626 15.6596 39.3579 15.6815 38.8769 15.8138C38.3958 15.946 37.9509 16.1851 37.5751 16.5132C37.1994 16.8414 36.9026 17.2501 36.7068 17.7089C36.511 18.1677 36.4213 18.6649 36.4444 19.1632C35.972 15.7191 37.8464 14.2485 40.2542 13.9209C37.8997 14.6371 37.9607 15.4524 40.3532 15.7496Z" fill="#FF9191"/>
<path d="M68.6831 17.0984C67.5545 17.673 66.6181 18.5645 65.9887 19.6635C65.3594 20.7625 65.0644 22.0213 65.14 23.2855C64.9788 22.0577 64.4288 20.9138 63.5704 20.0212C62.7121 19.1287 61.5906 18.5343 60.3701 18.3251C63.1989 18.5699 66.0456 18.1498 68.6831 17.0984Z" fill="#FF9696"/>
<path d="M71.3576 52.2322C69.5899 53.3904 68.0431 52.5827 67.8145 50.2968L65.14 23.2854C65.0644 22.0212 65.3594 20.7624 65.9888 19.6634C66.6181 18.5644 67.5545 17.6729 68.6831 17.0983L79.4267 12.2827C81.6212 11.2998 83.6023 12.4656 83.8461 14.8962L85.9415 36.0406C86.0003 37.3759 85.7608 38.7076 85.2401 39.9387C84.7195 41.1698 83.9309 42.2693 82.9318 43.1573L71.7005 51.9731C71.5946 52.0701 71.4798 52.1568 71.3576 52.2322Z" fill="#38632E"/>
<path style="mix-blend-mode:screen" d="M71.3576 52.2322C69.5899 53.3904 68.0431 52.5827 67.8145 50.2968L65.14 23.2854C65.0644 22.0212 65.3594 20.7624 65.9888 19.6634C66.6181 18.5644 67.5545 17.6729 68.6831 17.0983L79.4267 12.2827C81.6212 11.2998 83.6023 12.4656 83.8461 14.8962L85.9415 36.0406C86.0003 37.3759 85.7608 38.7076 85.2401 39.9387C84.7195 41.1698 83.9309 42.2693 82.9318 43.1573L71.7005 51.9731C71.5946 52.0701 71.4798 52.1568 71.3576 52.2322Z" fill="url(#paint9_linear_207_3287)"/>
<path style="mix-blend-mode:screen" d="M68.6679 17.106C67.5434 17.6822 66.611 18.5734 65.9845 19.6708C65.358 20.7681 65.0646 22.0241 65.14 23.2854L65.3839 25.7694C72.5715 28.4 79.4662 31.7707 85.9567 35.8273L84.8214 24.5427C79.5334 21.8758 74.093 19.4604 68.6679 17.106Z" fill="url(#paint10_linear_207_3287)"/>
<path style="mix-blend-mode:screen" d="M67.2351 44.7727C69.9553 46.1366 72.6298 47.6225 75.1976 49.2226L81.7504 44.0793C76.7063 41.2982 71.5859 38.6771 66.397 36.3074L67.2351 44.7727Z" fill="url(#paint11_linear_207_3287)"/>
<path d="M80.295 10.3855C81.4531 10.7513 81.1788 11.498 79.4492 12.2828L68.6827 17.0984C66.0476 18.1486 63.2036 18.5687 60.3774 18.3251L40.3607 15.7497C37.9682 15.4526 37.9072 14.622 40.2007 13.9287L53.3902 9.89028C56.161 9.1345 59.0318 8.81067 61.9013 8.93021L79.0911 10.1798L79.6244 10.2408C79.7464 10.2408 79.8606 10.2789 79.9749 10.3094L80.295 10.3855Z" fill="#38632E"/>
<path style="mix-blend-mode:screen" d="M80.295 10.3855C81.4531 10.7513 81.1788 11.498 79.4492 12.2828L68.6827 17.0984C66.0476 18.1486 63.2036 18.5687 60.3774 18.3251L40.3607 15.7497C37.9682 15.4526 37.9072 14.622 40.2007 13.9287L53.3902 9.89028C56.161 9.1345 59.0318 8.81067 61.9013 8.93021L79.0911 10.1798L79.6244 10.2408C79.7464 10.2408 79.8606 10.2789 79.9749 10.3094L80.295 10.3855Z" fill="url(#paint12_linear_207_3287)"/>
<g style="mix-blend-mode:screen">
<path d="M80.295 10.3855L79.9673 10.3094C79.853 10.3094 79.7387 10.2636 79.6168 10.2408L79.0834 10.1798L61.9013 8.93021C59.0318 8.81067 56.161 9.1345 53.3902 9.89028L40.2007 13.9287C37.9148 14.622 37.9682 15.4526 40.3607 15.7497L41.8846 15.9478C52.3997 12.0466 64.972 10.8503 74.7936 14.363L79.4492 12.2828C81.1788 11.498 81.4531 10.7513 80.295 10.3855Z" fill="#302E2E"/>
</g>
<path style="mix-blend-mode:screen" d="M80.2953 10.3854L79.9677 10.3092C79.8534 10.3092 79.7391 10.2635 79.6172 10.2406L79.0838 10.1797L68.203 9.41772C58.3183 10.5883 48.554 12.6151 39.02 15.4753C39.4496 15.6337 39.8977 15.7361 40.3534 15.7801L51.2342 17.144C60.6187 14.8816 70.1367 13.2147 79.7315 12.1532C81.1944 11.4217 81.3925 10.7359 80.2953 10.3854Z" fill="url(#paint13_linear_207_3287)"/>
<path d="M65.1399 23.2855L67.8144 50.2969C68.0582 52.7275 66.3743 54.16 64.0503 53.5047L43.3251 47.6376C42.1114 47.2258 41.0354 46.486 40.2163 45.5002C39.3973 44.5144 38.8672 43.3211 38.6847 42.0525L36.4598 19.5976C36.4522 19.4529 36.4522 19.3079 36.4598 19.1633C36.4367 18.6649 36.5264 18.1678 36.7222 17.709C36.918 17.2501 37.2148 16.8414 37.5906 16.5133C37.9663 16.1852 38.4113 15.9461 38.8923 15.8138C39.3733 15.6816 39.878 15.6597 40.3687 15.7497L60.3777 18.3251C61.5968 18.5357 62.7166 19.1307 63.5734 20.0232C64.4303 20.9157 64.9792 22.0588 65.1399 23.2855Z" fill="#38632E"/>
<path style="mix-blend-mode:screen" d="M65.1399 23.2855L67.8144 50.2969C68.0582 52.7275 66.3743 54.16 64.0503 53.5047L43.3251 47.6376C42.1114 47.2258 41.0354 46.486 40.2163 45.5002C39.3973 44.5144 38.8672 43.3211 38.6847 42.0525L36.4598 19.5976C36.4522 19.4529 36.4522 19.3079 36.4598 19.1633C36.4367 18.6649 36.5264 18.1678 36.7222 17.709C36.918 17.2501 37.2148 16.8414 37.5906 16.5133C37.9663 16.1852 38.4113 15.9461 38.8923 15.8138C39.3733 15.6816 39.878 15.6597 40.3687 15.7497L60.3777 18.3251C61.5968 18.5357 62.7166 19.1307 63.5734 20.0232C64.4303 20.9157 64.9792 22.0588 65.1399 23.2855Z" fill="url(#paint14_linear_207_3287)"/>
<path style="mix-blend-mode:screen" d="M67.2885 44.9708L66.2599 34.6006C62.1961 39.9089 58.2568 45.3036 54.4419 50.7846L61.4748 52.7733C63.3949 50.1623 65.3328 47.5615 67.2885 44.9708Z" fill="url(#paint15_linear_207_3287)"/>
<path style="mix-blend-mode:screen" d="M43.3251 47.6376L46.9292 48.6586C52.3154 39.3818 58.278 30.4519 64.7819 21.9215C64.419 20.9925 63.8221 20.1731 63.0491 19.543C62.2761 18.9128 61.3532 18.4932 60.3701 18.3251L50.6628 17.0754C46.2739 22.8206 42.04 28.6928 37.9609 34.6919L38.6848 42.0524C38.8673 43.321 39.3974 44.5144 40.2164 45.5002C41.0355 46.486 42.1114 47.2258 43.3251 47.6376Z" fill="url(#paint16_linear_207_3287)"/>
<path d="M61.1394 24.0549C61.2842 25.5789 60.5298 26.8589 59.4555 26.958C58.3811 27.0571 57.3829 25.937 57.2382 24.4359C57.0934 22.9349 57.8401 21.6395 58.9221 21.5329C60.0041 21.4262 60.9794 22.5539 61.1394 24.0549Z" fill="#E8B3B3"/>
<path d="M58.9144 21.533C57.8324 21.6397 57.0781 22.9427 57.2305 24.4361C57.2569 24.8519 57.3663 25.2583 57.5521 25.6312C57.7379 26.0042 57.9964 26.3362 58.3125 26.6077C58.1142 25.7411 58.1827 24.8349 58.5091 24.008C58.8355 23.1811 59.4044 22.4724 60.1412 21.975C59.9781 21.8209 59.785 21.7021 59.5739 21.626C59.3628 21.55 59.1383 21.5183 58.9144 21.533Z" fill="#E8B3B3"/>
<path style="mix-blend-mode:screen" d="M58.3127 26.6076C58.631 26.8679 59.0383 26.9937 59.448 26.9581C60.5224 26.859 61.2767 25.5561 61.1319 24.055C61.0729 23.2623 60.7196 22.5203 60.1414 21.9749C59.4046 22.4723 58.8357 23.181 58.5093 24.0079C58.1829 24.8347 58.1143 25.741 58.3127 26.6076Z" fill="url(#paint17_linear_207_3287)"/>
<path d="M73.544 12.9532C72.1877 13.0904 71.0372 12.7627 70.9839 12.2294C70.9305 11.696 71.9896 11.1474 73.3535 11.0102C74.7174 10.8731 75.868 11.2007 75.9213 11.7341C75.9747 12.2675 74.9079 12.8161 73.544 12.9532Z" fill="white"/>
<path d="M45.832 15.1858C44.5671 15.3077 43.5004 15.0029 43.4547 14.5076C43.409 14.0124 44.3843 13.5095 45.6491 13.3799C46.914 13.2504 47.9807 13.5628 48.0264 14.0581C48.0721 14.5533 47.0892 15.0562 45.832 15.1858Z" fill="white"/>
<path d="M62.2901 35.7207C62.4349 37.2446 61.6805 38.5247 60.6061 38.6314C59.5318 38.738 58.5336 37.6103 58.3812 36.1093C58.2288 34.6082 58.9908 33.3053 60.0652 33.1986C61.1395 33.0919 62.1377 34.2272 62.2901 35.7207Z" fill="#E8B3B3"/>
<path style="mix-blend-mode:screen" d="M59.0669 37.8692C59.2361 38.1143 59.4646 38.3127 59.731 38.4459C59.9974 38.5791 60.2932 38.6429 60.5908 38.6312C61.6652 38.5245 62.4195 37.2216 62.2747 35.7205C62.2126 34.946 61.8714 34.2204 61.3147 33.6785C60.6414 34.1555 60.0879 34.7823 59.6979 35.5095C59.3078 36.2367 59.0918 37.0444 59.0669 37.8692Z" fill="url(#paint18_linear_207_3287)"/>
<path d="M60.065 33.1986C58.9906 33.3053 58.2363 34.6082 58.3811 36.1093C58.44 36.7487 58.6776 37.3587 59.0668 37.8694C59.0961 37.0413 59.318 36.2314 59.7148 35.504C60.1115 34.7766 60.6724 34.1516 61.3527 33.6786C61.1856 33.5101 60.984 33.3799 60.7616 33.297C60.5393 33.2141 60.3016 33.1806 60.065 33.1986Z" fill="#E8B3B3"/>
<path d="M63.4255 46.8071C63.5703 48.3311 62.8236 49.6111 61.7416 49.7178C60.6596 49.8245 59.6691 48.6968 59.5243 47.1957C59.3795 45.6947 60.1262 44.3917 61.2082 44.2851C62.2902 44.1784 63.235 45.3061 63.4255 46.8071Z" fill="#E8B3B3"/>
<path style="mix-blend-mode:screen" d="M60.0879 48.8415C60.2547 49.1182 60.4924 49.3453 60.7763 49.4994C61.0603 49.6535 61.3803 49.7288 61.7032 49.7177C62.7852 49.6111 63.532 48.3081 63.3872 46.8071C63.3284 46.2106 63.1186 45.6389 62.7776 45.146C62.5338 45.2374 62.2899 45.3365 62.0156 45.4584C61.3985 45.5498 60.0879 47.089 60.0879 48.8415Z" fill="url(#paint19_linear_207_3287)"/>
<path d="M61.1395 44.2849C60.0575 44.3916 59.3032 45.6945 59.4556 47.1956C59.5061 47.788 59.7139 48.3562 60.0575 48.8414C60.0575 47.0889 61.3681 45.5498 62.0005 45.4583C62.2596 45.3364 62.5034 45.2374 62.7625 45.1459C62.5932 44.8709 62.3534 44.646 62.0681 44.4947C61.7828 44.3433 61.4622 44.2709 61.1395 44.2849Z" fill="#E8B3B3"/>
<g style="mix-blend-mode:screen">
<path d="M73.3687 46.5022C73.003 47.9652 71.8448 48.9253 70.8009 48.651C69.7571 48.3767 69.2008 46.967 69.5666 45.5041C69.9323 44.0411 71.0905 43.0887 72.1344 43.363C73.1782 43.6373 73.7345 45.0469 73.3687 46.5022Z" fill="#635E5E"/>
</g>
<path style="mix-blend-mode:screen" d="M71.1594 43.4546C70.7555 43.6526 70.4021 43.9401 70.1262 44.2953C69.8502 44.6505 69.6589 45.064 69.5669 45.5042C69.2011 46.9672 69.7497 48.3692 70.8012 48.6511C71.0511 48.7157 71.3133 48.7157 71.5632 48.6511C72.7976 47.7368 73.1328 44.1937 71.1594 43.4546Z" fill="url(#paint20_linear_207_3287)"/>
<g style="mix-blend-mode:screen">
<path d="M81.903 16.5191C81.6135 17.6697 80.6991 18.4316 79.8686 18.2183C79.0381 18.005 78.5962 16.8849 78.8857 15.7267C79.1752 14.5685 80.0896 13.8142 80.9201 14.0275C81.7506 14.2409 82.1926 15.3991 81.903 16.5191Z" fill="#635E5E"/>
</g>
<path style="mix-blend-mode:screen" d="M80.4477 14.02C80.0595 14.1337 79.711 14.3538 79.4417 14.6555C79.1723 14.9572 78.9929 15.3283 78.9237 15.7268C78.6418 16.8697 79.0685 17.967 79.8838 18.2032C80.6534 17.8984 81.9944 15.6278 80.4477 14.02Z" fill="url(#paint21_linear_207_3287)"/>
<g style="mix-blend-mode:screen">
<path d="M78.4893 30.4174C78.1922 31.6061 77.2549 32.3985 76.3939 32.1699C75.5329 31.9413 75.0757 30.7908 75.3729 29.5945C75.6701 28.3982 76.6225 27.6134 77.4835 27.8344C78.3446 28.0553 78.7941 29.2135 78.4893 30.4174Z" fill="#635E5E"/>
</g>
<path style="mix-blend-mode:screen" d="M76.7216 27.8953C76.3792 28.0527 76.0786 28.2886 75.8443 28.5838C75.61 28.879 75.4485 29.2252 75.3729 29.5944C75.0757 30.7907 75.5329 31.9413 76.3939 32.1699C78.3217 30.8974 77.7731 27.9638 76.7216 27.8953Z" fill="url(#paint22_linear_207_3287)"/>
<path d="M42.708 21.0528C42.8451 22.432 42.1594 23.6206 41.1841 23.7197C40.2087 23.8187 39.2868 22.7825 39.1496 21.4338C39.0125 20.0851 39.7059 18.866 40.6736 18.7669C41.6412 18.6679 42.5708 19.6813 42.708 21.0528Z" fill="#E8B3B3"/>
<path style="mix-blend-mode:screen" d="M40.5665 23.636C40.7555 23.7096 40.9589 23.7383 41.1609 23.7198C42.1514 23.6208 42.8372 22.4321 42.6848 21.053C42.6612 20.6569 42.5531 20.2704 42.3678 19.9195C42.1825 19.5686 41.9243 19.2614 41.6104 19.0186C40.1856 20.0548 39.3779 22.0588 40.5665 23.636Z" fill="url(#paint23_linear_207_3287)"/>
<path d="M39.134 21.411C39.1482 21.878 39.2899 22.3321 39.5437 22.7243C39.7976 23.1165 40.1539 23.4318 40.5741 23.6359C39.3778 22.0587 40.1855 20.0547 41.6332 19.0185C41.358 18.8116 41.0161 18.7139 40.6732 18.7442C39.6902 18.8432 38.9969 20.0319 39.134 21.411Z" fill="#E8B3B3"/>
<path d="M43.7744 31.7508C43.9039 33.13 43.2181 34.3186 42.2505 34.4177C41.2828 34.5167 40.3532 33.4805 40.216 32.1318C40.0789 30.7831 40.7723 29.564 41.74 29.4649C42.7076 29.3659 43.6144 30.3793 43.7744 31.7508Z" fill="#E8B3B3"/>
<path style="mix-blend-mode:screen" d="M41.801 34.3872C41.9423 34.4099 42.0864 34.4099 42.2277 34.3872C43.2182 34.2882 43.904 33.0995 43.7516 31.7204C43.7267 31.3172 43.6143 30.9244 43.4221 30.5691C43.23 30.2138 42.9628 29.9047 42.6391 29.6631C42.0053 30.2526 41.5807 31.0326 41.4294 31.8849C41.2782 32.7372 41.4086 33.6156 41.801 34.3872Z" fill="url(#paint24_linear_207_3287)"/>
<path d="M40.1931 32.109C40.1987 32.6078 40.3554 33.0933 40.6424 33.5013C40.9294 33.9094 41.3332 34.2209 41.8008 34.3949C41.4186 33.6244 41.2959 32.7509 41.4511 31.9049C41.6063 31.0589 42.031 30.2859 42.6618 29.7012C42.3892 29.5149 42.0616 29.4263 41.7322 29.4498C40.7493 29.5412 40.0559 30.7298 40.1931 32.109Z" fill="#E8B3B3"/>
<path d="M44.7803 41.9154C44.9174 43.2869 44.224 44.4832 43.2563 44.5822C42.2887 44.6813 41.3591 43.645 41.2219 42.2963C41.0848 40.9477 41.7781 39.7285 42.7458 39.6295C43.7135 39.5304 44.6431 40.5438 44.7803 41.9154Z" fill="#E8B3B3"/>
<path style="mix-blend-mode:screen" d="M42.2506 44.2851C42.5312 44.5003 42.8807 44.6059 43.2335 44.5822C44.2241 44.4832 44.9175 43.2869 44.7574 41.9154C44.7138 41.2449 44.4454 40.6086 43.9955 40.1095C42.1592 39.8657 41.7248 42.5935 42.2506 44.2851Z" fill="url(#paint25_linear_207_3287)"/>
<path d="M68.6831 17.0984C68.1033 17.5416 67.4546 17.8866 66.763 18.1194C66.0846 18.3684 65.3824 18.5471 64.6676 18.6528C63.9509 18.7531 63.2267 18.7888 62.5036 18.7595C61.7733 18.7335 61.0524 18.5868 60.3701 18.3251C61.8102 18.127 63.1589 17.9518 64.5304 17.7461L66.5877 17.4337L68.6831 17.0984Z" fill="#FFA8A9"/>
<path d="M36.4443 19.1633C36.3798 18.4501 36.5368 17.7344 36.8939 17.1136C37.2724 16.4725 37.8544 15.9763 38.5473 15.704C39.2459 15.4573 39.995 15.3892 40.7265 15.5059L42.8067 15.7116C45.5878 15.9859 48.3613 16.3288 51.1273 16.6717C53.8932 17.0146 56.6667 17.4337 59.425 17.8451C60.1437 17.9247 60.8515 18.0831 61.5356 18.3175C62.2121 18.5997 62.8318 19.0025 63.3643 19.5062C64.4218 20.5022 65.0572 21.8657 65.1397 23.316C64.888 21.9533 64.1485 20.7289 63.0595 19.8719C62.5481 19.4429 61.9617 19.1122 61.3299 18.8966C60.6789 18.7152 60.0089 18.6103 59.3336 18.5842C56.5524 18.3099 53.7865 17.9594 51.013 17.6165C48.2394 17.2737 45.4811 16.8546 42.7228 16.4431L40.6503 16.1079C40.0037 15.9625 39.3313 15.9782 38.6921 16.1536C38.0511 16.3386 37.4904 16.7329 37.0996 17.2737C36.7116 17.8313 36.4849 18.4852 36.4443 19.1633Z" fill="#38632E"/>
<path d="M65.1396 23.2854C64.9892 22.1948 65.1203 21.0839 65.5204 20.0583C65.9205 19.0327 66.5763 18.1265 67.4255 17.4259C67.8606 17.0698 68.3459 16.7797 68.8656 16.5649L70.3057 15.8791L73.2087 14.5533C75.1517 13.6999 77.0947 12.8389 79.0682 12.0465C79.5805 11.7819 80.1488 11.6438 80.7254 11.6438C81.3021 11.6438 81.8704 11.7819 82.3827 12.0465C82.8454 12.3571 83.2216 12.7801 83.4762 13.2759C83.7307 13.7717 83.8553 14.3239 83.8381 14.881C83.7727 14.3715 83.5873 13.8848 83.2972 13.4609C83.0071 13.0371 82.6206 12.6881 82.1694 12.4427C81.7164 12.2525 81.2241 12.1747 80.7346 12.2158C80.245 12.257 79.7727 12.4158 79.3577 12.6789C77.4528 13.6237 75.5479 14.5 73.5821 15.3762L70.6638 16.6563L69.1932 17.2811C68.7206 17.4557 68.2704 17.6859 67.8522 17.9669C67.0284 18.5638 66.3574 19.3471 65.8939 20.2528C65.3862 21.182 65.1264 22.2265 65.1396 23.2854Z" fill="#38632E"/>
<path d="M65.1396 23.2854C65.5511 25.5179 65.8635 27.7581 66.1607 30.0059C66.4578 32.2536 66.7017 34.4938 66.9226 36.7416C67.1436 38.9894 67.3493 41.2524 67.4865 43.5078L67.6998 46.8985C67.6998 48.0338 67.7989 49.1844 67.8065 50.2968C67.5932 49.1844 67.4331 48.0643 67.2503 46.9442L66.7855 43.5763C66.4807 41.3362 66.2445 39.0884 66.0235 36.833C65.8026 34.5776 65.5968 32.3298 65.4597 30.0744C65.3225 27.819 65.1701 25.556 65.1396 23.2854Z" fill="#38632E"/>
</g>
<defs>
<linearGradient id="paint0_linear_207_3287" x1="4.95621" y1="18.5306" x2="31.7564" y2="-2.4252" gradientUnits="userSpaceOnUse">
<stop stop-color="#AD9E80"/>
<stop offset="1"/>
</linearGradient>
<linearGradient id="paint1_linear_207_3287" x1="-12.5285" y1="1.22536" x2="24.0376" y2="6.7002" gradientUnits="userSpaceOnUse">
<stop stop-color="#AD9E80"/>
<stop offset="1"/>
</linearGradient>
<linearGradient id="paint2_linear_207_3287" x1="50.1217" y1="41.4276" x2="16.2898" y2="13.4191" gradientUnits="userSpaceOnUse">
<stop stop-color="#9E8A62"/>
<stop offset="1"/>
</linearGradient>
<linearGradient id="paint3_linear_207_3287" x1="69.189" y1="50.931" x2="22.7332" y2="17.026" gradientUnits="userSpaceOnUse">
<stop stop-color="#2B261B"/>
<stop offset="1"/>
</linearGradient>
<linearGradient id="paint4_linear_207_3287" x1="62.1001" y1="68.1347" x2="17.1763" y2="30.9169" gradientUnits="userSpaceOnUse">
<stop stop-color="#2B261B"/>
<stop offset="1"/>
</linearGradient>
<linearGradient id="paint5_linear_207_3287" x1="23.7885" y1="61.052" x2="47.0143" y2="16.2387" gradientUnits="userSpaceOnUse">
<stop stop-color="#FFDF9E"/>
<stop offset="1" stop-color="#A1A1A1"/>
</linearGradient>
<linearGradient id="paint6_linear_207_3287" x1="8.11005" y1="37.2593" x2="9.07504" y2="25.3506" gradientUnits="userSpaceOnUse">
<stop stop-color="#594418"/>
<stop offset="1"/>
</linearGradient>
<linearGradient id="paint7_linear_207_3287" x1="-5.64961" y1="61.0704" x2="16.6559" y2="26.8424" gradientUnits="userSpaceOnUse">
<stop stop-color="#9E8A62"/>
<stop offset="1"/>
</linearGradient>
<linearGradient id="paint8_linear_207_3287" x1="-13.295" y1="53.7278" x2="14.6899" y2="10.2268" gradientUnits="userSpaceOnUse">
<stop stop-color="#9E8A62"/>
<stop offset="1"/>
</linearGradient>
<linearGradient id="paint9_linear_207_3287" x1="87.6506" y1="52.8374" x2="71.8238" y2="25.6703" gradientUnits="userSpaceOnUse">
<stop stop-color="#9E8A62"/>
<stop offset="1"/>
</linearGradient>
<linearGradient id="paint10_linear_207_3287" x1="94.2325" y1="36.9557" x2="73.9367" y2="24.4288" gradientUnits="userSpaceOnUse">
<stop stop-color="#1F1B13"/>
<stop offset="1"/>
</linearGradient>
<linearGradient id="paint11_linear_207_3287" x1="85.4239" y1="50.1528" x2="71.8595" y2="43.1465" gradientUnits="userSpaceOnUse">
<stop stop-color="#1F1B13"/>
<stop offset="1"/>
</linearGradient>
<linearGradient id="paint12_linear_207_3287" x1="63.1269" y1="23.5029" x2="58.3915" y2="8.64108" gradientUnits="userSpaceOnUse">
<stop stop-color="#AD9E80"/>
<stop offset="1"/>
</linearGradient>
<linearGradient id="paint13_linear_207_3287" x1="39.6442" y1="21.0156" x2="64.6912" y2="11.8452" gradientUnits="userSpaceOnUse">
<stop stop-color="#AD9E80"/>
<stop offset="1"/>
</linearGradient>
<linearGradient id="paint14_linear_207_3287" x1="49.7509" y1="52.8179" x2="52.2812" y2="34.0415" gradientUnits="userSpaceOnUse">
<stop stop-color="#594418"/>
<stop offset="1"/>
</linearGradient>
<linearGradient id="paint15_linear_207_3287" x1="51.4217" y1="56.5467" x2="65.4086" y2="42.113" gradientUnits="userSpaceOnUse">
<stop stop-color="#9E8A62"/>
<stop offset="1"/>
</linearGradient>
<linearGradient id="paint16_linear_207_3287" x1="29.0972" y1="49.3536" x2="62.7439" y2="21.2025" gradientUnits="userSpaceOnUse">
<stop stop-color="#9E8A62"/>
<stop offset="1"/>
</linearGradient>
<linearGradient id="paint17_linear_207_3287" x1="59.8895" y1="27.158" x2="59.3115" y2="20.5891" gradientUnits="userSpaceOnUse">
<stop stop-color="white"/>
<stop offset="1"/>
</linearGradient>
<linearGradient id="paint18_linear_207_3287" x1="61.4722" y1="40.3719" x2="59.7367" y2="32.263" gradientUnits="userSpaceOnUse">
<stop stop-color="white"/>
<stop offset="1"/>
</linearGradient>
<linearGradient id="paint19_linear_207_3287" x1="61.69" y1="50.9982" x2="61.98" y2="39.2656" gradientUnits="userSpaceOnUse">
<stop stop-color="white"/>
<stop offset="1"/>
</linearGradient>
<linearGradient id="paint20_linear_207_3287" x1="69.6503" y1="52.7655" x2="71.4807" y2="44.1339" gradientUnits="userSpaceOnUse">
<stop stop-color="white"/>
<stop offset="1"/>
</linearGradient>
<linearGradient id="paint21_linear_207_3287" x1="78.0331" y1="23.4278" x2="80.8266" y2="12.9607" gradientUnits="userSpaceOnUse">
<stop stop-color="white"/>
<stop offset="1"/>
</linearGradient>
<linearGradient id="paint22_linear_207_3287" x1="74.6049" y1="36.2905" x2="77.4134" y2="26.9764" gradientUnits="userSpaceOnUse">
<stop stop-color="white"/>
<stop offset="1"/>
</linearGradient>
<linearGradient id="paint23_linear_207_3287" x1="41.7515" y1="24.203" x2="40.7292" y2="17.2295" gradientUnits="userSpaceOnUse">
<stop stop-color="white"/>
<stop offset="1"/>
</linearGradient>
<linearGradient id="paint24_linear_207_3287" x1="42.9672" y1="34.5444" x2="41.8927" y2="27.7402" gradientUnits="userSpaceOnUse">
<stop stop-color="white"/>
<stop offset="1"/>
</linearGradient>
<linearGradient id="paint25_linear_207_3287" x1="43.2405" y1="45.6015" x2="43.64" y2="39.3436" gradientUnits="userSpaceOnUse">
<stop stop-color="white"/>
<stop offset="1"/>
</linearGradient>
<clipPath id="clip0_207_3287">
<rect width="85.987" height="54" fill="white"/>
</clipPath>
</defs>
</svg>
