<svg width="40" height="40" viewBox="0 0 40 40" fill="none" xmlns="http://www.w3.org/2000/svg">
<circle cx="20" cy="20" r="20" fill="#E0F9DA"/>
<g clip-path="url(#clip0_303_312)">
<path d="M30.3359 13.4375C30.3359 12.425 29.5125 11.6016 28.5 11.6016C27.4875 11.6016 26.6641 12.425 26.6641 13.4375C26.6641 14.2451 27.1882 14.932 27.9141 15.177V18.4766H27.1328V22.7734H28.5C28.8234 22.7734 29.0859 22.5109 29.0859 22.1875V20.625V19.0625V15.177C29.8118 14.932 30.3359 14.2451 30.3359 13.4375Z" fill="#009C37"/>
<path d="M15.3359 19.0234H16.9766V22.2266H15.3359V19.0234Z" fill="#009C37"/>
<path d="M20.6484 19.0234H22.2891V22.2266H20.6484V19.0234Z" fill="#009C37"/>
<path d="M11.6646 16.2109C11.6645 16.224 11.6641 16.237 11.6641 16.25V25.0391H25.9609V16.25C25.9609 16.237 25.9605 16.224 25.9605 16.2109H11.6646ZM23.4609 22.8125C23.4609 23.1361 23.1986 23.3984 22.875 23.3984H20.0625H17.5625H14.75C14.4264 23.3984 14.1641 23.1361 14.1641 22.8125V18.4375C14.1641 18.1139 14.4264 17.8516 14.75 17.8516H17.5625H20.0625H22.875C23.1986 17.8516 23.4609 18.1139 23.4609 18.4375V22.8125Z" fill="#009C37"/>
<path d="M18.1484 19.0234H19.4766V22.2266H18.1484V19.0234Z" fill="#009C37"/>
<path d="M24.1305 11.8305C22.95 10.65 21.3805 10 19.7109 10H17.9141C14.8822 10 12.3478 12.1705 11.7822 15.0391H25.8443C25.6084 13.8311 25.0202 12.7202 24.1305 11.8305ZM19.4375 13.3984H18.1875C17.8639 13.3984 17.6016 13.1361 17.6016 12.8125C17.6016 12.4889 17.8639 12.2266 18.1875 12.2266H19.4375C19.7611 12.2266 20.0234 12.4889 20.0234 12.8125C20.0234 13.1361 19.7611 13.3984 19.4375 13.3984Z" fill="#009C37"/>
<path d="M11.6641 28.2422C11.6641 29.2113 12.4527 30 13.4219 30H24.2031C25.1723 30 25.9609 29.2113 25.9609 28.2422V26.2109H11.6641V28.2422ZM17.25 27.5391H20.375C20.6986 27.5391 20.9609 27.8014 20.9609 28.125C20.9609 28.4486 20.6986 28.7109 20.375 28.7109H17.25C16.9264 28.7109 16.6641 28.4486 16.6641 28.125C16.6641 27.8014 16.9264 27.5391 17.25 27.5391Z" fill="#009C37"/>
</g>
<defs>
<clipPath id="clip0_303_312">
<rect width="20" height="20" fill="white" transform="translate(11 10)"/>
</clipPath>
</defs>
</svg>
