<svg width="40" height="40" viewBox="0 0 40 40" fill="none" xmlns="http://www.w3.org/2000/svg">
<circle cx="20" cy="20" r="20" fill="#E0F9DA"/>
<g clip-path="url(#clip0_303_310)">
<path d="M28.9717 13.8049C28.6672 13.6781 28.3318 13.6448 28.0083 13.7092C27.6847 13.7736 27.3877 13.9328 27.155 14.1666L25 16.3216L21.1783 12.4999C20.8658 12.1875 20.4419 12.012 20 12.012C19.5581 12.012 19.1342 12.1875 18.8217 12.4999L15 16.3216L12.845 14.1666C12.6119 13.9336 12.315 13.7749 11.9917 13.7106C11.6685 13.6464 11.3334 13.6794 11.0289 13.8055C10.7244 13.9316 10.4641 14.1452 10.281 14.4192C10.0979 14.6932 10.0001 15.0154 10 15.3449V24.1666C10.0013 25.2713 10.4407 26.3303 11.2218 27.1114C12.003 27.8925 13.062 28.332 14.1667 28.3333H25.8333C26.938 28.332 27.997 27.8925 28.7782 27.1114C29.5593 26.3303 29.9987 25.2713 30 24.1666V15.3449C30.0001 15.0153 29.9024 14.6931 29.7194 14.419C29.5364 14.1449 29.2761 13.9312 28.9717 13.8049V13.8049Z" fill="#009C37"/>
</g>
<defs>
<clipPath id="clip0_303_310">
<rect width="20" height="20" fill="white" transform="translate(10 10)"/>
</clipPath>
</defs>
</svg>
