<svg width="40" height="40" viewBox="0 0 40 40" fill="none" xmlns="http://www.w3.org/2000/svg">
<circle cx="20" cy="20" r="20" fill="#E0F9DA"/>
<g clip-path="url(#clip0_303_311)">
<path d="M28.5 11.8025C28.0249 11.4061 27.4676 11.1205 26.8684 10.9665C26.2692 10.8124 25.6432 10.7937 25.0358 10.9117L23.5658 11.2717C22.7987 11.4123 22.1051 11.8174 21.6059 12.4165C21.1066 13.0157 20.8332 13.7709 20.8333 14.5508V27.44C20.2807 27.5208 19.7193 27.5208 19.1667 27.44V14.5508C19.1694 13.7781 18.9024 13.0287 18.4116 12.4318C17.9208 11.835 17.237 11.4282 16.4783 11.2817L14.9167 10.9017C14.316 10.7918 13.6984 10.8152 13.1078 10.9704C12.5172 11.1256 11.9679 11.4087 11.4988 11.7997C11.0297 12.1907 10.6523 12.6801 10.3933 13.2331C10.1343 13.7861 10 14.3893 10 15V23.9942C10 24.9698 10.3425 25.9146 10.9676 26.6636C11.5927 27.4127 12.4609 27.9187 13.4208 28.0933L18.6592 29.0458C19.5458 29.2069 20.4542 29.2069 21.3408 29.0458L26.5833 28.0933C27.5425 27.9178 28.4097 27.4115 29.034 26.6625C29.6583 25.9135 30.0001 24.9692 30 23.9942V15C30.0004 14.3895 29.8662 13.7865 29.6069 13.2338C29.3476 12.6812 28.9697 12.1925 28.5 11.8025V11.8025Z" fill="#009C37"/>
</g>
<defs>
<clipPath id="clip0_303_311">
<rect width="20" height="20" fill="white" transform="translate(10 10)"/>
</clipPath>
</defs>
</svg>
