<svg width="6" height="11" viewBox="0 0 6 11" fill="none" xmlns="http://www.w3.org/2000/svg">
<path d="M5.99912 5.46002C5.99096 5.19807 5.89233 4.94838 5.7218 4.75832L1.73787 0.328776C1.48784 0.0529613 1.11807 -0.0603924 0.767849 0.0311813C0.417639 0.122918 0.140022 0.405597 0.0398511 0.773008C-0.0604716 1.14041 0.0316904 1.5366 0.281718 1.81243L3.59136 5.5L0.281718 9.18757C0.0316893 9.46338 -0.0604712 9.85959 0.0398515 10.227C0.14003 10.5944 0.417628 10.877 0.76785 10.9688C1.11806 11.0604 1.48782 10.947 1.73787 10.6712L5.7218 6.24167C5.91048 6.03164 6.01052 5.7497 5.99912 5.46002Z" fill="#1D2C53"/>
</svg>
