<svg width="250" height="154" viewBox="0 0 250 154" fill="none" xmlns="http://www.w3.org/2000/svg">
<path d="M0.661946 70.517C0.661946 70.9719 0.208984 70.9719 0.208984 71.4269C0.435465 71.1994 0.888427 70.9719 1.34139 71.1994C1.56787 71.1994 1.79435 71.4269 2.02083 71.6544C1.79435 72.1093 1.56787 72.3368 1.11491 72.5643C1.11491 72.5643 1.34139 72.7917 1.56787 72.7917C1.79435 73.2467 1.79435 73.2467 1.34139 73.4742C1.34139 73.7016 1.34139 74.1566 1.34139 74.3841C1.79435 74.839 2.24731 74.839 2.70027 74.3841L2.92675 74.1566C3.37972 73.7016 3.6062 73.7016 4.05916 74.1566C4.28564 74.3841 4.51212 74.6115 4.96508 74.6115C4.7386 73.9291 4.28564 73.7016 3.6062 73.4742C4.05916 73.2467 4.28564 73.4742 4.51212 73.4742C4.7386 73.4742 5.19156 73.4742 5.41804 73.4742C6.09749 73.9291 5.87101 74.6115 6.55045 75.0665C6.77693 75.0665 7.22989 75.0665 7.45637 75.0665C7.68285 75.0665 7.90933 75.294 8.13581 75.5214C8.3623 75.5214 8.3623 75.294 8.58878 75.294C8.81526 75.5214 9.04174 75.7489 9.26822 75.9764C9.94766 76.4313 10.6271 76.8863 11.533 77.3412C11.986 77.5687 12.2125 77.5687 12.6654 77.7962C12.6654 78.0237 12.8919 78.0237 12.8919 78.2511C14.0243 78.2511 14.9302 78.9335 16.0626 79.3885C16.2891 79.616 16.7421 79.8434 16.9686 80.0709C17.195 80.2984 17.195 80.2984 16.7421 80.7533C16.5156 80.7533 16.0626 80.5259 15.8362 80.5259C15.6097 80.9808 15.6097 80.9808 15.8362 81.2083C16.2891 81.4358 16.7421 81.4358 16.9686 81.8907C16.9686 82.5731 16.2891 83.0281 16.9686 83.483C17.648 83.2556 17.4215 82.8006 17.648 82.3457C18.101 82.8006 17.8745 82.8006 18.101 83.2555C18.101 83.483 18.101 83.7105 18.3275 83.7105C19.0069 84.1655 19.0069 84.8479 18.5539 85.3028C18.5539 85.5303 18.3275 85.7578 18.3275 85.9852C18.7804 86.2127 19.0069 85.9852 19.2334 85.7578C19.6863 85.3028 19.9128 84.8479 20.3658 84.3929C20.8187 84.3929 21.0452 84.1655 21.2717 84.1655C21.4982 84.1655 21.4982 84.3929 21.7247 84.3929C21.7247 84.6204 21.4982 84.6204 21.7247 84.8479C22.1776 84.6204 22.6306 84.3929 22.8571 83.7105C22.8571 83.483 23.31 83.2555 23.763 83.2555C23.9895 83.7105 23.9895 84.1655 23.763 84.6204C23.5365 85.0753 23.9895 85.5303 24.216 85.7578C24.4424 85.5303 24.6689 85.5303 24.8954 85.3028C25.1219 85.5303 25.1219 85.9852 25.5748 85.9852C26.0278 85.9852 26.0278 86.4402 26.0278 86.6677C26.0278 86.8951 25.8013 87.1226 26.0278 87.3501C26.7072 87.1226 27.1602 86.8951 27.6132 86.6677H27.8396C27.8396 86.8951 27.6132 87.1226 27.6132 87.5776C28.2926 87.805 28.7456 88.26 29.425 88.0325L29.6515 88.26C29.6515 88.4875 29.6515 88.4875 29.6515 88.7149H29.878C30.5574 88.9424 31.2369 89.6248 31.9163 89.6248C32.8222 89.8523 33.2752 90.3073 33.9546 90.7622C34.1811 90.9897 34.4076 90.9897 34.6341 90.9897C35.54 91.4446 35.993 92.127 36.8989 92.3545C36.8989 92.3545 36.8989 92.582 37.1254 92.8095C36.6724 92.582 36.4459 92.8095 35.993 92.582C35.7665 92.3545 35.54 92.127 35.087 92.127C34.8606 92.3545 34.8606 92.582 34.6341 92.8095C35.087 92.8095 35.54 92.8095 35.7665 93.2644C35.7665 93.4919 35.993 93.4919 36.2194 93.4919L36.4459 93.7194L36.2194 93.4919C36.6724 93.0369 36.8989 93.0369 37.1254 93.7194C37.3518 93.7194 37.5783 93.7194 37.5783 93.9468C37.8048 94.4018 37.8048 94.4018 38.4842 94.8567C38.4842 94.6293 38.2578 94.1743 38.2578 93.9468C38.2578 93.4919 38.7107 93.4919 38.9372 93.4919C39.3902 93.7194 39.8431 93.7194 40.0696 93.9468C40.5226 94.4018 41.202 94.6293 41.8815 94.8567C42.3344 94.8567 42.5609 95.0842 42.7874 95.5392V95.7666L42.5609 95.9941C42.3344 95.9941 42.1079 95.9941 42.1079 95.9941C41.8815 95.7666 41.4285 95.7666 40.9755 95.5392C41.202 95.9941 41.202 96.2216 41.4285 96.2216C41.8815 96.4491 42.1079 96.6765 42.3344 96.6765C43.0139 96.2216 43.0139 96.2216 43.9198 96.4491C43.6933 96.6765 43.4668 96.904 43.4668 96.904C43.6933 97.3589 43.2403 97.359 43.0139 97.8139C43.2403 98.0414 43.4668 97.8139 43.6933 97.8139C44.3727 97.5864 44.3727 97.8139 44.8257 98.4963C45.0522 98.7238 45.2787 99.1787 45.7316 99.1787C46.6376 99.1787 47.0905 99.6337 47.5435 100.316C47.9964 100.089 47.9964 100.089 47.9964 100.316C47.9964 100.771 48.4494 100.771 48.6759 100.999C48.9024 101.226 48.9024 101.226 48.6759 101.453H48.4494C48.6759 101.681 48.9024 101.681 49.1288 101.908C49.5818 101.908 49.5818 101.453 50.0348 101.453C50.4877 101.681 50.4877 102.136 50.7142 102.591C50.7142 102.818 50.9407 102.818 51.1672 102.818C51.8466 103.728 52.979 103.956 53.8849 104.411C54.3379 104.638 54.5644 104.638 55.0173 104.866C55.2438 105.093 55.4703 105.093 55.9233 105.321C57.0557 105.775 58.1881 106.458 59.3205 106.913C59.9999 107.14 59.9999 107.14 60.4529 108.05C61.1323 108.05 61.8118 108.278 62.4912 108.505C62.9442 108.733 63.3971 108.733 63.8501 109.188C64.3031 109.643 64.756 109.87 65.4355 109.87C66.1149 109.87 66.5679 110.098 67.0208 110.552C67.2473 110.78 67.4738 110.78 67.7003 111.007C68.8327 111.69 69.9651 112.145 71.0975 112.827C71.324 112.827 71.5505 113.055 71.5505 113.055C72.2299 113.737 72.9093 114.192 73.8153 114.42C74.0417 114.647 74.4947 114.874 74.7212 115.102C75.6271 115.557 76.3065 116.467 77.439 116.694C77.6654 116.694 77.8919 116.922 77.8919 117.149C78.3449 117.604 78.5714 118.059 79.4773 118.059C79.7038 118.059 79.9302 118.287 80.1567 118.514C80.3832 118.742 80.8362 118.969 81.0626 118.969C81.5156 118.969 81.9686 119.196 82.1951 119.651C82.648 120.106 83.3275 120.561 83.7804 121.016C84.2334 121.016 84.4599 121.471 84.9128 121.699C85.3658 121.926 85.8187 122.154 86.2717 122.381C86.4982 122.381 86.7247 122.609 86.7247 122.836C87.4041 123.518 88.0836 123.746 88.763 124.428C89.4424 124.883 89.8954 125.111 90.5748 125.338C91.2543 125.566 91.7072 126.248 92.3867 126.248C92.3867 126.248 92.6132 126.248 92.6132 126.476C92.8396 127.158 93.2926 127.386 93.7456 127.613C94.1985 127.613 94.425 127.386 94.6515 127.386C94.878 127.613 95.1045 128.068 95.3309 128.295C95.7839 128.978 96.2369 129.66 97.1428 130.115C97.3693 130.115 97.5957 130.343 97.5957 130.343C98.0487 130.115 98.2752 130.343 98.5017 130.57C99.4076 131.025 100.087 131.48 100.993 131.935C101.672 132.162 102.125 132.39 102.805 132.845C102.805 132.845 102.805 132.617 102.805 132.39C103.484 132.39 103.937 132.845 104.39 133.3C105.07 133.982 105.749 134.437 106.655 134.892C106.881 134.892 106.881 134.892 107.334 134.892C107.108 134.665 107.108 134.437 106.881 134.21C107.108 134.21 107.108 134.21 107.334 133.982C107.108 133.755 106.655 133.527 106.655 133.3C106.881 133.3 107.108 133.3 107.334 133.527C107.787 133.755 108.467 134.21 108.92 134.437C109.373 134.665 109.599 134.892 110.052 135.12C110.732 135.347 111.411 135.347 112.317 135.575C112.543 135.575 112.543 135.802 112.543 135.802C112.091 135.802 112.091 136.257 112.091 136.485C112.091 136.939 112.091 137.167 111.638 137.394C111.411 137.394 110.958 137.394 110.732 137.394V137.622C110.052 137.849 109.826 137.849 109.826 137.167C109.826 136.712 109.373 136.485 108.92 136.257C108.693 136.485 108.467 136.485 108.24 136.712C108.014 136.712 107.787 136.712 107.334 136.712C107.561 136.939 107.561 137.167 107.787 137.394C108.24 137.622 108.693 138.077 108.92 138.304C109.146 138.532 109.373 138.532 109.599 138.759C110.279 138.987 110.732 139.669 111.411 139.897L111.638 140.124C111.638 140.579 112.091 140.579 112.317 140.807C113.223 141.716 114.582 141.489 115.488 142.171C115.488 142.171 115.488 142.171 115.714 142.171C115.941 141.944 116.167 142.171 116.394 142.171C116.62 142.399 116.847 142.399 117.073 142.626C117.526 143.081 118.206 143.309 118.885 143.309C119.111 143.309 119.338 143.309 119.564 143.309C119.791 143.309 120.017 143.309 120.017 143.536C120.017 143.536 120.017 143.764 120.017 143.991C119.791 143.991 119.338 143.764 119.111 144.219C119.338 144.446 119.564 144.674 119.564 144.901C119.791 144.901 119.791 144.446 120.244 144.674C120.244 145.129 120.47 145.583 120.697 145.811C121.15 146.038 121.376 146.493 122.056 146.038C122.509 146.038 122.735 146.038 123.188 145.811C123.415 146.266 123.641 146.493 123.868 146.948C123.641 147.176 123.641 147.403 123.641 147.631C124.32 148.313 124.547 148.996 125.453 149.451C125.906 149.678 126.132 150.36 126.812 150.588L127.038 150.815C127.038 151.725 127.718 152.408 128.397 152.863C128.85 152.408 129.077 152.863 129.53 153.09C129.53 153.318 129.756 153.545 129.756 154C129.756 154.455 130.209 154.228 130.435 154.682C130.435 154.91 130.662 155.137 130.662 155.365C130.662 155.365 130.662 155.365 130.888 155.137C131.341 154.227 131.568 153.09 131.794 152.863C132.021 152.18 133.153 151.953 133.833 152.18C133.833 152.18 133.833 151.953 134.059 151.953C134.286 151.725 134.512 151.27 134.739 151.27C135.192 150.815 135.871 150.815 136.55 150.815C137.003 149.678 137.456 148.996 139.042 148.313C140.174 147.858 141.307 148.313 142.439 148.086C142.665 147.631 143.118 147.176 143.571 146.721C144.251 146.038 145.157 145.811 146.063 145.583C146.289 145.583 146.289 145.583 146.516 145.583C146.289 145.356 145.836 145.356 145.61 145.356C145.383 145.356 145.383 145.129 145.157 145.129C146.516 143.991 147.874 142.854 149.233 141.944C148.78 141.944 148.554 141.944 148.327 141.944C147.874 141.944 147.422 141.944 147.422 142.626L147.195 142.854C146.969 143.081 146.742 143.309 146.516 143.081C146.289 143.081 146.289 142.854 146.063 142.626C146.516 141.944 147.195 141.489 147.874 141.261C148.101 141.261 148.101 141.034 148.327 140.807C148.327 140.579 148.327 140.352 148.327 140.352C148.554 140.352 148.78 140.352 148.78 140.352C149.007 140.352 149.007 140.124 149.007 139.897C149.233 139.897 149.686 139.897 149.46 140.352C149.46 140.807 149.686 140.807 150.139 140.807C150.366 140.579 150.366 140.124 150.366 139.669C150.366 138.987 150.366 138.987 150.592 138.532C151.045 138.759 150.819 139.214 151.272 139.669C151.498 139.897 151.272 140.579 151.951 140.807C151.951 140.352 151.951 140.124 152.178 139.669C152.631 139.669 153.084 139.897 153.537 139.897C154.669 139.442 155.348 138.532 155.348 137.394C155.348 136.712 155.348 136.257 155.801 135.575C155.801 135.347 155.801 135.12 155.801 134.892C155.801 134.665 155.575 134.437 155.575 133.982C156.254 133.755 156.481 133.527 156.254 133.072L156.481 132.845C156.481 132.617 156.707 132.617 156.707 132.39C156.707 132.162 157.16 132.163 156.934 131.708C156.481 131.935 156.254 132.162 156.028 132.617C156.254 132.617 156.481 132.617 156.481 132.845L156.254 133.072C156.028 133.072 156.028 132.845 156.028 132.617C155.575 132.617 155.348 132.617 155.348 132.162C155.348 131.708 155.348 131.253 155.801 130.798C156.254 130.343 156.481 129.888 157.16 129.888C157.84 129.66 158.066 129.433 157.84 128.75C157.84 128.523 157.84 128.523 157.84 128.295H158.066C158.066 128.523 158.293 128.75 158.519 128.523L158.746 128.295C158.746 128.068 158.746 127.84 158.746 127.84C158.746 127.84 158.746 127.84 158.972 127.84C159.199 128.068 158.972 128.523 159.425 128.523C159.878 128.068 160.104 127.613 160.331 126.931C160.331 126.703 160.557 126.703 160.784 126.703C161.01 126.703 161.01 126.931 161.01 127.158C161.69 127.386 162.369 127.386 162.822 126.703C163.275 126.248 163.728 125.793 164.181 125.111C164.408 125.111 164.861 124.883 165.314 124.883C165.766 124.883 165.766 124.428 165.993 124.201C166.219 123.973 165.766 123.746 165.766 123.518C165.993 123.518 166.446 123.291 166.672 123.291C166.672 122.836 166.446 122.381 167.125 122.154C167.578 122.381 168.031 122.609 168.484 121.926C168.711 121.699 168.937 121.699 168.937 121.471C169.164 121.016 169.39 120.789 169.843 120.789C171.202 118.287 171.655 118.287 172.108 118.287C172.561 118.287 173.014 118.287 173.467 118.059C173.693 117.832 173.92 118.059 174.373 118.059C174.599 118.059 174.826 118.287 174.826 118.059C174.826 117.604 174.373 117.149 174.826 116.694C175.279 116.467 175.505 116.467 175.958 116.239C176.411 116.012 176.864 115.784 177.543 116.012C177.77 116.012 178.223 116.012 178.676 116.012C178.902 116.012 179.129 115.784 179.129 115.557C178.223 114.874 178.223 114.874 179.129 114.192C179.355 114.42 179.808 114.42 180.035 114.647C180.261 114.42 180.488 114.42 180.714 114.192C180.941 113.965 181.167 113.965 181.394 113.965C182.526 113.737 183.658 113.282 184.338 112.372C184.338 112.145 184.564 112.145 184.791 112.145C185.017 111.917 185.47 111.917 185.697 111.69C185.923 111.462 186.15 111.007 186.15 110.78C186.376 110.78 186.829 110.78 187.056 110.552C187.509 110.325 188.188 110.098 188.415 109.643C189.094 108.733 190.226 108.05 191.359 108.05C191.585 108.05 192.038 108.05 192.265 107.823C193.85 107.14 195.435 106.913 196.568 105.548L196.794 105.321C197.7 105.093 198.38 104.411 199.059 103.956C199.739 103.501 200.418 103.046 201.324 103.046C201.55 102.818 201.55 102.591 202.003 102.363C203.136 102.136 204.268 101.681 205.401 101.226C205.627 101.226 205.627 101.226 205.854 101.226C205.854 101.226 205.854 101.453 206.08 101.453C205.854 101.681 205.627 101.908 205.401 102.136C205.854 102.136 206.307 101.908 206.533 101.681C206.986 101.453 207.439 101.226 207.892 101.453C209.024 101.681 210.383 101.453 211.289 102.136C211.969 102.136 212.422 101.681 212.648 101.453C212.874 101.226 212.874 100.999 213.101 100.999C214.007 100.316 215.139 99.6337 216.045 98.9513C216.272 98.7238 216.725 98.7238 216.725 98.2689C216.498 98.2689 216.498 98.0414 216.272 98.2689C215.819 98.4963 215.592 98.4963 215.139 98.7238C215.139 98.2689 215.592 98.0414 215.819 97.5864C215.366 97.5864 215.139 97.3589 215.139 96.904C215.139 96.904 215.139 96.904 215.139 96.6765C214.686 96.4491 215.366 95.9941 214.913 95.7666C214.913 95.7666 214.913 95.7666 214.913 95.5392C215.139 95.3117 215.139 95.3117 215.366 95.3117C216.272 95.3117 216.272 95.0842 216.725 94.4018C216.951 93.7194 217.178 93.0369 218.084 92.582C218.537 92.3545 218.989 91.6721 218.989 91.2171C218.989 90.5347 219.669 90.3073 219.895 89.8523C220.122 89.6248 220.575 89.6248 221.028 89.6248C221.028 89.8523 220.801 89.8523 221.254 90.0798C221.481 90.0798 221.707 89.8523 221.934 89.8523C222.16 89.8523 222.16 89.6248 222.16 89.3974C222.16 89.1699 222.16 88.9424 222.16 88.4875C221.934 88.7149 221.707 88.9424 221.481 88.9424C221.254 88.9424 221.254 88.9424 221.028 88.9424C221.028 88.4875 221.254 88.0325 221.481 88.0325C221.934 87.805 222.16 87.5776 222.16 87.1226C222.16 86.8951 222.613 86.6677 222.613 86.4402C222.84 86.2127 223.066 85.9852 223.519 85.7578C223.972 85.3028 224.199 85.0753 224.651 84.6204C225.104 84.1655 225.557 84.1655 226.237 84.1655C226.463 84.1655 226.69 84.1655 226.916 84.1655C227.596 84.3929 227.822 84.1655 228.275 83.7105C228.728 83.483 229.408 83.2556 229.861 83.0281C229.861 82.8006 230.087 82.3456 230.087 82.1182C230.314 81.6632 230.54 81.4358 230.993 81.4358C231.446 81.4358 231.672 81.6632 231.672 82.1182C231.672 82.1182 231.899 82.1182 232.125 82.1182C232.125 81.8907 232.352 81.8907 232.352 81.6632C232.578 81.6632 232.805 81.6632 233.031 81.6632C233.711 81.8907 234.39 82.3457 234.843 82.5731C235.296 82.8006 235.523 83.2556 235.749 83.483C236.202 82.5731 237.334 82.3457 238.014 81.6632C238.014 81.4358 237.787 81.2083 238.014 80.9808C238.467 80.9808 239.146 80.7533 239.826 80.9808C240.052 81.6632 239.146 81.6632 238.92 81.8907C239.146 82.5731 239.826 82.8006 240.279 82.8006C241.185 83.0281 241.864 83.2556 242.543 83.7105C242.996 83.938 243.449 84.1655 243.676 84.6204C243.676 84.8479 243.902 84.8479 244.129 84.6204C244.129 84.3929 243.902 84.1655 244.129 83.938C244.355 83.2556 243.902 83.0281 243.223 82.8006C242.996 82.8006 242.996 82.8006 242.996 83.0281L242.77 83.2555C242.543 83.0281 242.091 83.0281 241.864 82.8006C241.638 82.5731 241.185 82.5731 240.732 82.3457C240.958 82.1182 241.185 81.8907 241.411 81.6632C241.864 81.6632 242.091 81.6632 242.543 81.8907C242.091 81.4358 241.411 81.2083 240.958 81.2083C240.958 80.9808 240.732 80.7533 240.732 80.5259C240.052 80.2984 240.052 79.8434 239.599 79.3885C240.279 79.3885 240.279 79.3885 240.505 79.3885C240.958 79.616 241.411 79.8434 241.638 80.0709C241.864 80.2984 242.317 80.2984 242.77 80.2984C242.77 80.0709 242.77 79.8434 243.223 79.8434C243.902 80.2984 244.582 80.5259 245.261 80.9808C245.488 81.2083 245.488 81.2083 245.261 81.4358L245.488 81.6632C246.167 81.8907 246.847 81.4358 247.3 81.2083C247.3 81.2083 247.3 80.9808 247.3 80.7533C246.167 80.7533 245.714 79.8434 244.808 79.616C244.808 79.3885 244.808 78.9335 244.808 78.7061C245.261 78.7061 245.488 78.4786 245.714 78.2511C245.714 78.2511 245.941 78.2511 246.167 78.0236L246.394 78.2511C247.073 78.2511 247.526 78.4786 247.979 78.7061C248.432 78.9335 248.885 78.9335 249.111 79.161C249.111 79.161 249.338 79.161 249.338 78.9335C249.111 78.7061 248.885 78.4786 248.885 78.4786C248.885 78.0236 249.338 78.0236 249.338 77.5687C249.111 77.7962 248.658 78.0237 248.206 77.7962C247.979 77.7962 247.753 77.5687 247.526 77.3412C247.753 76.8863 247.979 76.6588 248.432 76.4313C248.206 76.2038 247.979 76.2038 247.753 76.2038C247.3 75.9764 247.526 75.7489 247.979 75.5214C247.979 75.294 247.979 74.839 247.979 74.6115C247.526 74.1566 247.073 74.1566 246.62 74.6115L246.394 74.839C245.941 75.294 245.714 75.294 245.261 75.0665C245.035 74.839 244.808 74.6115 244.355 74.6115C244.582 75.294 245.035 75.5214 245.714 75.7489C245.261 75.9764 245.035 75.7489 244.808 75.7489C244.582 75.7489 244.129 75.7489 243.902 75.7489C243.223 75.294 243.449 74.6115 242.77 74.1566C242.543 74.1566 242.091 74.1566 241.864 74.1566C241.638 74.1566 241.411 73.9291 241.185 73.7016C240.958 73.7016 240.958 73.9291 240.732 73.9291C240.505 73.7016 240.279 73.4742 240.052 73.2467C239.373 72.7917 238.693 72.3368 237.787 71.8818C237.334 71.6544 237.108 71.6544 236.655 71.4269C236.428 71.1994 236.428 71.1994 236.202 70.9719C235.07 70.9719 234.164 70.2895 233.031 69.8346C232.805 69.6071 232.352 69.3796 232.125 69.1521C231.899 68.9247 231.899 68.9247 232.352 68.4697C232.578 68.4697 233.031 68.6972 233.258 68.6972C233.484 68.2423 233.484 68.2422 233.031 68.0148C232.578 67.7873 232.125 67.7873 231.899 67.3324C231.899 66.6499 232.578 66.195 231.899 65.74C231.219 65.9675 231.446 66.4225 231.219 66.8774C230.766 66.4225 230.766 66.4225 230.766 65.9675C230.766 65.74 230.766 65.5126 230.54 65.5126C229.861 65.0576 229.861 64.3752 230.087 63.9202C230.087 63.6928 230.314 63.4653 230.314 63.2378C229.861 63.0103 229.634 63.2378 229.408 63.4653C228.955 63.9202 228.728 64.3752 228.275 64.8301C227.822 64.8301 227.596 65.0576 227.369 65.0576C227.143 65.0576 227.143 64.8301 226.916 64.8301C226.916 64.6027 227.143 64.6027 226.916 64.3752C226.463 64.6027 226.01 64.8301 225.784 65.5126C225.784 65.74 225.331 65.9675 224.878 65.9675C224.651 65.5126 224.651 65.0576 224.878 64.6027C225.104 64.1477 224.652 63.6928 224.425 63.4653C224.199 63.6928 223.972 63.6928 223.746 63.9202C223.519 63.6928 223.519 63.2378 223.066 63.2378C222.613 63.2378 222.613 62.7829 222.613 62.5554C222.613 62.3279 222.84 62.1005 222.613 61.873C222.16 62.1005 221.481 62.3279 221.028 62.5554H220.801C220.801 62.3279 221.028 62.1004 221.028 61.6455C220.348 61.418 219.895 60.9631 219.216 61.1906L218.989 60.9631C218.989 60.7356 218.989 60.7356 218.989 60.5081H218.763C218.084 60.2807 217.404 59.5982 216.498 59.5982C215.592 59.3708 215.139 58.9158 214.46 58.4609C215.139 59.3708 214.686 59.1433 214.46 59.1433C213.554 58.9158 213.101 58.0059 212.195 57.7784C212.195 57.7784 212.195 57.551 211.969 57.3235C212.422 57.551 212.648 57.3235 213.101 57.551C213.327 57.7784 213.554 58.0059 214.007 58.0059C214.233 57.7784 214.233 57.551 214.46 57.3235C214.007 57.3235 213.554 57.3235 213.327 56.8685C213.327 56.6411 213.101 56.6411 212.874 56.6411L212.648 56.4136L212.874 56.6411C212.422 57.096 212.195 57.096 211.969 56.4136C211.742 56.4136 211.516 56.4136 211.516 56.1861C211.289 55.7312 211.289 55.7312 210.61 55.2762C210.61 55.5037 210.836 55.9586 210.836 56.1861C210.836 56.6411 210.383 56.6411 210.157 56.6411C209.704 56.4136 209.251 56.4136 209.024 56.1861C208.571 55.7312 207.892 55.5037 207.212 55.5037C206.759 55.5037 206.533 55.2762 206.08 54.8213V54.5938L206.307 54.3663C206.533 54.3663 206.76 54.3663 206.76 54.3663C206.986 54.5938 207.439 54.5938 207.892 54.8213C207.665 54.3663 207.439 54.1389 207.439 54.1389C206.986 53.9114 206.76 53.6839 206.307 53.6839C205.627 54.1389 205.627 54.1389 204.721 54.1389C204.948 53.9114 205.174 53.6839 205.174 53.6839C204.948 53.229 205.401 53.229 205.401 52.774C205.174 52.5465 204.948 52.774 204.721 52.774C204.042 53.0015 204.042 52.774 203.589 52.0916C203.362 51.8641 203.136 51.4092 202.683 51.4092C201.777 51.4092 201.324 50.9542 200.645 50.4993C200.192 50.7267 200.192 50.7267 200.192 50.4993C200.192 50.0443 199.739 50.0443 199.512 49.8168C199.286 49.5894 199.286 49.5894 199.512 49.3619H199.739C199.512 49.1344 199.286 49.1344 199.059 48.9069C198.606 48.9069 198.606 49.3619 198.153 49.3619C197.7 49.1344 197.7 48.6795 197.474 48.2245C197.474 47.9971 197.247 47.9971 196.794 47.9971C196.115 47.0872 194.982 46.8597 194.077 46.4047C193.624 46.1773 193.397 46.1773 192.944 45.9498C192.718 45.7223 192.265 45.7223 192.038 45.4948C190.906 45.0399 189.773 44.3575 188.641 43.9025C187.962 43.675 187.962 43.675 187.282 42.7651C186.603 42.7651 185.923 42.7651 185.244 42.3102C184.791 42.0827 184.111 42.0827 183.885 41.6278C183.432 41.1728 182.979 40.9454 182.3 40.9454C181.62 40.9454 181.167 40.7179 180.714 40.2629C180.488 40.0355 180.261 40.0355 180.035 39.808C178.902 39.1256 177.77 38.6706 176.638 37.9882C176.411 37.9882 176.185 37.7607 176.185 37.7607C175.505 37.0783 174.826 36.8508 173.92 36.3959C173.693 36.1684 173.24 35.9409 173.014 35.7134C172.108 35.2585 171.428 34.3486 170.296 34.1211C170.07 34.1211 169.843 33.8937 169.843 33.6662C169.39 33.2112 168.937 32.7563 168.258 32.7563C168.031 32.7563 167.805 32.5288 167.578 32.5288C167.352 32.3013 166.899 32.0739 166.672 32.0739C166.219 32.0739 165.766 31.8464 165.54 31.3914C165.087 30.9365 164.408 30.4815 163.728 30.0266C163.275 30.0266 163.049 29.5716 162.596 29.3442C162.143 29.1167 161.69 28.8892 161.237 28.6617C161.01 28.6617 160.784 28.4343 160.557 28.2068C159.878 27.5244 159.199 27.2969 158.293 26.6145C157.613 26.1595 157.16 25.9321 156.481 25.7046C155.801 25.4771 155.348 24.7947 154.669 24.7947C154.669 24.7947 154.442 24.7947 154.442 24.5672C154.216 23.8848 153.763 23.6573 153.31 23.4298C152.857 23.6573 152.631 23.6573 152.404 23.6573C152.178 23.4298 151.951 22.9749 151.725 22.7474C151.272 22.065 150.592 21.3826 149.913 21.1551C149.686 21.1551 149.46 20.9276 149.46 20.9276C149.007 21.1551 148.78 20.9276 148.327 20.7001C148.554 20.4727 147.648 20.0177 146.742 19.5628C146.063 19.3353 145.61 19.1078 144.93 18.6529C144.93 18.6529 144.93 18.8804 144.93 19.1078C144.251 19.1078 143.798 18.6529 143.345 18.1979C142.665 17.5155 141.986 17.0606 141.08 16.6056C140.854 16.6056 140.854 16.6056 140.401 16.6056C140.627 16.8331 140.627 17.0606 140.854 17.288C140.627 17.288 140.627 17.288 140.401 17.5155C140.627 17.743 141.08 17.743 141.08 18.1979C140.854 18.1979 140.627 18.1979 140.401 17.9705C139.948 17.743 139.268 17.288 138.815 17.0606C138.362 16.8331 138.136 16.6056 137.456 16.3781C136.777 16.1507 136.097 16.1507 135.192 15.9232C134.965 15.9232 134.965 15.6957 134.965 15.6957C135.418 15.6957 135.418 15.2408 135.418 15.0133C135.418 14.5583 135.418 14.3309 135.871 14.1034C136.097 14.1034 136.55 14.1034 136.777 14.1034V13.8759C137.683 14.1034 137.683 14.1034 137.909 14.7858C137.909 15.2408 138.362 15.4682 138.815 15.6957C139.042 15.4682 139.268 15.4682 139.495 15.2408C139.721 15.2408 139.948 15.2408 140.401 15.2408C140.174 15.0133 140.174 14.7858 139.948 14.5583C139.495 14.3309 139.042 13.8759 138.815 13.6484C138.589 13.421 138.362 13.421 138.136 13.1935C137.456 12.966 137.003 12.2836 136.324 12.0561L136.097 11.8287C136.097 11.3737 135.645 11.3737 135.418 11.1462C134.512 10.2363 133.153 10.4638 132.247 9.78139C132.247 9.78139 132.247 9.78139 132.021 9.78139C131.794 10.0089 131.568 9.78139 131.341 9.78139C131.115 9.55391 130.888 9.55391 130.435 9.32644C129.983 9.09896 129.53 8.87149 128.624 8.87149C128.397 8.87149 128.171 8.87149 127.944 8.87149C127.718 8.87149 127.491 8.87149 127.491 8.64402C127.491 8.64402 127.491 8.41654 127.491 8.18907C127.718 8.18907 128.171 8.41654 128.397 7.96159C128.171 7.73412 127.944 7.50664 127.718 7.50664C127.491 7.50664 127.491 7.96159 127.038 7.73412C127.038 7.27917 126.812 6.82422 126.585 6.59675C126.132 6.36927 125.906 5.91433 125.226 6.59675C124.773 6.59675 124.547 6.59675 124.094 6.82422C123.868 6.36927 123.641 6.1418 123.415 5.68685C123.641 5.45938 123.641 5.2319 123.641 5.00443C122.962 4.32201 122.735 3.63958 121.829 3.18463C121.376 2.95716 121.15 2.27474 120.47 2.27474L120.244 2.04726C120.244 1.36484 119.791 0.682419 119.338 0.22747C119.111 0.22747 119.111 0.22747 118.885 0.22747C117.3 1.36484 117.3 2.50221 116.62 4.09453C116.394 4.54948 115.261 4.77695 114.808 4.54948C114.355 5.91433 112.77 6.82422 112.77 8.18907C112.77 9.09896 110.732 9.32644 110.279 8.64402C110.052 8.18907 109.599 7.73412 108.92 7.50664C108.693 7.50664 108.693 7.50664 108.467 7.27917C108.014 7.73412 107.334 7.73412 106.881 7.73412C106.429 7.96159 105.749 8.18907 105.296 8.41654C104.843 9.09896 103.937 9.09896 103.711 8.64402C103.711 8.64402 103.711 8.64402 103.484 8.41654C102.578 9.09896 101.899 9.78139 100.993 10.4638C101.446 10.4638 101.672 10.4638 101.899 10.4638C102.352 10.4638 102.805 10.4638 102.805 9.78139L103.031 9.55391C103.258 9.32644 103.484 9.09896 103.711 9.32644C103.937 9.32644 103.937 9.55391 104.164 9.78139C103.711 10.4638 103.031 10.9188 102.352 11.1462C102.125 11.1462 102.125 11.3737 101.899 11.3737C101.899 11.6012 101.899 11.8287 101.672 11.8287C101.446 11.8287 101.219 11.8287 101.219 11.8287C100.993 11.8287 100.993 12.0561 100.766 12.2836C100.54 12.2836 100.087 12.2836 100.314 11.8287C100.314 11.3737 100.087 11.3737 99.8606 11.3737C99.6341 11.6012 99.6341 12.0561 99.6341 12.5111C99.6341 13.1935 99.6341 13.1935 99.4076 13.6484C98.9546 13.421 99.1811 12.966 98.9546 12.5111C98.7282 12.2836 98.9546 11.6012 98.2752 11.3737C98.2752 11.8287 98.2752 12.0561 98.0487 12.5111C97.5957 12.2836 97.1428 12.2836 96.6898 12.2836C95.5574 12.7386 94.878 13.6484 94.6515 14.7858C94.6515 15.4682 94.6515 15.9232 94.1985 16.6056C94.1985 16.8331 94.1985 17.0606 94.1985 17.288C94.1985 17.5155 94.425 17.743 94.425 18.1979C93.7456 18.1979 93.5191 18.6529 93.7456 19.1078L93.5191 19.3353C93.5191 19.5628 93.2926 19.5628 93.2926 19.7902C93.2926 20.0177 92.8396 20.0177 93.0661 20.4727C93.5191 20.2452 93.7456 20.0177 93.9721 19.5628C93.7456 19.5628 93.5191 19.5628 93.5191 19.3353L93.7456 19.1078C93.9721 19.1078 93.9721 19.3353 93.9721 19.5628C94.425 19.5628 94.6515 19.5628 94.6515 20.0177C94.6515 20.4727 94.6515 20.9276 94.1985 21.3826C93.7456 21.8375 93.5191 22.2925 92.8397 22.2925C92.1602 22.5199 91.9337 22.7474 92.1602 23.4298C92.1602 23.6573 92.1602 23.6573 92.1602 23.8848H91.9337C91.9337 23.6573 91.7072 23.4298 91.4808 23.6573L91.2543 23.8848C91.2543 24.1123 91.2543 24.3397 91.2543 24.3397C91.2543 24.3397 91.2543 24.3397 91.0278 24.3397C90.8013 24.1123 91.0278 23.6573 90.5748 23.6573C90.1219 24.1123 89.8954 24.5672 89.6689 25.2496C89.6689 25.4771 89.4424 25.4771 89.216 25.4771C88.9895 25.4771 88.9895 25.2496 88.9895 25.0222C88.31 24.7947 87.6306 24.7947 87.1776 25.4771C86.7247 25.9321 86.2717 26.387 85.8187 26.8419C85.5923 26.8419 85.1393 27.0694 84.6863 27.0694C84.2334 27.0694 84.2334 27.5244 84.0069 27.7518C83.7804 27.9793 84.2334 28.2068 84.2334 28.4343C84.0069 28.4343 83.5539 28.6617 83.3275 28.6617C83.3275 29.1167 83.3275 29.5716 82.8745 29.7991C82.4215 29.3442 81.9686 29.3442 81.5156 30.0266C81.2891 30.2541 81.0626 30.2541 81.0626 30.4815C80.8362 30.9365 80.6097 31.164 80.1567 31.164C79.9302 31.6189 79.2508 31.6189 78.7978 31.6189C78.3449 31.6189 77.8919 31.6189 77.439 31.8464C77.2125 32.0739 76.986 31.8464 76.533 31.8464C76.3065 31.8464 76.0801 31.6189 76.0801 31.8464C76.0801 32.3013 76.533 32.7563 76.0801 33.2112C75.6271 33.4387 75.4006 33.4387 74.9477 33.6662C74.4947 33.8937 74.0417 34.1211 73.3623 33.8937C73.1358 33.8937 72.6829 33.8937 72.2299 33.8937C72.0034 33.8937 71.7769 34.1211 71.7769 34.3486C72.6829 35.031 72.6829 35.031 71.7769 35.7134C71.5505 35.486 71.0975 35.486 70.871 35.2585C70.6445 35.486 70.418 35.486 70.1916 35.7134C69.9651 35.9409 69.7386 35.9409 69.5121 35.9409C68.3797 36.1684 67.2473 36.3959 66.5679 37.3058C66.3414 37.5332 66.3414 37.5332 66.1149 37.5332C65.8884 37.7607 65.4355 37.7607 65.209 37.9882C64.9825 38.2157 64.756 38.6706 64.756 38.8981C64.5295 38.8981 64.0766 38.8981 63.8501 38.8981C63.3971 39.1256 62.7177 39.353 62.4912 39.808C61.8118 40.7179 60.6794 41.4003 59.547 41.4003C59.3205 41.4003 58.8675 41.4003 58.641 41.6278C57.0557 42.3102 55.4703 42.5377 54.3379 43.9025L54.1114 44.13C53.2055 44.3575 52.5261 45.0399 51.8466 45.4948C51.1672 45.9498 50.4877 46.4047 49.5818 46.4047C49.3553 46.6322 49.1288 46.8597 48.9024 47.0872C47.77 47.3146 46.6376 47.7696 45.5052 48.2245C45.2787 48.2245 45.2787 48.2245 45.0522 48.2245C45.0522 48.2245 45.0522 47.9971 44.8257 47.9971C45.0522 47.7696 45.2787 47.5421 45.5052 47.3146C45.0522 47.3146 44.5992 47.5421 44.3727 47.7696C43.9198 47.997 43.4668 48.2245 43.0139 47.9971C41.8815 47.7696 40.5226 47.997 39.6167 47.3146C38.9372 47.3146 38.4842 47.7696 38.2578 47.9971C38.0313 48.2245 38.0313 48.452 37.8048 48.452C36.8989 49.1344 35.7665 49.8168 34.6341 50.4993C34.4076 50.7267 33.9546 50.7267 33.9546 51.1817C34.1811 51.1817 34.1811 51.4092 34.4076 51.1817C34.8606 50.9542 35.087 50.9542 35.54 50.7267C35.54 51.1817 35.087 51.4092 34.8606 51.6366C35.3135 51.6366 35.54 51.8641 35.54 52.3191C35.54 52.3191 35.54 52.3191 35.54 52.5465C35.993 52.774 35.3135 53.229 35.7665 53.4564C35.7665 53.4564 35.7665 53.4564 35.7665 53.6839C35.54 53.9114 35.54 53.9114 35.3135 53.9114C34.4076 53.9114 34.4076 54.1389 33.9546 54.8213C33.7281 55.5037 33.5017 56.1861 32.5957 56.6411C32.1428 56.8685 31.6898 57.551 31.6898 58.0059C31.6898 58.6883 31.0104 58.9158 30.7839 59.3708C30.5574 59.5982 30.1045 59.5982 29.6515 59.5982C29.6515 59.3708 29.878 59.3708 29.425 59.1433C29.1985 59.1433 28.972 59.3708 28.7456 59.3708C28.5191 59.3708 28.5191 59.5982 28.5191 59.8257C28.5191 60.0532 28.5191 60.2807 28.5191 60.7356C28.7456 60.5081 28.9721 60.2807 29.1985 60.2807C29.425 60.2807 29.425 60.2807 29.6515 60.2807C29.6515 60.7356 29.425 61.1906 29.1985 61.1906C28.7456 61.418 28.5191 61.6455 28.5191 62.1004C28.5191 62.3279 28.0661 62.5554 28.0661 62.7829C27.8396 63.0103 27.6132 63.2378 27.1602 63.4653C26.7072 63.6928 26.4808 64.1477 26.0278 64.3752C25.5748 64.8301 25.1219 64.8301 24.4424 64.8301C24.216 64.8301 23.9895 64.8301 23.763 64.6027C23.0835 64.3752 22.8571 64.6027 22.4041 65.0576C21.7247 65.2851 21.2717 65.5126 20.5923 65.74C20.3658 65.9675 20.3658 66.4225 20.3658 66.6499C20.1393 67.1049 19.9128 67.3324 19.4599 67.3324C19.0069 67.3324 18.7804 67.1049 18.7804 66.6499C18.7804 66.6499 18.5539 66.6499 18.3275 66.6499C18.3275 66.8774 18.101 66.8774 18.101 67.1049C17.8745 67.1049 17.648 67.1049 17.4215 67.1049C16.7421 66.8774 16.0626 66.4225 15.6097 66.195C15.1567 65.9675 14.9302 65.5126 14.7038 65.0576C14.0243 65.9675 13.1184 66.195 12.4389 66.8774C12.4389 67.1049 12.6654 67.3324 12.4389 67.5598C11.986 67.3324 11.3065 67.7873 10.6271 67.5598C10.4006 66.8774 11.3065 66.8774 11.533 66.6499C11.3065 65.9675 10.6271 65.74 10.1741 65.74C9.26822 65.5126 8.58878 65.2851 7.90933 64.8301C7.45637 64.6027 7.00341 64.3752 6.77693 63.9202C6.77693 63.6928 6.55045 63.6928 6.32397 63.9202C6.32397 64.1477 6.32397 64.3752 6.32397 64.6027C6.09749 65.2851 6.55045 65.5126 7.00341 65.74C7.22989 65.74 7.22989 65.74 7.22989 65.5126L7.45637 65.2851C7.68285 65.5126 8.13581 65.5126 8.3623 65.74C8.3623 65.9675 8.58878 66.195 9.04174 66.4225C8.81526 66.6499 8.58878 66.8774 8.3623 67.1049C7.90933 67.1049 7.68285 66.8774 7.22989 66.8774C7.68285 67.3324 8.36229 67.5598 8.81526 67.7873C8.81526 68.0148 8.81526 68.2423 9.04174 68.4697C9.72118 68.6972 9.72118 69.1522 10.1741 69.6071C9.4947 69.6071 9.4947 69.6071 9.26822 69.6071C8.81526 69.3796 8.3623 69.1521 8.13581 68.9247C7.90933 68.6972 7.45637 68.6972 7.00341 68.6972C7.00341 68.9247 7.00341 69.1521 6.55045 69.1521C5.87101 68.6972 5.19156 68.4697 4.51212 68.0148C4.28564 67.7873 4.28564 67.7873 4.51212 67.5598L4.28564 67.3324C3.6062 67.1049 2.92675 67.5598 2.47379 67.7873C2.47379 67.7873 2.47379 68.0148 2.47379 68.2422C3.6062 68.2422 4.05916 69.1521 4.96508 69.3796C4.96508 69.6071 4.96508 70.062 4.96508 70.2895C4.51212 70.2895 4.28564 70.517 4.05916 70.7445C4.05916 70.7445 3.83268 70.7445 3.6062 70.9719L3.37972 70.7445C2.70027 70.7445 2.24731 70.517 1.79435 70.2895C1.34139 70.062 0.888427 70.062 0.661946 69.8346C0.661946 69.8346 0.435466 69.8346 0.435466 70.062C0.435466 70.2895 0.435465 70.517 0.661946 70.517ZM238.014 79.616C237.787 79.3885 237.561 79.3885 237.334 79.3885C237.108 79.3885 236.881 79.161 236.655 78.9335C236.428 78.9335 236.428 78.7061 236.655 78.4786C236.655 78.4786 236.881 78.2511 237.108 78.4786C237.787 78.7061 238.467 78.9335 238.92 79.616C238.467 79.616 238.014 79.8434 238.014 79.616ZM238.693 77.1138C238.693 77.3412 238.467 77.5687 238.467 77.5687C238.24 77.3412 238.014 77.1137 237.787 76.8863C238.24 76.8863 238.24 76.8863 238.693 77.1138ZM238.467 77.5687C238.693 77.7962 238.693 78.2511 238.92 78.4786C238.014 78.4786 237.108 78.2511 236.428 77.5687V77.3412C236.881 77.1137 237.108 77.5687 237.561 77.5687C237.561 77.5687 238.014 77.5687 238.467 77.5687ZM235.976 73.2467C236.655 73.0192 236.881 73.2467 237.561 73.9291C236.881 73.9291 236.881 73.9291 236.428 73.7016C236.202 73.9291 236.202 74.3841 235.976 74.6115L235.749 74.3841C235.749 74.1566 235.976 73.7016 235.976 73.2467ZM235.523 77.1138C235.296 77.1138 235.296 76.8863 235.07 76.8863L234.843 76.6588C235.523 76.6588 235.523 76.6588 235.523 77.1138ZM233.937 76.2038C234.164 76.2038 234.39 76.2038 234.39 76.4313C234.39 76.6588 234.164 76.8863 234.164 76.8863C233.937 76.8863 233.711 76.8863 233.711 76.6588V76.4313C233.711 76.2038 233.711 76.2038 233.937 76.2038ZM220.575 63.2378C220.122 63.4653 219.669 63.2378 219.216 63.0103C219.895 63.0103 219.895 63.0103 220.575 63.2378ZM209.477 69.8346C210.383 70.062 211.289 70.2895 212.195 70.517C212.874 70.7445 213.101 71.1994 213.101 71.6544C213.101 71.8818 213.327 72.3368 213.554 72.5643C213.78 72.5643 214.233 72.5643 214.46 72.7917C214.007 73.0192 213.78 73.2467 214.007 73.4742C214.007 73.7016 214.46 73.9291 214.913 73.7016C215.139 73.7016 215.366 73.4742 215.592 73.4742C215.366 74.6115 215.366 74.839 214.007 75.294C214.007 75.0665 213.78 75.0665 213.554 74.839C213.327 74.6115 213.327 74.6115 213.101 74.3841C212.648 74.3841 212.195 74.3841 211.742 74.6115C211.516 74.839 211.289 75.0665 211.063 75.294C211.289 75.5214 211.516 75.5214 211.742 75.5214C211.969 75.5214 212.195 75.7489 212.195 75.9764H211.969C211.969 75.9764 211.969 76.2038 212.195 76.2038H212.422C212.422 76.6588 212.195 76.6588 211.742 76.6588C211.742 76.8863 211.516 77.1137 211.516 77.3412C211.289 77.7962 210.836 77.7962 210.383 77.7962L210.157 77.5687C209.93 76.6588 209.93 75.9764 210.383 75.0665C210.61 74.6115 211.063 73.9291 211.289 73.4742C211.063 73.2467 210.836 73.4742 210.836 73.4742C210.61 73.4742 210.383 73.4742 210.157 73.2467C210.157 72.7917 209.93 72.3368 209.93 71.8818C209.704 71.4269 209.024 71.4269 209.024 70.7445C208.798 70.517 209.251 70.062 209.477 69.8346ZM204.721 79.8434C205.401 79.8434 206.08 79.616 206.76 79.616C206.986 79.616 206.76 79.8434 206.76 80.0709C206.533 80.2984 206.307 80.5259 206.08 80.5259C205.401 80.7533 204.948 81.4358 204.268 81.2083C204.042 80.9808 204.042 80.7533 203.815 80.2984C204.042 80.0709 204.268 79.8434 204.721 79.8434ZM202.456 65.74C202.909 65.74 203.362 65.9675 203.815 65.9675C203.589 66.195 203.362 66.4225 203.136 66.195C202.909 65.9675 202.456 66.195 202.23 65.74H202.456ZM202.003 67.1049C202.23 67.1049 202.23 67.3324 202.456 67.5598C202.23 67.7873 202.003 67.7873 202.003 67.7873C201.55 67.5598 201.324 67.3324 200.871 67.1049C200.418 66.6499 199.739 66.4225 199.965 65.74C200.192 65.74 200.418 65.5126 200.418 65.2851C200.418 64.8301 200.192 64.6027 199.965 64.1477C199.739 63.9202 199.739 63.9202 199.965 63.6928C200.192 63.4653 200.418 63.4653 200.645 63.6928L200.871 63.9202C200.871 64.3752 201.55 64.8301 201.324 65.2851L201.55 65.5126C201.777 65.74 202.003 65.74 202.23 65.9675C201.777 66.4225 201.324 66.8774 202.003 67.1049ZM201.777 63.0103C201.777 63.0103 201.777 63.2378 201.777 63.4653L201.55 63.6928C200.871 63.9202 200.418 63.6928 199.965 63.4653C199.512 63.2378 199.059 63.0103 198.833 62.1004C199.965 62.1004 200.871 62.3279 201.777 63.0103ZM197.021 84.8479C197.7 83.938 198.833 83.483 199.739 82.8006C200.192 82.5731 200.645 82.5731 201.324 82.3457C201.55 82.1182 201.777 81.8907 202.003 81.6632C202.23 81.4358 202.456 81.2083 202.909 80.9808C203.362 81.2083 203.815 81.2083 204.495 81.4358C204.495 81.8907 203.815 82.1182 203.589 82.3457C202.683 82.8006 202.003 83.2556 201.097 83.7105C200.418 84.1655 199.512 84.3929 198.833 84.8479C198.833 84.8479 198.833 85.0753 198.606 85.0753C197.474 85.7578 196.341 86.2127 195.209 86.8951C194.756 86.6677 194.983 86.4402 194.983 86.2127C194.983 85.9852 194.756 85.9852 194.756 85.7578C194.982 85.3028 195.888 84.6204 197.021 84.8479ZM191.812 88.26C192.038 87.805 192.491 87.5776 192.944 87.5776C192.718 88.0325 192.265 88.26 191.812 88.26ZM191.359 86.8951C191.359 86.6677 191.359 86.6677 191.585 86.4402C191.812 86.4402 192.038 86.4402 192.265 86.4402C192.265 86.6677 192.038 86.8951 191.359 86.8951ZM193.624 86.8951L193.85 87.1226V87.3501C193.624 87.3501 193.171 87.3501 192.944 87.5776C192.944 87.1226 193.171 86.8951 193.624 86.8951ZM193.397 61.6455C192.944 61.873 192.718 61.873 192.491 61.418C192.944 61.1906 193.171 61.1906 193.397 61.6455ZM192.265 85.5303C192.265 85.7578 192.038 85.7578 192.038 85.9852C191.812 86.2127 191.812 86.2127 191.585 86.4402C191.132 86.4402 190.679 86.6677 190.453 87.3501C190.453 87.805 190 88.0325 189.547 88.26C189.32 88.26 189.32 88.4875 189.32 88.7149C189.773 88.7149 190.226 88.4875 190.679 88.7149C190.906 88.9424 191.359 88.7149 191.812 88.4875C191.585 88.7149 191.359 89.1699 190.906 89.1699C189.547 90.0798 188.188 90.7622 186.829 91.4446C186.15 91.8996 185.47 92.127 184.791 92.8095C184.338 93.2644 183.658 93.4919 182.979 93.7194C182.073 93.7194 181.62 94.4018 180.714 94.8567C180.488 95.0842 180.261 95.3117 180.035 95.7666C179.355 96.2216 178.676 96.4491 177.996 96.904C177.543 97.1315 177.091 97.1315 176.411 97.1315C176.638 96.6765 176.864 96.4491 177.091 96.2216C180.261 94.6293 183.432 93.0369 186.603 91.2171C186.603 91.2171 186.603 91.2171 186.829 91.2171C187.056 90.9897 187.282 90.9897 187.509 90.7622C188.188 90.3073 188.641 89.6248 188.641 88.7149C188.641 88.7149 188.641 88.7149 188.868 88.7149C188.868 88.7149 188.868 88.7149 188.641 88.4875C188.641 88.0325 188.641 87.805 188.641 87.3501C188.641 86.8951 188.415 86.4402 188.188 85.9852C188.188 85.9852 188.188 85.9852 188.415 85.9852C188.868 85.7578 189.32 85.3028 190 85.3028C189.773 85.5303 189.773 85.7578 189.547 85.7578C189.32 85.9852 189.094 85.9852 188.868 86.2127C188.641 86.4402 188.415 86.4402 188.415 86.6677C188.415 86.8951 188.641 87.1226 188.641 87.1226C189.547 86.6677 190.453 86.2127 191.132 85.7578C191.359 85.7578 191.812 85.5303 192.265 85.5303ZM179.582 85.9852C179.582 85.3028 180.261 85.3028 180.714 85.0753V85.3028C180.488 85.5303 180.261 85.7578 180.035 85.9852C179.582 85.9852 179.582 85.9852 179.582 85.9852ZM182.526 59.1433C182.526 58.6883 182.753 58.4609 182.979 58.2334C183.205 58.0059 183.658 57.7784 183.885 58.0059C184.564 58.2334 185.244 58.2334 185.697 58.6883C185.47 58.9158 185.017 59.1433 184.791 59.3708C184.338 59.5982 183.885 59.8257 183.205 59.5982C182.979 59.5982 182.753 59.3708 182.526 59.1433ZM188.641 62.1004C188.641 61.873 188.868 61.873 189.094 61.873C189.32 61.873 189.547 61.873 189.773 61.6455C190 61.6455 190 61.6455 190.226 61.418C189.32 62.5554 189.32 62.5554 188.641 62.1004ZM190.679 63.6928C190.226 63.4653 189.773 63.2378 189.773 63.0103C190.226 63.0103 190.226 63.0103 190.679 63.6928ZM186.829 57.3235C186.829 57.7784 186.376 57.7784 186.15 57.7784C186.376 58.0059 186.603 58.0059 186.829 58.0059C187.509 57.551 188.188 57.551 188.868 57.7784C189.094 57.7784 189.32 58.0059 189.547 58.2334C189.773 58.4609 190 58.6883 190.226 58.6883C190.906 59.1433 191.359 59.5982 191.132 60.5081C191.132 60.7356 191.359 60.9631 191.359 61.1906C190.679 61.1906 190 60.7356 189.547 60.2807C189.32 60.2807 189.094 60.0532 188.868 60.0532C188.868 60.0532 188.868 60.0532 188.641 59.8257C188.415 59.8257 188.188 59.8257 188.188 59.8257C188.188 59.8257 188.188 60.0532 188.188 60.2807C188.188 60.5081 188.188 60.5081 188.415 60.5081C188.188 60.7356 187.735 60.2807 187.509 60.7356C187.509 60.7356 187.282 60.9631 187.056 60.7356C186.603 60.7356 186.15 60.5081 185.697 60.2807C185.697 60.0532 185.697 59.5982 185.697 59.3708C186.15 59.3708 186.603 59.3708 187.056 59.1433L187.282 58.9158C187.282 58.9158 187.282 58.6883 187.056 58.4609C186.829 58.2334 186.603 58.2334 186.376 58.2334C186.15 58.2334 185.697 58.2334 185.47 58.2334C185.47 58.0059 185.47 57.7784 185.244 57.551C185.244 57.3235 185.244 57.096 185.47 57.096C185.244 56.8685 185.017 56.4136 185.017 55.9586C185.923 56.8685 186.376 57.096 186.829 57.3235ZM180.035 55.9586C180.488 55.9586 180.941 56.1861 181.394 55.9586C181.394 55.7312 181.394 55.7312 181.394 55.5037C181.62 55.5037 182.073 55.2762 182.3 55.2762C182.3 55.2762 182.3 55.0488 182.526 55.0488C183.206 55.0488 184.111 55.2762 184.564 55.7312C184.791 55.9586 185.244 56.1861 185.47 56.4136C185.47 56.4136 185.47 56.6411 185.47 56.8685C185.244 56.8685 184.791 56.8685 184.564 57.096C184.338 57.096 184.111 57.3235 183.658 57.3235C183.432 56.8685 183.432 56.6411 183.205 56.1861C182.753 56.1861 182.526 56.4136 182.526 56.8685C182.526 57.3235 182.073 57.096 182.073 57.3235C182.073 57.551 182.3 57.7784 182.3 58.0059C182.073 58.0059 182.073 58.2334 182.073 58.0059C181.62 57.7784 181.167 57.7784 180.714 57.551C180.488 57.551 180.261 57.3235 180.035 57.551C180.035 57.551 180.035 57.551 179.808 57.551C179.355 57.3235 178.902 57.096 178.223 56.8685C178.902 56.6411 179.355 56.4136 180.035 55.9586ZM175.732 80.0709C175.732 80.2984 175.958 80.5259 176.411 80.5259C176.864 80.5259 177.091 80.2984 177.543 80.2984C177.77 80.7533 177.543 80.9808 177.317 81.2083C176.864 81.2083 176.638 80.9808 176.185 80.9808C175.958 80.9808 175.732 81.2083 175.732 81.2083C175.505 81.2083 175.505 80.9808 175.505 80.7533C175.279 80.7533 175.052 80.7533 174.826 80.7533C174.826 80.0709 175.279 80.0709 175.732 80.0709ZM173.693 98.7238C173.467 98.4963 173.467 98.4963 173.24 98.4963C173.467 98.2688 173.92 97.8139 174.373 97.8139C175.052 97.5864 175.505 97.5864 175.958 98.2689C175.958 98.4963 175.505 98.4963 175.279 98.4963C175.052 98.4963 175.052 98.7238 174.826 98.7238C174.826 98.9513 175.052 98.9513 175.052 99.1787C175.279 99.6337 175.279 99.8612 174.826 99.8612C174.599 99.8612 174.373 99.8612 174.146 100.089C173.693 100.089 173.014 100.089 172.561 100.089C172.334 98.9513 173.24 99.1787 173.693 98.7238ZM165.766 45.2674C165.993 45.0399 166.219 45.0399 166.899 45.7223C166.219 45.7223 165.993 45.9498 165.54 45.9498C165.314 45.7223 165.54 45.4948 165.766 45.2674ZM164.408 71.6544C164.861 72.3368 165.314 72.7917 165.314 73.4742C165.314 73.7016 165.087 73.7016 165.087 73.9291C164.861 73.9291 164.634 73.9291 164.634 73.7016C164.408 73.4742 164.181 73.2467 164.408 72.7917C164.181 72.5643 164.181 72.3368 164.408 71.6544ZM159.651 95.5392C159.878 95.5392 159.878 95.5392 159.651 95.5392C160.104 95.9941 160.104 96.4491 160.104 96.904C159.651 96.4491 159.425 96.2216 159.425 95.7666C159.425 95.5392 159.651 95.5392 159.651 95.5392ZM159.651 67.5598C159.651 68.0148 159.425 68.4697 159.425 69.1521C159.199 68.9247 159.199 68.9247 158.972 68.9247C158.972 68.6972 158.972 68.4697 158.746 68.2422C158.746 68.0148 158.519 68.0148 158.293 67.7873C158.746 67.3324 159.199 67.3324 159.651 67.5598ZM156.254 108.278C157.387 107.368 158.746 106.685 159.878 105.775C160.557 106.003 161.463 105.775 162.143 105.321C162.822 104.866 163.502 104.411 163.955 103.956C164.181 103.728 164.408 103.501 164.634 103.273C164.634 103.273 164.861 103.273 164.861 103.501C164.861 103.728 164.634 103.956 164.408 104.183C164.408 104.411 164.181 104.638 164.181 104.866C163.502 105.321 163.049 105.548 162.369 106.003C161.69 106.458 161.01 106.913 160.331 107.368C159.878 107.823 159.199 108.05 158.519 108.05C158.293 108.278 158.066 108.733 158.066 108.96C157.613 109.415 156.934 108.96 156.481 109.415C156.028 109.415 155.801 109.188 155.575 108.96C155.801 108.505 156.028 108.505 156.254 108.278ZM151.272 82.3457C151.272 82.3457 151.272 82.1182 151.272 81.8907C151.498 81.6632 151.725 81.6632 152.178 81.4358C152.404 82.3457 152.178 82.5731 151.725 82.5731C151.272 82.5731 151.272 82.5731 151.272 82.3457ZM152.178 83.7105C151.951 83.938 151.725 83.938 151.498 83.7105V83.483C151.725 83.2556 151.951 83.2556 152.178 83.0281C152.404 83.2556 152.404 83.483 152.178 83.7105ZM153.31 41.4003C153.537 41.6278 153.763 41.8552 154.216 42.0827C154.669 42.3102 155.122 42.5377 155.348 42.9926C155.575 43.2201 155.575 43.4476 155.348 43.675C155.122 43.9025 154.895 43.9025 154.669 43.9025C154.442 43.9025 153.989 43.675 153.763 43.4476C153.31 43.2201 152.857 42.9926 152.404 42.7651C152.631 42.0827 152.631 41.4003 152.631 40.7179C152.857 40.9453 153.084 41.1728 153.31 41.4003ZM153.31 24.1123C153.084 24.5672 152.631 24.7947 152.178 24.3397C152.178 24.3397 151.951 24.1123 151.951 23.8848C152.404 24.1123 152.857 24.1123 153.31 24.1123ZM147.195 50.9542C147.422 51.1817 147.874 51.6366 147.648 52.3191C147.422 52.3191 147.195 52.0916 147.195 52.0916C146.742 51.6366 146.742 51.6366 147.195 50.9542ZM145.836 137.849C145.836 137.394 145.836 137.167 146.063 136.939C146.289 136.939 146.289 136.939 146.516 136.939C146.742 137.167 146.742 137.394 146.742 137.394C146.516 137.622 146.289 137.622 145.836 137.849ZM149.913 76.8863C150.139 76.8863 150.366 76.8863 150.366 77.1138C150.592 77.3412 150.592 77.5687 150.366 77.7962C149.913 78.0237 149.686 77.5687 149.46 77.5687L149.233 77.3412C149.46 77.1137 149.686 76.8863 149.913 76.8863ZM149.007 137.849C149.233 137.849 149.46 138.077 149.233 138.304C148.554 138.759 148.101 139.442 147.422 139.897C147.195 139.897 147.195 140.124 146.742 140.124C146.742 139.897 146.742 139.897 146.742 139.897C146.742 139.669 146.969 139.442 146.969 139.442C147.648 138.759 148.327 138.077 149.007 137.849ZM148.554 69.8346C148.78 69.8346 149.007 69.8346 149.233 70.062C149.007 70.517 149.007 70.9719 148.78 71.6544C148.554 71.4269 148.327 71.1994 148.327 70.9719C148.554 70.517 148.554 70.062 148.554 69.8346ZM146.289 48.2245C146.063 47.9971 146.063 47.997 146.063 47.7696C146.063 47.5421 146.289 47.5421 146.516 47.5421C146.742 48.2245 146.969 48.6795 147.195 49.1344C147.874 49.1344 147.874 49.1344 148.327 49.5894C148.101 49.5894 148.101 49.8168 147.874 49.8168C147.195 49.8168 146.742 49.8168 146.516 50.2718C146.516 50.2718 146.289 50.2718 146.063 50.2718C146.063 49.8168 146.063 49.5894 146.289 49.3619C146.063 49.1344 145.836 48.9069 145.61 48.6795C146.063 48.6795 146.289 48.6795 146.742 48.6795C146.516 48.452 146.289 48.452 146.289 48.2245ZM137.003 53.0015C137.003 52.774 137.003 52.5465 137.003 52.5465C137.23 51.8641 137.003 51.4092 137.003 50.7267C137.003 50.2718 136.55 50.2718 136.324 50.0443C136.55 49.8168 137.003 49.5894 137.456 49.1344C137.456 50.0443 137.23 51.1817 138.362 51.6366C138.136 52.0916 137.909 52.5465 137.909 53.0015C137.456 53.229 137.23 53.229 137.003 53.0015ZM136.55 47.5421C136.55 47.3146 136.55 47.0872 136.777 47.0872C136.777 47.0872 137.003 47.3146 137.23 47.3146C137.23 47.5421 137.456 47.9971 137.456 48.2245L137.23 48.452C137.23 48.452 137.003 48.2245 136.777 48.2245V47.9971C136.777 47.7696 136.55 47.5421 136.55 47.5421ZM137.456 46.4047C137.909 46.4047 137.909 46.6322 137.909 46.8597C137.909 47.0872 137.909 47.3146 137.456 47.3146C137.456 47.0872 137.456 46.8597 137.456 46.4047ZM138.136 53.4564C138.136 53.9114 138.136 54.3663 137.909 54.8213C137.909 54.8213 137.683 54.8213 137.683 55.0488C137.683 54.5938 137.456 54.1389 137.23 53.6839C137.683 53.4564 137.909 53.4564 138.136 53.4564ZM137.683 55.7312C137.909 55.7312 137.909 55.7312 137.683 55.7312C137.909 55.7312 137.909 55.7312 137.909 55.7312C137.909 56.1861 137.683 56.4136 137.683 56.8685C137.23 56.6411 137.23 56.1861 137.683 55.7312ZM137.909 58.9158C137.909 58.9158 137.909 58.6883 138.136 58.6883C138.589 58.6883 138.815 58.6883 139.268 58.4609C139.268 58.6883 139.042 58.9158 138.815 59.1433C138.589 59.1433 138.362 59.1433 138.362 59.1433C137.909 59.3708 137.909 59.1433 137.909 58.9158ZM138.362 62.5554C139.042 62.3279 139.042 62.3279 139.268 63.0103C138.815 63.0103 138.815 63.0103 138.362 62.5554ZM138.815 111.235C138.815 110.552 138.815 110.098 139.042 109.643C139.721 110.325 139.721 110.325 138.815 111.235ZM145.383 20.9276C144.93 20.9276 144.704 20.9276 144.477 20.4727C144.93 20.4727 144.93 20.4727 145.383 20.9276ZM143.118 145.356C143.118 145.356 143.345 145.583 143.345 145.811C143.118 145.811 142.892 146.038 142.665 146.038H142.439C142.439 146.038 142.439 146.038 142.439 145.811C142.439 145.356 142.665 145.356 143.118 145.356ZM141.533 136.257C141.76 136.257 141.76 136.257 141.986 136.257C142.212 136.257 142.212 136.485 142.212 136.712C141.76 137.167 141.307 137.394 140.854 137.849C140.627 137.394 140.627 137.167 140.401 136.712C140.627 136.257 140.627 136.03 140.854 135.575C141.08 135.575 141.08 135.575 141.307 135.575C141.307 135.802 141.08 135.802 141.307 136.03L141.533 136.257ZM142.665 50.4993C142.665 50.4993 142.212 50.4993 141.76 50.4993C142.212 50.0443 142.212 49.8168 142.439 49.8168C142.892 50.0443 142.892 50.2718 142.665 50.4993ZM141.76 30.4815C142.212 30.709 141.986 31.164 141.986 31.6189C141.76 31.3914 141.307 31.164 141.08 30.709C141.307 30.709 141.533 30.709 141.76 30.4815ZM137.003 25.9321C137.683 26.387 138.362 27.0694 139.042 27.5244C139.495 27.9793 139.495 28.4343 139.721 28.8892C139.948 28.8892 140.174 28.8892 140.401 29.1167C140.627 29.3442 140.854 29.5716 141.08 29.7991C141.307 30.0266 141.307 30.2541 141.08 30.2541C140.627 29.7991 140.174 29.3442 139.721 28.8892C138.815 27.9793 137.909 27.0694 137.003 26.1595C136.777 26.1595 136.777 25.9321 137.003 25.9321ZM136.324 45.4948C136.55 45.2674 136.55 45.0399 137.003 45.2674C137.23 45.2674 137.683 45.2674 137.909 45.4948C137.909 45.9498 137.456 45.4948 137.23 45.7223C137.003 45.9498 137.003 46.1773 136.777 46.4047C136.097 46.1773 136.097 45.9498 136.324 45.4948ZM133.606 22.5199C133.833 22.2925 133.606 21.8375 134.059 21.8375C134.286 22.5199 134.286 23.2024 134.512 23.8848C134.512 23.6573 134.512 23.2024 134.512 22.9749C134.512 22.9749 134.739 22.9749 134.739 23.2024C134.965 23.6573 135.192 24.3397 135.418 24.7947C135.645 25.2496 135.645 25.4771 135.871 25.9321C135.645 25.7046 135.418 25.4771 135.192 25.2496C134.512 24.3397 133.606 23.4298 132.927 22.7474C133.38 22.2925 133.606 22.2925 133.606 22.5199ZM131.794 56.6411C131.794 56.6411 132.021 56.4136 132.247 56.4136L132.474 56.6411C132.474 57.096 132.474 57.551 132.247 58.0059C131.568 57.551 131.568 57.3235 131.794 56.6411ZM118.885 141.261C119.791 141.261 120.244 141.489 120.697 141.944C120.017 141.944 120.017 141.944 118.885 141.261ZM130.435 42.0827C129.983 42.3102 129.756 42.5377 129.53 42.5377C129.077 42.7651 129.077 42.7651 128.85 42.0827C129.982 42.0827 129.983 42.0827 130.435 42.0827ZM129.53 41.6278C129.077 41.4003 128.85 41.1728 128.397 40.9454C128.171 39.808 128.171 39.808 128.397 39.353C128.624 39.353 128.624 39.353 128.624 39.5805C128.624 39.808 128.85 40.0355 128.85 40.2629C128.85 40.7179 129.077 40.9454 129.303 40.9454C129.756 41.1728 129.756 41.4003 129.53 41.6278C129.756 41.6278 129.53 41.6278 129.53 41.6278ZM129.756 38.8981L129.53 39.1256H129.303C129.303 38.8981 129.303 38.6706 129.53 38.6706L129.756 38.8981ZM129.756 10.0089C128.85 10.0089 128.397 9.78139 127.944 9.55391C128.85 9.32644 128.85 9.32644 129.756 10.0089ZM127.038 18.4254C127.265 18.6529 127.718 18.4254 127.944 18.4254C128.171 18.6529 128.397 18.8804 128.397 18.8804C127.265 18.4254 126.132 18.1979 125 17.9705L124.773 17.743C124.773 17.5155 124.773 17.5155 124.547 17.288C124.547 17.0606 124.32 16.8331 124.32 16.8331C125.453 17.5155 126.359 17.743 127.038 18.4254ZM127.491 36.3959C127.038 36.3959 126.812 36.6233 126.585 36.6233C126.585 36.3959 126.585 36.1684 126.585 36.1684C126.812 36.1684 127.038 36.3959 127.491 36.3959ZM126.585 33.6662C126.585 33.4387 126.585 32.9838 126.359 32.7563C126.585 33.2112 126.812 33.6662 127.038 33.8937C126.812 33.8937 126.812 33.8937 126.585 33.6662ZM124.547 118.514H124.32C124.094 118.287 124.094 118.059 123.868 117.832C124.094 117.832 124.32 117.832 124.32 117.832C124.32 117.832 124.32 118.059 124.547 118.514ZM123.415 115.557C123.415 115.557 123.415 115.784 123.415 115.557C123.188 115.784 123.188 115.784 123.188 115.784C122.962 115.329 122.962 115.102 122.735 114.647C122.962 114.647 122.962 114.647 123.188 114.42C123.188 114.874 123.188 115.102 123.415 115.557ZM123.188 107.595C123.415 108.05 123.415 108.278 123.415 108.733C123.188 108.505 122.962 108.278 122.735 107.823C122.962 107.823 122.962 107.595 123.188 107.595ZM122.509 132.39C122.962 132.617 123.415 132.845 123.868 132.845L124.094 133.072V132.845C124.547 132.845 124.773 132.617 125 132.39C125 132.617 125 132.617 125.226 133.072C125.453 132.617 125.906 132.845 126.132 132.617C125.906 132.39 125.679 132.162 125.679 131.935C125.906 131.708 126.132 131.708 126.359 131.48C126.812 131.48 127.038 131.708 127.038 132.162C127.038 132.617 127.265 133.072 127.038 133.527C126.585 133.527 125.906 133.3 125.453 133.3C125.226 133.527 125.226 133.982 125.453 134.21C125.679 134.437 125.679 134.665 125.906 134.892C125.679 134.892 125.453 134.892 125.453 134.892C125.226 134.665 125 134.437 124.773 134.21C124.773 133.982 124.773 133.527 124.547 133.527C124.32 133.527 124.32 133.3 124.094 133.3C124.094 133.527 124.094 133.527 124.32 133.755C124.32 133.982 124.32 134.21 124.547 134.21C123.641 133.755 122.735 133.3 122.056 132.617C121.829 132.39 121.376 132.617 121.15 132.617C120.923 132.39 120.697 132.162 120.47 132.162C120.017 131.708 119.791 131.253 120.017 130.798C120.017 130.798 120.017 130.798 120.017 130.57C120.697 131.025 121.603 131.708 122.509 132.39ZM119.791 108.505C120.244 108.278 120.244 108.278 120.47 108.96C120.244 108.96 120.017 109.188 119.791 109.188C119.791 108.96 119.791 108.733 119.791 108.505ZM117.3 93.0369C117.979 93.7194 117.979 93.9468 117.753 94.4018C117.753 94.4018 117.526 94.6293 117.3 94.6293L117.073 94.4018C117.3 93.9468 117.3 93.4919 117.3 93.0369ZM119.338 129.888C119.111 129.888 119.111 130.115 119.338 129.888C118.432 129.888 117.3 129.205 116.394 128.523C115.941 128.523 115.714 128.978 115.488 128.523C115.261 128.75 115.488 129.205 115.035 129.205C115.035 128.523 114.808 127.84 114.808 127.158C114.808 127.386 114.808 127.84 114.808 128.068C114.808 128.068 114.582 128.068 114.582 127.84C114.355 127.386 114.129 126.703 113.902 126.248C113.676 125.793 113.449 125.111 113.223 124.656C114.808 126.476 117.073 128.295 119.338 129.888ZM113.223 105.548C112.996 105.775 112.996 106.003 112.543 105.775C112.317 105.775 111.864 105.775 111.638 105.548C111.638 105.093 112.091 105.548 112.317 105.321C112.543 105.093 112.543 104.866 112.77 104.638C113.449 104.866 113.223 105.093 113.223 105.548ZM111.411 104.183C111.411 103.956 111.411 103.728 111.864 103.728C111.864 103.956 111.864 104.411 112.091 104.638C111.638 104.638 111.638 104.411 111.411 104.183ZM112.996 103.501C112.996 103.728 112.996 103.956 112.77 103.956C112.77 103.956 112.543 103.728 112.317 103.728C112.317 103.501 112.091 103.046 112.091 102.818L112.317 102.591L112.543 102.818V103.046C112.77 103.273 112.77 103.501 112.996 103.501ZM112.543 100.316C112.543 100.771 112.996 100.771 113.223 100.999C112.996 101.226 112.543 101.453 112.091 101.908C112.091 100.999 112.317 99.8612 111.411 99.4062C111.638 98.9513 111.864 98.4963 111.864 98.0414C112.091 98.0414 112.317 98.0414 112.543 98.2689C112.543 98.4963 112.543 98.7238 112.543 98.7238C112.317 99.1787 112.317 99.8612 112.543 100.316ZM111.411 97.5864C111.411 97.1315 111.411 96.6765 111.638 96.2216C111.638 96.2216 111.864 96.2216 111.864 95.9941C111.864 96.4491 112.091 96.904 112.317 97.3589C112.091 97.5864 111.864 97.5864 111.411 97.5864ZM111.864 95.3117C111.638 95.3117 111.638 95.3117 111.638 95.3117C111.638 94.8567 111.864 94.6293 111.864 94.1743C112.317 94.6293 112.317 94.8567 111.864 95.3117ZM111.864 92.127L111.638 92.3545C111.185 92.3545 110.958 92.3545 110.505 92.3545C110.505 92.127 110.732 91.8996 110.958 91.6721C111.185 91.6721 111.411 91.6721 111.411 91.6721C111.864 91.8996 111.864 91.8996 111.864 92.127ZM111.411 88.4875C110.958 88.7149 110.958 88.7149 110.505 88.0325C110.958 88.0325 110.958 88.0325 111.411 88.4875ZM111.864 39.808C111.864 40.4904 111.864 40.9454 111.638 41.4003C110.958 40.7179 110.958 40.7179 111.864 39.808ZM112.543 124.883C112.317 124.883 112.317 125.111 112.091 125.111C111.411 124.656 110.732 123.973 110.052 123.518C109.826 123.291 109.826 123.064 109.599 122.836C110.732 123.518 111.638 124.201 112.543 124.883ZM106.881 100.544C106.881 100.544 107.334 100.544 107.787 100.544C107.334 100.999 107.334 100.999 107.108 101.226C106.655 100.999 106.655 100.771 106.881 100.544ZM104.617 130.343C103.937 130.57 103.937 130.57 103.711 129.888C103.937 130.115 104.39 130.115 104.617 130.343ZM103.031 102.363C103.031 102.591 103.031 102.591 103.258 102.591C103.484 102.818 103.484 102.818 103.484 103.046C103.484 103.046 103.258 103.273 103.031 103.273C102.805 102.591 102.578 102.136 102.352 101.681C101.672 101.681 101.672 101.681 101.446 101.226C101.672 101.226 101.672 100.999 101.899 101.226C102.578 101.226 103.031 101.226 103.484 100.771C103.484 100.771 103.711 100.771 103.937 100.771C103.937 101.226 103.711 101.453 103.711 101.681C103.937 101.908 104.164 102.136 104.39 102.363C103.711 102.363 103.258 102.363 103.031 102.363ZM101.672 98.7238C101.899 98.9513 101.899 98.9513 102.125 98.9513C102.578 99.4062 102.578 99.4062 102.125 100.089C101.899 99.6337 101.672 99.4062 101.672 98.7238ZM105.296 13.1935C105.296 13.6484 105.296 13.8759 105.07 14.1034C104.843 14.1034 104.843 14.1034 104.617 14.1034C104.39 13.8759 104.39 13.6484 104.39 13.6484C104.617 13.1935 105.07 13.1935 105.296 13.1935ZM101.899 12.7386C102.578 12.2836 103.258 11.6012 103.711 11.1462C103.937 11.1462 103.937 10.9188 104.39 10.9188C104.39 11.1462 104.39 11.1462 104.39 11.1462C104.39 11.3737 104.164 11.6012 104.164 11.6012C103.484 12.0561 102.805 12.7386 102.125 13.1935C101.899 12.966 101.672 12.7386 101.899 12.7386ZM101.219 79.3885C101.446 79.616 101.672 79.8434 101.672 80.0709C101.672 80.5259 101.446 80.7533 101.446 81.2083C101.219 81.2083 100.993 81.2083 100.766 80.9808C100.766 80.5259 100.993 79.8434 101.219 79.3885ZM99.6341 73.0192C100.087 73.0192 100.314 73.2467 100.54 73.2467C100.54 73.2467 100.766 73.4742 100.766 73.7016C100.766 73.9291 100.54 73.9291 100.314 73.9291C100.087 73.9291 99.8606 73.9291 99.8606 73.7016C99.6341 73.4742 99.4076 73.2467 99.6341 73.0192ZM98.9546 68.4697C98.9546 68.4697 98.9546 68.6972 98.9546 68.9247C98.7282 69.1521 98.5017 69.1521 98.0487 69.3796C97.8222 68.4697 98.0487 68.2422 98.7281 68.2422C98.7281 68.2422 98.9546 68.2423 98.9546 68.4697ZM98.0487 67.1049C98.2752 66.8774 98.5017 66.8774 98.7281 67.1049V67.3324C98.5017 67.5598 98.2752 67.5598 98.0487 67.7873C97.8222 67.5598 97.8222 67.3324 98.0487 67.1049ZM96.9163 126.476C96.9163 126.476 97.1428 126.703 97.1428 126.931C96.6898 126.931 96.2369 126.931 95.7839 126.931C96.0104 126.476 96.4633 126.248 96.9163 126.476ZM90.5748 81.8907C90.8013 82.1182 90.8013 82.1182 91.0278 82.1182C91.0278 82.3456 91.0278 82.5731 91.2543 82.8006C91.2543 83.0281 91.4808 83.2555 91.4808 83.2555C91.2543 83.7105 90.8013 83.483 90.3484 83.2555C90.3484 82.8006 90.3484 82.3457 90.5748 81.8907ZM85.1393 76.8863C85.3658 76.8863 85.5923 76.8863 85.5923 77.1138C85.8187 77.3412 86.0452 77.5687 85.8187 78.0236C85.8187 78.2511 85.5923 78.7061 85.5923 79.161C85.1393 78.4786 84.6863 78.0236 84.6863 77.3412C84.6863 77.1137 84.9128 76.8863 85.1393 76.8863ZM83.3275 104.638C83.5539 104.866 83.7804 104.866 84.0069 105.093C84.0069 105.321 83.7804 105.321 83.7804 105.321C83.5539 105.548 83.3275 105.321 82.648 104.866C82.8745 104.866 83.101 104.866 83.3275 104.638ZM75.8536 100.089C75.4006 99.8612 74.7212 99.6337 74.2682 99.1787C74.9477 99.4062 75.4006 99.6337 75.8536 100.089ZM72.9093 69.3796C73.3623 69.3796 73.5888 69.6071 74.0417 69.6071C74.2682 69.6071 74.4947 69.3796 74.4947 69.3796C74.7212 69.3796 74.7212 69.6071 74.7212 69.8346C74.9477 69.8346 75.1741 69.8346 75.4006 69.8346C75.1741 70.517 74.7212 70.517 74.2682 70.517C74.2682 70.2895 74.0417 70.062 73.5888 70.062C73.1358 70.062 72.9093 70.2895 72.4564 70.2895C72.4564 69.8346 72.6829 69.6071 72.9093 69.3796ZM69.7386 65.2851C69.7386 64.6027 69.7386 64.6027 69.9651 64.3752C70.1916 64.3752 70.4181 64.3752 70.6445 64.3752C70.6445 65.0576 70.1916 65.0576 69.7386 65.2851ZM70.1916 63.2378C70.418 63.0103 70.6445 63.2378 70.871 63.4653C70.418 63.6928 69.7386 63.6928 69.2856 63.9202C69.2856 63.9202 69.2856 63.9202 69.2856 63.6928C69.5121 63.6928 69.7386 63.4653 70.1916 63.2378ZM69.0592 60.9631C69.2856 61.1906 69.5121 61.1906 69.7386 61.1906C69.2856 61.873 69.0592 61.873 68.6062 61.418C68.6062 61.1906 68.8327 60.9631 69.0592 60.9631ZM67.4738 61.873C67.4738 62.1005 67.7003 62.3279 67.4738 62.3279C67.4738 62.5554 67.2473 62.7829 67.7003 63.0103C67.9268 63.2378 67.9268 63.6928 67.4738 63.6928C67.0208 63.9202 66.5679 63.9202 65.8884 64.1477C65.4355 63.6928 65.209 63.4653 64.9825 63.0103C65.8884 62.7829 66.5679 62.3279 67.4738 61.873ZM50.4877 86.2127V86.4402C50.2613 86.6677 50.0348 86.6677 49.8083 86.4402L49.5818 86.2127C49.5818 85.9852 49.5818 85.7578 49.3553 85.5303C49.5818 85.7578 50.0348 85.9852 50.4877 86.2127ZM48.2229 86.8951C49.1288 86.6677 49.5818 86.8951 50.0348 87.1226C50.4877 87.3501 50.9407 87.5776 51.1672 88.4875C50.0348 88.26 49.1288 88.0325 48.2229 87.3501C47.9964 87.1226 47.9964 87.1226 48.2229 86.8951ZM36.4459 75.0665C36.4459 75.294 36.6724 75.294 36.6724 75.5214C36.6724 75.7489 36.8989 75.7489 36.8989 75.9764C36.8989 76.6588 37.1254 77.1138 37.5783 77.7962C37.3518 78.2511 37.1254 78.9335 37.1254 79.3885C36.8989 79.161 36.6724 78.9335 36.6724 78.4786C36.6724 78.2511 36.4459 77.7962 36.2194 77.5687C35.993 77.5687 35.54 77.5687 35.3135 77.3412C35.7665 77.1137 35.993 76.8863 35.993 76.6588C35.993 76.4313 35.54 76.2038 35.087 76.4313C34.8606 76.4313 34.6341 76.6588 34.4076 76.6588C34.8606 75.7489 35.087 75.5214 36.4459 75.0665ZM30.5574 86.8951C29.878 86.8951 29.878 86.8951 29.1985 86.6677C29.878 86.4402 30.1045 86.6677 30.5574 86.8951ZM16.0626 73.0192C16.2891 73.0192 16.5156 73.0192 16.5156 73.2467V73.4742C16.5156 73.4742 16.2891 73.7016 16.0626 73.7016C15.8362 73.7016 15.6097 73.7016 15.6097 73.4742C15.6097 73.2467 15.8362 73.0192 16.0626 73.0192ZM14.9302 72.7917C15.1567 72.7917 15.1567 73.0192 14.9302 72.7917C14.7038 73.2467 14.7038 73.2467 14.4773 72.5643C14.7038 72.7917 14.9302 72.7917 14.9302 72.7917ZM11.533 72.7917C11.533 72.5643 11.7595 72.3368 11.7595 72.3368C11.986 72.5643 12.2125 72.7917 12.4389 73.0192C11.986 73.0192 11.986 73.0192 11.533 72.7917ZM14.2508 75.294C14.2508 75.7489 14.0243 75.9764 14.0243 76.4313C13.3449 76.6588 13.1184 76.4313 12.6654 75.7489C13.1184 75.7489 13.3449 75.7489 13.7978 75.9764C14.0243 75.7489 14.0243 75.294 14.2508 75.0665C14.2508 75.294 14.4773 75.294 14.2508 75.294ZM12.2125 70.062C12.439 70.2895 12.6654 70.2895 12.8919 70.2895C13.1184 70.2895 13.3449 70.517 13.5714 70.7445C13.7978 70.7445 13.7978 70.9719 13.5714 71.1994C13.5714 71.1994 13.3449 71.4269 13.1184 71.1994C12.4389 70.9719 11.7595 70.7445 11.3065 70.062C11.7595 70.062 11.986 70.062 12.2125 70.062ZM14.0243 72.1093V72.3368C13.5714 72.5643 13.3449 72.1093 12.8919 72.1093C12.439 72.1093 12.2125 72.1093 11.7595 72.1093C11.7595 71.8818 11.533 71.4269 11.533 71.1994C12.4389 71.1994 13.3449 71.4269 14.0243 72.1093Z" fill="#DCC34F" fill-opacity="0.5"/>
</svg>
