<svg width="100" height="100" viewBox="0 0 100 100" fill="none" xmlns="http://www.w3.org/2000/svg">
<path d="M57.8068 84.0363L26.4661 87.127C24.2855 87.342 22.3435 85.7487 22.1285 83.568L17.3331 34.9427C17.1371 32.9537 18.5905 31.182 20.5795 30.986L51.9201 27.8953C54.1008 27.6803 56.0428 29.2737 56.2578 31.4543L61.0531 80.0797C61.2495 82.0687 59.7961 83.8403 57.8068 84.0363Z" fill="#F5D955"/>
<path d="M26.0747 88.4804C23.3834 88.4804 21.072 86.432 20.8014 83.699L16.007 35.073C15.8767 33.7567 16.2674 32.469 17.106 31.4467C17.9447 30.4233 19.132 29.789 20.4484 29.659L51.7894 26.569C53.197 26.4257 54.577 26.8477 55.672 27.7447C56.767 28.643 57.4454 29.914 57.5847 31.324L62.3804 79.9477C62.6474 82.6663 60.6537 85.0947 57.9377 85.363L26.5977 88.454C26.4224 88.4713 26.2467 88.4804 26.0747 88.4804ZM52.3157 29.2097C52.2284 29.2097 52.14 29.2137 52.0514 29.2227L20.7104 32.3127C20.1037 32.3727 19.5554 32.6657 19.1687 33.1383C18.7807 33.6097 18.601 34.2047 18.661 34.8117L23.4554 83.438C23.5987 84.8833 24.8877 85.9483 26.337 85.8013L57.6757 82.7103C58.931 82.5867 59.85 81.4643 59.7277 80.2103L54.9314 31.586C54.8624 30.8853 54.525 30.254 53.9807 29.8073C53.5057 29.4167 52.9224 29.2097 52.3157 29.2097Z" fill="#1D2C53"/>
<path d="M62.3583 83.0327L30.909 81.3813C28.7206 81.2663 27.04 79.3993 27.155 77.2113L29.7166 28.4173C29.8213 26.4213 31.5243 24.8883 33.5203 24.993L64.9697 26.6443C67.158 26.7593 68.8387 28.6263 68.7237 30.8143L66.162 79.6083C66.0573 81.6043 64.3543 83.1373 62.3583 83.0327Z" fill="#F5D955"/>
<path d="M62.5551 84.371C62.4664 84.371 62.3781 84.3683 62.2881 84.3643L30.8387 82.7133C29.4247 82.639 28.1237 82.018 27.1774 80.966C26.2294 79.914 25.7491 78.5547 25.8234 77.1403L28.3847 28.346C28.5294 25.6193 30.9004 23.5387 33.5904 23.661L65.0411 25.312C66.4537 25.3863 67.7547 26.0073 68.7024 27.0593C69.6491 28.1113 70.1294 29.4693 70.0564 30.8837L67.4937 79.678C67.4247 80.9983 66.8454 82.213 65.8621 83.0987C64.9444 83.9243 63.7791 84.371 62.5551 84.371ZM33.3287 26.3217C32.1231 26.3217 31.1127 27.2697 31.0487 28.487L28.4874 77.2813C28.4497 77.9843 28.6881 78.659 29.1594 79.1823C29.6294 79.7043 30.2767 80.013 30.9797 80.0497L62.4291 81.7007C63.0294 81.737 63.6231 81.5273 64.0774 81.1173C64.5317 80.7097 64.7987 80.1487 64.8301 79.5393L67.3927 30.7437C67.4694 29.2943 66.3511 28.0523 64.9004 27.9767L33.4497 26.3257C33.4094 26.323 33.3691 26.3217 33.3287 26.3217Z" fill="#1D2C53"/>
<path d="M65.1004 81.2837L34.2018 75.1957C32.0518 74.772 30.6524 72.686 31.0761 70.536L40.5214 22.5963C40.9078 20.6353 42.8108 19.3587 44.7718 19.745L75.6704 25.833C77.8204 26.2567 79.2198 28.3427 78.7961 30.4927L69.3508 78.4323C68.9644 80.3933 67.0614 81.67 65.1004 81.2837Z" fill="#F5D955"/>
<path d="M65.8027 82.6863C65.4864 82.6863 65.1647 82.655 64.843 82.5927L33.9447 76.504C31.0774 75.939 29.2037 73.1473 29.7677 70.2787L39.213 22.3387C39.7417 19.6617 42.3577 17.9143 45.028 18.4363L75.929 24.525C77.3184 24.7983 78.5177 25.5967 79.3067 26.7723C80.0957 27.948 80.3784 29.361 80.105 30.7503L70.6597 78.6903C70.1944 81.0483 68.1177 82.6863 65.8027 82.6863ZM44.072 21.0103C43.003 21.0103 42.0434 21.7657 41.8297 22.854L32.3844 70.794C32.103 72.2183 33.034 73.6067 34.46 73.8863L65.3584 79.975C66.5954 80.221 67.797 79.4113 68.042 78.1743L77.4874 30.2343C77.624 29.5443 77.4834 28.8423 77.0914 28.2577C76.6994 27.6743 76.103 27.2773 75.413 27.1417L44.5134 21.0533C44.365 21.0233 44.218 21.0103 44.072 21.0103Z" fill="#1D2C53"/>
<path d="M65.526 88.114L37.2604 74.227C35.2937 73.2607 34.4827 70.883 35.449 68.9163L56.9947 25.062C57.876 23.268 60.0447 22.5283 61.8387 23.4097L90.1044 37.2967C92.071 38.263 92.882 40.6407 91.9157 42.6073L70.37 86.4617C69.4887 88.2557 67.32 88.9953 65.526 88.114Z" fill="white"/>
<path d="M67.1161 89.8217C66.3701 89.8217 65.6278 89.6497 64.9378 89.3113L36.6721 75.4233C35.4014 74.7997 34.4494 73.7177 33.9924 72.3777C33.5354 71.0377 33.6264 69.599 34.2514 68.3283L55.7971 24.4743C57.0014 22.0227 59.9714 21.012 62.4274 22.214L90.6931 36.1007C91.9628 36.7243 92.9144 37.8063 93.3714 39.1463C93.8284 40.4873 93.7374 41.925 93.1124 43.1957L71.5668 87.051C70.9834 88.2373 69.9731 89.1267 68.7204 89.5537C68.1954 89.7317 67.6551 89.8217 67.1161 89.8217ZM60.2438 24.371C59.9964 24.371 59.7464 24.4127 59.5041 24.4947C58.9261 24.6913 58.4598 25.1027 58.1904 25.651L36.6448 69.505C36.3348 70.1353 36.2894 70.85 36.5158 71.5153C36.7438 72.182 37.2164 72.7197 37.8478 73.0297L66.1148 86.9177C66.6618 87.1873 67.2814 87.2237 67.8594 87.0297C68.4374 86.8317 68.9038 86.4217 69.1731 85.8733L90.7188 42.018C91.0288 41.3877 91.0741 40.673 90.8478 40.0077C90.6198 39.341 90.1471 38.8033 89.5158 38.4933L61.2501 24.6067C60.9324 24.4507 60.5888 24.371 60.2438 24.371Z" fill="#1D2C53"/>
<path d="M58.2451 66.5197C58.0485 66.5197 57.8481 66.4753 57.6591 66.383C56.9978 66.0587 56.7255 65.2593 57.0498 64.599L60.2398 58.103C60.5641 57.4417 61.3608 57.168 62.0238 57.4937C62.6851 57.818 62.9575 58.6173 62.6331 59.2777L59.4431 65.7737C59.2111 66.246 58.7371 66.5197 58.2451 66.5197Z" fill="#1D2C53"/>
<path d="M67.2459 46.562C67.2459 46.562 55.5832 50.9117 54.5072 53.1013C53.4312 55.2913 54.4679 58.0043 56.8222 59.161C58.2232 59.8493 59.7685 59.8177 61.0225 59.2287C61.3229 60.581 62.2422 61.8237 63.6432 62.512C65.9975 63.6687 68.7786 62.8313 69.8542 60.6413C70.9302 58.4517 67.2459 46.562 67.2459 46.562Z" fill="#1D2C53"/>
<path d="M65.8548 64.3673C64.9005 64.3673 63.9448 64.146 63.0555 63.7083C61.7951 63.09 60.8028 62.099 60.2065 60.892C58.8848 61.159 57.4981 60.9793 56.2351 60.358C53.2248 58.8777 51.9135 55.3593 53.3108 52.5143C54.4945 50.1067 63.1245 46.677 66.7808 45.3137C67.1258 45.1833 67.5075 45.203 67.8355 45.3657C68.1635 45.527 68.4121 45.8173 68.5205 46.1677C69.6755 49.8943 72.2341 58.8227 71.0518 61.229C70.3668 62.625 69.1455 63.647 67.6145 64.108C67.0398 64.2813 66.4471 64.3673 65.8548 64.3673ZM61.0228 57.896C61.2245 57.896 61.4251 57.9417 61.6101 58.0327C61.9735 58.211 62.2365 58.5443 62.3251 58.9403C62.5531 59.9663 63.2485 60.8323 64.2315 61.3153C65.0661 61.7253 65.9958 61.8127 66.8448 61.555C67.6598 61.3103 68.3031 60.7763 68.6585 60.0537C69.0751 58.9807 67.8708 53.3857 66.3838 48.3193C61.4645 50.2387 56.2991 52.706 55.6975 53.702C54.9541 55.2163 55.7195 57.1343 57.4111 57.965C58.3941 58.448 59.5061 58.4677 60.4568 58.0223C60.6361 57.9373 60.8288 57.896 61.0228 57.896Z" fill="#1D2C53"/>
<path d="M57.4024 38.6913C57.2057 38.6913 57.0054 38.647 56.8151 38.5547C56.1551 38.2303 55.8827 37.431 56.2071 36.7697L60.0364 28.9753C60.3607 28.3153 61.1537 28.0417 61.8214 28.3673C62.4814 28.6917 62.7537 29.491 62.4294 30.1523L58.6001 37.9467C58.3687 38.418 57.8947 38.6913 57.4024 38.6913Z" fill="#1D2C53"/>
<path d="M58.7373 35.9753C58.0666 35.9753 57.4886 35.4713 57.4129 34.789C57.3323 34.0573 57.8596 33.397 58.5913 33.3163L63.7073 32.75C64.4676 32.677 65.0993 33.1967 65.1799 33.9283C65.2606 34.66 64.7333 35.3203 64.0016 35.401L58.8856 35.9673C58.8349 35.9727 58.7856 35.9753 58.7373 35.9753Z" fill="#1D2C53"/>
<path d="M61.3011 40.6053C60.7541 40.6053 60.2411 40.2667 60.0457 39.7213L58.0054 34.0273C57.7567 33.3347 58.1174 32.5717 58.8114 32.323C59.5014 32.0743 60.2657 32.4337 60.5157 33.129L62.5561 38.823C62.8047 39.5157 62.4441 40.2787 61.7501 40.5273C61.6017 40.5807 61.4507 40.6053 61.3011 40.6053Z" fill="#1D2C53"/>
<path d="M13.675 24.6667C11.102 24.6667 9.0083 22.573 9.0083 20C9.0083 17.427 11.102 15.3333 13.675 15.3333C16.248 15.3333 18.3416 17.427 18.3416 20C18.3416 22.573 16.248 24.6667 13.675 24.6667ZM13.675 18C12.572 18 11.675 18.897 11.675 20C11.675 21.103 12.572 22 13.675 22C14.778 22 15.675 21.103 15.675 20C15.675 18.897 14.7776 18 13.675 18Z" fill="#F5D955"/>
<path d="M81.2257 85.116C80.8847 85.116 80.5434 84.9857 80.2831 84.7253C79.7624 84.2047 79.7624 83.3607 80.2831 82.84L85.1814 77.9417C85.7021 77.421 86.5461 77.421 87.0667 77.9417C87.5874 78.4623 87.5874 79.3063 87.0667 79.827L82.1684 84.7253C81.9081 84.9857 81.5671 85.116 81.2257 85.116Z" fill="#F5D955"/>
<path d="M86.1241 85.116C85.7831 85.116 85.4417 84.9857 85.1814 84.7253L80.2831 79.827C79.7624 79.3063 79.7624 78.4623 80.2831 77.9417C80.8037 77.421 81.6477 77.421 82.1684 77.9417L87.0667 82.84C87.5874 83.3607 87.5874 84.2047 87.0667 84.7253C86.8064 84.9857 86.4654 85.116 86.1241 85.116Z" fill="#F5D955"/>
<path d="M20.0604 62.2423L29.8568 63.0847C30.4528 63.136 31.0114 63.397 31.4334 63.821L41.7531 74.198C42.6081 75.058 42.7328 76.4037 42.0498 77.406L34.2204 88.895C33.7481 89.588 32.9628 90.002 32.1241 90L21.5571 89.974C20.8197 89.9723 20.1201 89.6487 19.6408 89.0883L10.0821 77.909C9.34008 77.0413 9.27142 75.7843 9.91442 74.841L17.7534 63.338C18.2681 62.5827 19.1501 62.164 20.0604 62.2423Z" fill="#F5D955"/>
<path d="M32.132 91.3333C32.128 91.3333 32.1244 91.3333 32.1204 91.3333L21.554 91.3073C20.429 91.3047 19.3614 90.8127 18.6284 89.9557L9.0697 78.7747C7.93803 77.453 7.8327 75.5273 8.81303 74.0897L16.6517 62.587C17.438 61.436 18.7754 60.781 20.175 60.9137L29.972 61.756C30.8784 61.8327 31.7324 62.2327 32.3784 62.8797L42.6987 73.2573C44.002 74.5687 44.192 76.6283 43.153 78.1557L35.3224 89.6453C34.602 90.703 33.4107 91.3333 32.132 91.3333ZM19.8444 63.5663C19.451 63.5663 19.0787 63.7617 18.8547 64.0897L11.016 75.5923C10.7127 76.0363 10.7454 76.6327 11.0954 77.0417L20.654 88.2227C20.882 88.487 21.2114 88.6407 21.5604 88.6407L32.128 88.6667H32.1307C32.5267 88.6667 32.895 88.4713 33.119 88.1447L40.9484 76.655C41.27 76.1823 41.2114 75.5443 40.8077 75.138L30.4887 64.7617C30.288 64.561 30.0237 64.4373 29.744 64.4127L19.9457 63.5703C19.912 63.5677 19.878 63.5663 19.8444 63.5663Z" fill="#1D2C53"/>
<path d="M21.2713 90.2877C21.0123 90.2877 20.7516 90.212 20.5213 90.056C19.9133 89.642 19.7556 88.8127 20.1709 88.203L28.5823 75.8593L17.2319 63.5717C16.7319 63.03 16.7659 62.1877 17.3063 61.6877C17.8453 61.1877 18.6889 61.2203 19.1903 61.762L31.2606 74.8283C31.6826 75.284 31.7333 75.9717 31.3829 76.4847L22.3739 89.706C22.1163 90.0833 21.6969 90.2877 21.2713 90.2877Z" fill="#1D2C53"/>
<path d="M41.9705 77.5287C41.9522 77.5287 41.9342 77.5287 41.9172 77.5273L30.2299 77.065C29.4929 77.0363 28.9199 76.4167 28.9499 75.681C28.9799 74.944 29.6569 74.371 30.3339 74.401L42.0212 74.8633C42.7582 74.892 43.3312 75.5117 43.3012 76.2473C43.2725 76.966 42.6825 77.5287 41.9705 77.5287Z" fill="#1D2C53"/>
<path d="M18.3419 71.0807C18.9387 71.0807 19.4226 70.5968 19.4226 70C19.4226 69.4032 18.9387 68.9193 18.3419 68.9193C17.7451 68.9193 17.2612 69.4032 17.2612 70C17.2612 70.5968 17.7451 71.0807 18.3419 71.0807Z" fill="#1D2C53"/>
<path d="M31.3533 70.3517C31.6721 70.0328 31.5294 69.3731 31.0344 68.8781C30.5394 68.3831 29.8797 68.2403 29.5608 68.5592C29.2419 68.8781 29.3847 69.5379 29.8796 70.0328C30.3746 70.5278 31.0344 70.6706 31.3533 70.3517Z" fill="#1D2C53"/>
<path d="M19.0085 77.0163C19.5698 77.0163 20.0249 76.5613 20.0249 76C20.0249 75.4387 19.5698 74.9837 19.0085 74.9837C18.4472 74.9837 17.9922 75.4387 17.9922 76C17.9922 76.5613 18.4472 77.0163 19.0085 77.0163Z" fill="#1D2C53"/>
<path d="M35.0085 81.0163C35.5698 81.0163 36.0249 80.5613 36.0249 80C36.0249 79.4387 35.5698 78.9837 35.0085 78.9837C34.4472 78.9837 33.9922 79.4387 33.9922 80C33.9922 80.5613 34.4472 81.0163 35.0085 81.0163Z" fill="#1D2C53"/>
<path d="M29.675 86.3497C30.2363 86.3497 30.6914 85.8946 30.6914 85.3333C30.6914 84.772 30.2363 84.317 29.675 84.317C29.1137 84.317 28.6587 84.772 28.6587 85.3333C28.6587 85.8946 29.1137 86.3497 29.675 86.3497Z" fill="#1D2C53"/>
<path d="M19.6751 83.0897C20.2769 83.0897 20.7648 82.6018 20.7648 82C20.7648 81.3982 20.2769 80.9103 19.6751 80.9103C19.0733 80.9103 18.5854 81.3982 18.5854 82C18.5854 82.6018 19.0733 83.0897 19.6751 83.0897Z" fill="#1D2C53"/>
<path d="M9.67519 58.843C10.509 58.843 11.1849 58.1671 11.1849 57.3333C11.1849 56.4996 10.509 55.8237 9.67519 55.8237C8.84143 55.8237 8.16553 56.4996 8.16553 57.3333C8.16553 58.1671 8.84143 58.843 9.67519 58.843Z" fill="#F5D955"/>
<path d="M27.0082 16.1763C27.842 16.1763 28.5179 15.5004 28.5179 14.6667C28.5179 13.8329 27.842 13.157 27.0082 13.157C26.1744 13.157 25.4985 13.8329 25.4985 14.6667C25.4985 15.5004 26.1744 16.1763 27.0082 16.1763Z" fill="#F5D955"/>
</svg>
