<svg width="100" height="100" viewBox="0 0 100 100" fill="none" xmlns="http://www.w3.org/2000/svg">
<path d="M16.7702 21.5783C14.1972 21.5783 12.1035 19.4847 12.1035 16.9117C12.1035 14.3387 14.1972 12.245 16.7702 12.245C19.3432 12.245 21.4368 14.3387 21.4368 16.9117C21.4368 19.4847 19.3432 21.5783 16.7702 21.5783ZM16.7702 14.9117C15.6672 14.9117 14.7702 15.8087 14.7702 16.9117C14.7702 18.0147 15.6672 18.9117 16.7702 18.9117C17.8732 18.9117 18.7702 18.0147 18.7702 16.9117C18.7702 15.8087 17.8732 14.9117 16.7702 14.9117Z" fill="#F5D955"/>
<path d="M78.1037 86.9117C75.5307 86.9117 73.437 84.818 73.437 82.245C73.437 79.672 75.5307 77.5783 78.1037 77.5783C80.6767 77.5783 82.7703 79.672 82.7703 82.245C82.7703 84.818 80.6767 86.9117 78.1037 86.9117ZM78.1037 80.245C77.0007 80.245 76.1037 81.142 76.1037 82.245C76.1037 83.348 77.0007 84.245 78.1037 84.245C79.2067 84.245 80.1037 83.348 80.1037 82.245C80.1037 81.142 79.2067 80.245 78.1037 80.245Z" fill="#F5D955"/>
<path d="M85.8863 20.0277C85.5453 20.0277 85.204 19.8973 84.9436 19.637L80.0453 14.7387C79.5246 14.218 79.5246 13.374 80.0453 12.8533C80.566 12.3327 81.41 12.3327 81.9306 12.8533L86.829 17.7517C87.3496 18.2723 87.3496 19.1163 86.829 19.637C86.5686 19.8973 86.2273 20.0277 85.8863 20.0277Z" fill="#F5D955"/>
<path d="M80.988 20.0277C80.647 20.0277 80.3056 19.8973 80.0453 19.637C79.5246 19.1163 79.5246 18.2723 80.0453 17.7517L84.9436 12.8533C85.4643 12.3327 86.3083 12.3327 86.829 12.8533C87.3496 13.374 87.3496 14.218 86.829 14.7387L81.9306 19.637C81.67 19.8973 81.329 20.0277 80.988 20.0277Z" fill="#F5D955"/>
<path d="M21.8863 82.6943C21.5453 82.6943 21.204 82.564 20.9436 82.3037L16.0453 77.4053C15.5246 76.8847 15.5246 76.0407 16.0453 75.52C16.566 74.9993 17.41 74.9993 17.9306 75.52L22.829 80.4183C23.3496 80.939 23.3496 81.783 22.829 82.3037C22.5686 82.564 22.2273 82.6943 21.8863 82.6943Z" fill="#F5D955"/>
<path d="M16.988 82.6943C16.647 82.6943 16.3056 82.564 16.0453 82.3037C15.5246 81.783 15.5246 80.939 16.0453 80.4183L20.9436 75.52C21.4643 74.9993 22.3083 74.9993 22.829 75.52C23.3496 76.0407 23.3496 76.8847 22.829 77.4053L17.9306 82.3037C17.67 82.564 17.329 82.6943 16.988 82.6943Z" fill="#F5D955"/>
<path d="M32.7704 18.4213C33.6042 18.4213 34.2801 17.7454 34.2801 16.9117C34.2801 16.0779 33.6042 15.402 32.7704 15.402C31.9366 15.402 31.2607 16.0779 31.2607 16.9117C31.2607 17.7454 31.9366 18.4213 32.7704 18.4213Z" fill="#F5D955"/>
<path d="M14.77 40.245V53.5783H17.8584L18.5794 51.4853C19.3874 49.4853 21.3434 48.174 23.5187 48.174H27.1227C27.1227 48.174 18.8877 58.3667 18.8877 69.5783H33.2994C33.2994 69.5783 28.1037 54.9117 38.7704 41.5783L37.9317 39.5103L35.5844 40.8013C34.1047 41.6153 32.3904 41.9083 30.7207 41.6327L25.4367 40.2447L14.77 40.245Z" fill="#F5D955"/>
<path d="M33.2985 70.9117H18.8872C18.1502 70.9117 17.5539 70.3147 17.5539 69.5783C17.5539 61.025 22.0422 53.1787 24.5122 49.5073H23.5189C21.8769 49.5073 20.4239 50.4793 19.8172 51.9847L19.1192 54.0127C18.9342 54.551 18.4279 54.9117 17.8589 54.9117H14.7699C14.0329 54.9117 13.4365 54.3147 13.4365 53.5783V40.245C13.4365 39.5087 14.0329 38.9117 14.7699 38.9117H25.4365C25.5512 38.9117 25.6645 38.9267 25.7752 38.9553L31.0592 40.3433C32.3092 40.544 33.7285 40.2997 34.9409 39.6337L37.2899 38.342C37.6219 38.1583 38.0202 38.1267 38.3785 38.254C38.7369 38.3813 39.0245 38.6563 39.1675 39.0093L40.0062 41.077C40.1872 41.5243 40.1129 42.0347 39.8122 42.411C29.7589 54.9767 34.5075 68.995 34.5569 69.135C34.7002 69.5433 34.6362 69.9957 34.3862 70.3487C34.1362 70.7017 33.7309 70.9117 33.2985 70.9117ZM20.2609 68.245H31.5355C30.4912 63.9027 28.8715 52.3947 37.1852 41.4423L36.2255 41.9703C34.4912 42.924 32.4585 43.2687 30.5029 42.949L25.2645 41.5787H16.1032V52.2453H16.9079L17.3192 51.0513C18.3595 48.468 20.7842 46.841 23.5185 46.841H27.1225C27.6355 46.841 28.1029 47.136 28.3255 47.5993C28.5469 48.0623 28.4819 48.6117 28.1602 49.0113C28.0839 49.1057 20.8689 58.1717 20.2609 68.245Z" fill="#1D2C53"/>
<path d="M54.1034 87.7547C54.9372 87.7547 55.6131 87.0788 55.6131 86.245C55.6131 85.4112 54.9372 84.7353 54.1034 84.7353C53.2696 84.7353 52.5938 85.4112 52.5938 86.245C52.5938 87.0788 53.2696 87.7547 54.1034 87.7547Z" fill="#F5D955"/>
<path d="M88.7699 30.4213C89.6037 30.4213 90.2796 29.7454 90.2796 28.9117C90.2796 28.0779 89.6037 27.402 88.7699 27.402C87.9362 27.402 87.2603 28.0779 87.2603 28.9117C87.2603 29.7454 87.9362 30.4213 88.7699 30.4213Z" fill="#F5D955"/>
<path d="M30.77 30.814V50.9117H35.6784L36.8247 47.6483C38.1087 44.4253 41.218 42.312 44.6754 42.312H50.4037C50.4037 42.312 37.437 59.5097 37.437 77.5783H60.1037C60.1037 77.5783 53.437 52.245 74.9454 35.7417L67.5827 28.35L63.852 30.4307C61.5004 31.7423 58.7754 32.2147 56.122 31.7707L52.88 31.2283C51.2317 30.9527 49.5637 30.814 47.8927 30.814H30.77Z" fill="#F5D955"/>
<path d="M60.1032 78.9117H37.4365C36.6995 78.9117 36.1032 78.3147 36.1032 77.5783C36.1032 62.8113 44.3662 48.8617 47.8429 43.6453H44.6749C41.7465 43.6453 39.1515 45.4103 38.0629 48.1413L36.9365 51.353C36.7492 51.8877 36.2452 52.245 35.6789 52.245H30.7699C30.0329 52.245 29.4365 51.648 29.4365 50.9117V30.814C29.4365 30.0777 30.0329 29.4807 30.7699 29.4807H47.8922C49.6319 29.4807 51.3832 29.626 53.0992 29.913L56.3415 30.456C58.6879 30.8493 61.1229 30.4253 63.2022 29.266L66.9325 27.1853C67.4545 26.8943 68.1032 26.9853 68.5275 27.4093L75.8895 34.8013C76.1592 35.0727 76.2995 35.4477 76.2749 35.8307C76.2489 36.2133 76.0599 36.5663 75.7552 36.8C55.2319 52.5487 61.3282 76.9953 61.3932 77.2407C61.4972 77.6403 61.4102 78.0663 61.1575 78.393C60.9049 78.7197 60.5162 78.9117 60.1032 78.9117ZM38.7945 76.245H58.4742C57.4545 70.325 55.4809 49.9683 72.9469 35.6253L67.3505 30.0063L64.5015 31.5957C61.8935 33.0487 58.8375 33.5773 55.9012 33.0867L52.6589 32.5437C51.0885 32.2813 49.4845 32.1477 47.8919 32.1477H32.1032V49.5787H34.7335L35.5669 47.207C37.0812 43.403 40.6475 40.979 44.6749 40.979H50.4029C50.9082 40.979 51.3702 41.2647 51.5955 41.7173C51.8222 42.1697 51.7712 42.7107 51.4679 43.1143C51.3442 43.279 39.4052 59.3277 38.7945 76.245Z" fill="#1D2C53"/>
<path d="M61.4365 40.245V53.5783H64.5249L65.2459 51.4853C66.0539 49.4853 68.0099 48.174 70.1852 48.174H73.7892C73.7892 48.174 65.5542 58.3667 65.5542 69.5783H79.9655C79.9655 69.5783 74.7699 53.5783 89.2302 44.097L84.5979 39.5103L82.2505 40.8013C80.7709 41.6153 79.0565 41.9083 77.3869 41.6327L72.1029 40.2447L61.4365 40.245Z" fill="#F5D955"/>
<path d="M79.9652 70.9117H65.5538C64.8168 70.9117 64.2205 70.3147 64.2205 69.5783C64.2205 61.025 68.7088 53.1787 71.1788 49.5073H70.1855C68.5435 49.5073 67.0905 50.4793 66.4838 51.9847L65.7858 54.0127C65.6008 54.551 65.0945 54.9117 64.5255 54.9117H61.4368C60.6998 54.9117 60.1035 54.3147 60.1035 53.5783V40.245C60.1035 39.5087 60.6998 38.9117 61.4368 38.9117H72.1035C72.2182 38.9117 72.3315 38.9267 72.4422 38.9553L77.7262 40.3433C78.9735 40.544 80.3955 40.2997 81.6078 39.6337L83.9568 38.342C84.4725 38.0587 85.1168 38.1453 85.5375 38.5633L90.1692 43.15C90.4542 43.4333 90.5975 43.8303 90.5572 44.2307C90.5168 44.631 90.2982 44.9917 89.9608 45.2123C76.5092 54.0327 81.1848 69.0163 81.2342 69.1667C81.3658 69.5723 81.2955 70.017 81.0442 70.362C80.7935 70.7073 80.3922 70.9117 79.9652 70.9117ZM66.9275 68.245H78.2765C77.4082 63.8243 76.3222 51.9723 87.1555 43.9193L84.3678 41.159L82.8925 41.9703C81.1595 42.924 79.1255 43.2687 77.1698 42.949L71.9315 41.5787H62.7698V52.2453H63.5745L63.9858 51.0513C65.0262 48.468 67.4508 46.841 70.1852 46.841H73.7892C74.3022 46.841 74.7695 47.136 74.9922 47.5993C75.2135 48.0623 75.1485 48.6117 74.8268 49.0113C74.7505 49.1057 67.5355 58.1717 66.9275 68.245Z" fill="#1D2C53"/>
</svg>
