<svg width="100" height="100" viewBox="0 0 100 100" fill="none" xmlns="http://www.w3.org/2000/svg">
<path d="M10 63.712C10 59.1153 19.8497 55.389 32 55.389C44.1503 55.389 54 59.1153 54 63.712V80.344C54 84.9403 44.1503 88.6667 32 88.6667C19.8497 88.6667 10 84.9403 10 80.3437V63.712Z" fill="#A9BA5A"/>
<path d="M31.9998 90C20.6885 90 8.6665 86.616 8.6665 80.3437V63.7117C8.6665 57.4397 20.6885 54.0553 31.9998 54.0553C43.3112 54.0553 55.3332 57.4393 55.3332 63.7117V80.3437C55.3332 86.616 43.3112 90 31.9998 90ZM31.9998 56.722C20.1718 56.722 11.3332 60.412 11.3332 63.7117V80.3437C11.3332 83.6433 20.1718 87.3333 31.9998 87.3333C43.8278 87.3333 52.6665 83.6433 52.6665 80.3437V63.7117C52.6665 60.412 43.8278 56.722 31.9998 56.722Z" fill="#1D2C53"/>
<path d="M54 63.712C54 68.3087 44.1503 72.035 32 72.035C19.8497 72.035 10 68.3087 10 63.712" fill="#A9BA5A"/>
<path d="M31.9998 73.368C20.6885 73.368 8.6665 69.984 8.6665 63.7117C8.6665 62.9753 9.26284 62.3783 9.99984 62.3783C10.7368 62.3783 11.3332 62.9753 11.3332 63.7117C11.3332 67.011 20.1718 70.7013 31.9998 70.7013C43.8278 70.7013 52.6665 67.0113 52.6665 63.7117C52.6665 62.9753 53.2628 62.3783 53.9998 62.3783C54.7368 62.3783 55.3332 62.9753 55.3332 63.7117C55.3332 69.9837 43.3112 73.368 31.9998 73.368Z" fill="#1D2C53"/>
<path d="M32.1665 84.737C18.7695 84.737 8.6665 80.435 8.6665 74.73C8.6665 73.9937 9.26284 73.3967 9.99984 73.3967C10.7368 73.3967 11.3332 73.9937 11.3332 74.73C11.3332 78.202 19.8892 82.0703 32.1665 82.0703C44.4438 82.0703 52.9998 78.202 52.9998 74.73C52.9998 73.9937 53.5962 73.3967 54.3332 73.3967C55.0702 73.3967 55.6665 73.9937 55.6665 74.73C55.6665 80.435 45.5635 84.737 32.1665 84.737Z" fill="#1D2C53"/>
<path d="M32.1665 79.4037C18.7695 79.4037 8.6665 75.1017 8.6665 69.3967C8.6665 68.6603 9.26284 68.0633 9.99984 68.0633C10.7368 68.0633 11.3332 68.6603 11.3332 69.3967C11.3332 72.8687 19.8892 76.737 32.1665 76.737C44.4438 76.737 52.9998 72.8687 52.9998 69.3967C52.9998 68.6603 53.5962 68.0633 54.3332 68.0633C55.0702 68.0633 55.6665 68.6603 55.6665 69.3967C55.6665 75.1017 45.5635 79.4037 32.1665 79.4037Z" fill="#1D2C53"/>
<path d="M32.1665 74.0703C31.5298 74.0703 30.9048 74.0533 30.2825 74.0333C29.8802 74.0203 29.5038 73.8257 29.2618 73.504C29.0185 73.1823 28.9338 72.7683 29.0325 72.377L30.7462 65.523C30.8958 64.9253 31.4818 64.521 32.0508 64.5133L32.4882 64.5187C34.0352 64.5187 35.5638 64.4177 36.9062 64.227C37.1745 64.19 37.4478 64.233 37.6902 64.3547L47.5912 69.3053C48.0692 69.545 48.3595 70.047 48.3255 70.5807C48.2928 71.1147 47.9428 71.5773 47.4388 71.755C43.2095 73.248 37.7848 74.0703 32.1665 74.0703ZM32.0245 71.4037H32.1665C36.1508 71.4037 40.0142 70.9733 43.3632 70.172L36.8645 66.9233C35.6822 67.0723 34.3918 67.1603 33.0795 67.1803L32.0245 71.4037Z" fill="#1D2C53"/>
<path d="M26.8711 65.3787L15.0234 69.5603C18.7231 71.3247 24.1684 72.5017 30.3248 72.7007L32.0384 65.8463C30.1048 65.823 28.3274 65.6533 26.8711 65.3787Z" fill="#F5D955"/>
<path d="M30.3257 74.034C30.3113 74.034 30.297 74.034 30.2827 74.0333C24.073 73.8327 18.4493 72.672 14.4493 70.7643C13.9623 70.532 13.6643 70.0287 13.6917 69.4903C13.7203 68.9513 14.0707 68.4833 14.5797 68.3033L26.4273 64.1217C26.6473 64.0437 26.8883 64.0253 27.1173 64.0683C28.5483 64.338 30.2553 64.4917 32.0547 64.513C32.4637 64.5183 32.8463 64.709 33.095 65.032C33.3437 65.355 33.431 65.7743 33.332 66.17L31.6183 73.024C31.47 73.619 30.9363 74.034 30.3257 74.034ZM18.8853 69.6113C21.8723 70.5247 25.479 71.123 29.2953 71.3223L30.3447 67.1223C29.1493 67.0547 28.0113 66.9297 26.9827 66.7533L18.8853 69.6113Z" fill="#1D2C53"/>
<path d="M54.2734 65.804C54.2527 65.804 54.2317 65.8033 54.2107 65.802L41.729 65.145C41.2667 65.121 40.8514 64.8593 40.6287 64.453C40.4984 64.2127 40.4464 63.9427 40.4724 63.679C40.096 63.4597 39.2224 63.1027 37.5647 62.8163C36.967 62.7133 36.5154 62.2207 36.463 61.617C36.4107 61.0133 36.7717 60.4503 37.3434 60.2467L47.3707 56.666C47.6714 56.5573 48.0047 56.5623 48.303 56.6797C53.0517 58.5333 55.6664 61.155 55.6664 64.063C55.6664 64.2257 55.6457 64.3873 55.618 64.548C55.5404 65.2273 54.9517 65.804 54.2734 65.804ZM43.0207 62.543L52.7447 63.0547C52.1274 61.739 50.3764 60.423 47.7904 59.3477L41.9257 61.442C42.4454 61.765 42.81 62.131 43.0207 62.543Z" fill="#1D2C53"/>
<path d="M54.2811 64.471L41.7994 63.814C41.3724 64.5593 39.5887 65.1923 37.0938 65.5467L46.9951 70.4973C51.2484 68.9953 53.9961 66.862 54.2811 64.471Z" fill="#F5D955"/>
<path d="M46.9945 71.8307C46.7901 71.8307 46.5855 71.783 46.3981 71.69L36.4971 66.7393C35.9751 66.4783 35.6835 65.9087 35.7771 65.3323C35.8708 64.7567 36.3278 64.309 36.9061 64.2263C39.5091 63.8567 40.5065 63.294 40.6705 63.1083C40.9218 62.6713 41.3815 62.46 41.8698 62.482L54.3515 63.139C54.7198 63.1587 55.0638 63.3297 55.3008 63.6117C55.5391 63.8943 55.6485 64.262 55.6055 64.6287C55.2645 67.4847 52.3645 70.0153 47.4388 71.7543C47.2941 71.8053 47.1445 71.8307 46.9945 71.8307ZM40.9361 65.9773L47.0768 69.0477C49.6041 68.0913 51.4465 66.9117 52.3488 65.7047L42.3475 65.178C41.9881 65.4753 41.5168 65.7423 40.9361 65.9773Z" fill="#1D2C53"/>
<path d="M29.4885 62.5483C29.2255 62.5483 28.9688 62.471 28.7488 62.3243L21.4221 57.4397C20.9728 57.1403 20.7488 56.5997 20.8545 56.0707C20.9585 55.5413 21.3728 55.1273 21.9028 55.0223C25.1345 54.381 28.5878 54.0563 32.1671 54.0563C33.1618 54.0563 34.1331 54.0897 35.0941 54.1383C35.5031 54.1587 35.8791 54.3663 36.1161 54.701C36.3518 55.0357 36.4208 55.4607 36.3035 55.8527L34.6148 61.483C34.4428 62.0573 33.9285 62.468 33.3101 62.4337C32.0835 62.4083 30.8048 62.4407 29.6018 62.5443C29.5638 62.547 29.5261 62.5483 29.4885 62.5483ZM25.7318 57.108L29.8438 59.8497C30.6641 59.7903 31.5038 59.7593 32.3478 59.756L33.2541 56.7357C30.7305 56.6797 28.1525 56.81 25.7318 57.108Z" fill="#1D2C53"/>
<path d="M15.0232 70.894C14.8265 70.894 14.6298 70.8503 14.4488 70.7643C9.6705 68.4843 8.6665 65.862 8.6665 64.063C8.6665 62.7113 9.24584 61.4053 10.3905 60.181C10.6745 59.8743 11.0872 59.724 11.5038 59.765L24.1745 61.0983C24.7605 61.1603 25.2372 61.599 25.3452 62.1783C25.4362 62.66 25.2552 63.1433 24.8895 63.448C25.3335 63.6367 26.0445 63.8667 27.1188 64.0683C27.7112 64.1803 28.1552 64.6757 28.2008 65.2773C28.2465 65.8783 27.8832 66.4357 27.3155 66.636L15.4678 70.8177C15.3228 70.8683 15.1732 70.894 15.0232 70.894ZM11.9308 62.4917C11.5338 63.0333 11.3332 63.56 11.3332 64.063C11.3332 65.4113 12.7015 66.8723 15.1105 68.1157L22.8708 65.376C22.1285 64.8643 21.7535 64.249 21.7355 63.523L11.9308 62.4917Z" fill="#1D2C53"/>
<path d="M37.7921 61.5027L47.8191 57.9217C44.4464 56.6057 39.9908 55.72 35.0261 55.469L33.3364 61.1C34.9794 61.137 36.5011 61.28 37.7921 61.5027Z" fill="#F5D955"/>
<path d="M37.7915 62.836C37.7158 62.836 37.6405 62.8293 37.5648 62.8163C36.3095 62.6003 34.8368 62.4673 33.3072 62.4323C32.8905 62.4233 32.5025 62.22 32.2588 61.8837C32.0142 61.547 31.9398 61.1153 32.0595 60.717L33.7482 55.0867C33.9252 54.4993 34.4605 54.1127 35.0932 54.138C40.1258 54.392 44.6935 55.2707 48.3028 56.6797C48.8212 56.882 49.1595 57.3847 49.1518 57.9413C49.1442 58.4973 48.7912 58.99 48.2665 59.1777L38.2392 62.7583C38.0948 62.81 37.9438 62.836 37.7915 62.836ZM35.1052 59.8463C36.0048 59.91 36.8695 60.006 37.6678 60.131L43.6092 58.0093C41.2992 57.4463 38.7082 57.0543 35.9998 56.864L35.1052 59.8463Z" fill="#1D2C53"/>
<path d="M29.4884 61.2147L22.1618 56.3303C17.1824 57.319 13.2988 59.0187 11.3638 61.091L24.0351 62.425C25.1348 61.858 27.0938 61.418 29.4884 61.2147Z" fill="#F5D955"/>
<path d="M24.0352 63.7577C23.9882 63.7577 23.9428 63.755 23.8958 63.7507L11.2252 62.4173C10.7225 62.364 10.2928 62.0313 10.1158 61.558C9.93884 61.0847 10.0442 60.5513 10.3892 60.1817C12.5115 57.907 16.6002 56.075 21.9022 55.022C22.2512 54.9537 22.6078 55.0253 22.9008 55.2207L30.2275 60.1053C30.6988 60.4197 30.9202 60.998 30.7795 61.5467C30.6375 62.0953 30.1648 62.4953 29.6012 62.5433C27.4385 62.7263 25.5855 63.1253 24.6455 63.6097C24.4558 63.7077 24.2475 63.7577 24.0352 63.7577ZM14.9195 60.1243L23.8048 61.0593C24.3738 60.8113 25.0732 60.5927 25.8752 60.4083L21.8855 57.7483C19.1162 58.3373 16.7255 59.159 14.9195 60.1243Z" fill="#1D2C53"/>
<path d="M32.4885 65.8517C37.6909 65.8517 41.9082 64.7855 41.9082 63.4703C41.9082 62.1551 37.6909 61.089 32.4885 61.089C27.2862 61.089 23.0688 62.1551 23.0688 63.4703C23.0688 64.7855 27.2862 65.8517 32.4885 65.8517Z" fill="#F5D955"/>
<path d="M32.4885 67.185C30.6928 67.185 21.7358 67.006 21.7358 63.4707C21.7358 59.935 30.6928 59.7557 32.4885 59.7557C34.2842 59.7557 43.2425 59.9347 43.2425 63.4707C43.2425 67.006 34.2842 67.185 32.4885 67.185ZM24.9208 63.4707C26.0835 63.9473 28.6995 64.5183 32.4885 64.5183C36.2788 64.5183 38.8948 63.9473 40.0575 63.4707C38.8948 62.994 36.2788 62.4223 32.4885 62.4223C28.6982 62.4223 26.0835 62.994 24.9208 63.4707Z" fill="#1D2C53"/>
<path d="M16.6665 70.2583V75.5917C20.1795 76.9377 24.8265 77.831 29.9998 78.0273V72.694C24.8265 72.4977 20.1795 71.6043 16.6665 70.2583Z" fill="#F5D955"/>
<path d="M29.9998 79.3607C29.9828 79.3607 29.9658 79.3607 29.9492 79.36C24.8138 79.1647 19.9272 78.269 16.1902 76.8367C15.6745 76.6393 15.3335 76.144 15.3335 75.592V70.2587C15.3335 69.82 15.5495 69.409 15.9115 69.1603C16.2735 68.9097 16.7358 68.857 17.1432 69.014C20.6158 70.3433 25.1992 71.1773 30.0508 71.3617C30.7668 71.389 31.3335 71.9777 31.3335 72.6943V78.0277C31.3335 78.3903 31.1865 78.7367 30.9245 78.988C30.6755 79.2273 30.3435 79.3607 29.9998 79.3607ZM17.9998 74.657C21.0038 75.687 24.7172 76.3713 28.6665 76.6243V73.963C24.7902 73.726 21.1015 73.09 17.9998 72.1277V74.657Z" fill="#1D2C53"/>
<path d="M16.6665 75.5917V80.925C20.1795 82.271 24.8265 83.1643 29.9998 83.3607V78.0273C24.8265 77.831 20.1795 76.9377 16.6665 75.5917Z" fill="#F5D955"/>
<path d="M29.9998 84.694C29.9828 84.694 29.9658 84.694 29.9492 84.6933C24.8138 84.498 19.9272 83.6023 16.1902 82.17C15.6745 81.9727 15.3335 81.4773 15.3335 80.9253V75.592C15.3335 75.1533 15.5495 74.7423 15.9115 74.4937C16.2735 74.2437 16.7358 74.1903 17.1432 74.3473C20.6158 75.6767 25.1992 76.5107 30.0508 76.695C30.7668 76.7223 31.3335 77.311 31.3335 78.0277V83.361C31.3335 83.7237 31.1865 84.07 30.9245 84.3213C30.6755 84.5607 30.3435 84.694 29.9998 84.694ZM17.9998 79.9903C21.0038 81.0203 24.7172 81.7047 28.6665 81.9577V79.2963C24.7902 79.0593 21.1015 78.4233 17.9998 77.461V79.9903Z" fill="#1D2C53"/>
<path d="M16.6665 80.925V86.2583C20.1795 87.6043 24.8265 88.4977 29.9998 88.694V83.3607C24.8265 83.1643 20.1795 82.271 16.6665 80.925Z" fill="#F5D955"/>
<path d="M29.9998 90.0273C29.9828 90.0273 29.9658 90.0273 29.9492 90.0267C24.8138 89.8313 19.9272 88.9357 16.1902 87.5033C15.6745 87.306 15.3335 86.8107 15.3335 86.2587V80.9253C15.3335 80.4867 15.5495 80.0757 15.9115 79.827C16.2735 79.5763 16.7358 79.5237 17.1432 79.6807C20.6158 81.01 25.1992 81.844 30.0508 82.0283C30.7668 82.0557 31.3335 82.6443 31.3335 83.361V88.6943C31.3335 89.057 31.1865 89.4033 30.9245 89.6547C30.6755 89.894 30.3435 90.0273 29.9998 90.0273ZM17.9998 85.3237C21.0038 86.3537 24.7172 87.038 28.6665 87.291V84.6297C24.7902 84.3927 21.1015 83.7567 17.9998 82.7943V85.3237Z" fill="#1D2C53"/>
<path d="M64.9658 76.6667H39.0335C36.2535 76.6667 33.9995 74.413 33.9995 71.6327V20.3673C33.9998 17.587 36.2535 15.3333 39.0338 15.3333H64.9662C67.7462 15.3333 69.9998 17.587 69.9998 20.3673V71.633C69.9998 74.413 67.7462 76.6667 64.9658 76.6667Z" fill="#F5D955"/>
<path d="M64.9658 78H39.0335C35.5232 78 32.6665 75.144 32.6665 71.6327V20.3673C32.6665 16.856 35.5232 14 39.0338 14H64.9662C68.4765 14 71.3332 16.856 71.3332 20.3673V71.633C71.3332 75.144 68.4765 78 64.9658 78ZM39.0338 16.6667C36.9932 16.6667 35.3332 18.3267 35.3332 20.3673V71.633C35.3332 73.6733 36.9932 75.3337 39.0338 75.3337H64.9662C67.0065 75.3337 68.6668 73.6737 68.6668 71.633V20.3673C68.6665 18.3267 67.0065 16.6667 64.9658 16.6667H39.0338Z" fill="#1D2C53"/>
<path d="M55.3335 22H48.6668C47.9298 22 47.3335 21.403 47.3335 20.6667C47.3335 19.9303 47.9298 19.3333 48.6668 19.3333H55.3335C56.0705 19.3333 56.6668 19.9303 56.6668 20.6667C56.6668 21.403 56.0705 22 55.3335 22Z" fill="#1D2C53"/>
<path d="M67.3333 79.3333V72.7637L53.4206 58.7437C51.376 56.736 51.146 53.5577 52.881 51.286C54.8756 48.6747 58.6903 48.2357 61.2456 50.3233L70 58.0167V44.6667H73.6003C76.9703 44.6667 80.2123 45.9597 82.6573 48.279L85.8976 51.353C88.5166 53.8377 90 57.2897 90 60.9V79.3333H67.3333Z" fill="#E7D1C4"/>
<path d="M90.0001 80.6667H67.3335C66.5965 80.6667 66.0001 80.0697 66.0001 79.3333V73.313L52.4741 59.6833C49.9768 57.2303 49.6901 53.2673 51.8205 50.477C53.0041 48.9283 54.7305 47.9497 56.6838 47.72C58.6498 47.4883 60.5665 48.0473 62.0901 49.291L68.6668 55.0697V44.6667C68.6668 43.9303 69.2631 43.3333 70.0001 43.3333H73.6005C77.3285 43.3333 80.8711 44.746 83.5758 47.312L86.8155 50.3857C89.6865 53.1097 91.3338 56.9417 91.3338 60.9V79.3333C91.3335 80.0697 90.7371 80.6667 90.0001 80.6667ZM68.6668 78H88.6668V60.8997C88.6668 57.67 87.3231 54.543 84.9795 52.3203L81.7398 49.2467C79.5328 47.153 76.6421 46 73.6005 46H71.3335V58.0163C71.3335 58.5397 71.0275 59.015 70.5495 59.2313C70.0728 59.4463 69.5145 59.3633 69.1198 59.0177L60.3658 51.325C59.4451 50.5743 58.2395 50.2227 56.9948 50.3693C55.7655 50.5133 54.6798 51.1263 53.9401 52.096C52.6238 53.8193 52.8021 56.2687 54.3555 57.7933L68.2798 71.8247C68.5271 72.0747 68.6665 72.4127 68.6665 72.764V78H68.6668Z" fill="#1D2C53"/>
<path d="M90.0001 91.3333H67.3138C66.5768 91.3333 65.9805 90.7363 65.9805 90V79.3333C65.9805 78.597 66.5768 78 67.3138 78H90.0001C90.7371 78 91.3335 78.597 91.3335 79.3333V90C91.3335 90.7363 90.7371 91.3333 90.0001 91.3333ZM68.6471 88.6667H88.6668V80.6667H68.6471V88.6667Z" fill="#1D2C53"/>
<path d="M81.3332 42C78.7602 42 76.6665 39.9063 76.6665 37.3333C76.6665 34.7603 78.7602 32.6667 81.3332 32.6667C83.9062 32.6667 85.9998 34.7603 85.9998 37.3333C85.9998 39.9063 83.9062 42 81.3332 42ZM81.3332 35.3333C80.2302 35.3333 79.3332 36.2303 79.3332 37.3333C79.3332 38.4363 80.2302 39.3333 81.3332 39.3333C82.4362 39.3333 83.3332 38.4363 83.3332 37.3333C83.3332 36.2303 82.4362 35.3333 81.3332 35.3333Z" fill="#F5D955"/>
<path d="M25.1161 35.116C24.7751 35.116 24.4338 34.9857 24.1734 34.7253L19.2748 29.8267C18.7541 29.306 18.7541 28.462 19.2748 27.9413C19.7954 27.4207 20.6394 27.4207 21.1601 27.9413L26.0588 32.84C26.5794 33.3607 26.5794 34.2047 26.0588 34.7253C25.7984 34.9857 25.4571 35.116 25.1161 35.116Z" fill="#F5D955"/>
<path d="M20.2174 35.116C19.8764 35.116 19.5351 34.9857 19.2748 34.7253C18.7541 34.2047 18.7541 33.3607 19.2748 32.84L24.1734 27.9413C24.6941 27.4207 25.5381 27.4207 26.0588 27.9413C26.5794 28.462 26.5794 29.306 26.0588 29.8267L21.1601 34.7253C20.8998 34.9857 20.5588 35.116 20.2174 35.116Z" fill="#F5D955"/>
<path d="M14.6669 16.1763C15.5007 16.1763 16.1766 15.5004 16.1766 14.6667C16.1766 13.8329 15.5007 13.157 14.6669 13.157C13.8331 13.157 13.1572 13.8329 13.1572 14.6667C13.1572 15.5004 13.8331 16.1763 14.6669 16.1763Z" fill="#F5D955"/>
<path d="M78.6669 17.5097C79.5007 17.5097 80.1766 16.8338 80.1766 16C80.1766 15.1662 79.5007 14.4903 78.6669 14.4903C77.8331 14.4903 77.1572 15.1662 77.1572 16C77.1572 16.8338 77.8331 17.5097 78.6669 17.5097Z" fill="#F5D955"/>
<path d="M13.3334 48.1763C14.1672 48.1763 14.8431 47.5004 14.8431 46.6667C14.8431 45.8329 14.1672 45.157 13.3334 45.157C12.4996 45.157 11.8237 45.8329 11.8237 46.6667C11.8237 47.5004 12.4996 48.1763 13.3334 48.1763Z" fill="#F5D955"/>
</svg>
