<svg width="100" height="100" viewBox="0 0 100 100" fill="none" xmlns="http://www.w3.org/2000/svg">
<path d="M14.6662 23.3333C12.0932 23.3333 9.99951 21.2397 9.99951 18.6667C9.99951 16.0937 12.0932 14 14.6662 14C17.2392 14 19.3328 16.0937 19.3328 18.6667C19.3328 21.2397 17.2392 23.3333 14.6662 23.3333ZM14.6662 16.6667C13.5632 16.6667 12.6662 17.5637 12.6662 18.6667C12.6662 19.7697 13.5632 20.6667 14.6662 20.6667C15.7692 20.6667 16.6662 19.7697 16.6662 18.6667C16.6662 17.5637 15.7692 16.6667 14.6662 16.6667Z" fill="#F5D955"/>
<path d="M85.3327 32.6667C82.7597 32.6667 80.666 30.573 80.666 28C80.666 25.427 82.7597 23.3333 85.3327 23.3333C87.9057 23.3333 89.9993 25.427 89.9993 28C89.9993 30.573 87.9057 32.6667 85.3327 32.6667ZM85.3327 26C84.2297 26 83.3327 26.897 83.3327 28C83.3327 29.103 84.2297 30 85.3327 30C86.4357 30 87.3327 29.103 87.3327 28C87.3327 26.897 86.4357 26 85.3327 26Z" fill="#F5D955"/>
<path d="M17.3329 38.843C18.1667 38.843 18.8426 38.1671 18.8426 37.3333C18.8426 36.4996 18.1667 35.8237 17.3329 35.8237C16.4991 35.8237 15.8232 36.4996 15.8232 37.3333C15.8232 38.1671 16.4991 38.843 17.3329 38.843Z" fill="#F5D955"/>
<path d="M79.9994 16.1763C80.8332 16.1763 81.5091 15.5004 81.5091 14.6667C81.5091 13.8329 80.8332 13.157 79.9994 13.157C79.1656 13.157 78.4897 13.8329 78.4897 14.6667C78.4897 15.5004 79.1656 16.1763 79.9994 16.1763Z" fill="#F5D955"/>
<path d="M59.5504 21.116C59.2094 21.116 58.8681 20.9857 58.6078 20.7253C58.0871 20.2047 58.0871 19.3607 58.6078 18.84L63.5061 13.9417C64.0268 13.421 64.8708 13.421 65.3915 13.9417C65.9121 14.4623 65.9121 15.3063 65.3915 15.827L60.4931 20.7253C60.2324 20.9857 59.8914 21.116 59.5504 21.116Z" fill="#F5D955"/>
<path d="M64.4486 21.116C64.1076 21.116 63.7663 20.9857 63.506 20.7253L58.6073 15.8267C58.0866 15.306 58.0866 14.462 58.6073 13.9413C59.128 13.4207 59.972 13.4207 60.4926 13.9413L65.391 18.8397C65.9116 19.3603 65.9116 20.2043 65.391 20.725C65.131 20.9857 64.7896 21.116 64.4486 21.116Z" fill="#F5D955"/>
<path d="M13.9995 52.6667L63.3328 28.6667L88.6662 42L40.6662 66L13.9995 52.6667Z" fill="#F5D955"/>
<path d="M40.6665 67.3333C40.4622 67.3333 40.2575 67.2863 40.0702 67.1927L13.4035 53.8593C12.9492 53.6327 12.6639 53.1667 12.6665 52.6587C12.6692 52.152 12.9595 51.69 13.4165 51.4673L62.7499 27.4673C63.1339 27.2823 63.5792 27.289 63.9542 27.487L89.2875 40.8203C89.7302 41.0533 90.0048 41.5143 89.9998 42.0143C89.9949 42.5143 89.7095 42.9687 89.2628 43.1927L41.2629 67.1927C41.0755 67.2863 40.8712 67.3333 40.6665 67.3333ZM17.0142 52.6837L40.6665 64.5093L85.7458 41.9703L63.3095 30.1617L17.0142 52.6837Z" fill="#1D2C53"/>
<path d="M40.6665 75.3333C40.4621 75.3333 40.2575 75.2863 40.0701 75.1927L13.4035 61.8593C12.7445 61.53 12.4778 60.729 12.8071 60.0703C13.1378 59.4113 13.9375 59.147 14.5961 59.474L40.6665 72.509L88.0701 48.8073C88.7291 48.4793 89.5285 48.7447 89.8591 49.4037C90.1885 50.0627 89.9218 50.8633 89.2628 51.1927L41.2628 75.1927C41.0755 75.2863 40.8711 75.3333 40.6665 75.3333Z" fill="#1D2C53"/>
<path d="M40.6665 83.3333C40.4621 83.3333 40.2575 83.2863 40.0701 83.1927L13.4035 69.8593C12.7445 69.53 12.4778 68.729 12.8071 68.0703C13.1378 67.4113 13.9375 67.146 14.5961 67.474L40.6665 80.509L88.0701 56.8073C88.7291 56.4807 89.5285 56.7447 89.8591 57.4037C90.1885 58.0627 89.9218 58.8633 89.2628 59.1927L41.2628 83.1927C41.0755 83.2863 40.8711 83.3333 40.6665 83.3333Z" fill="#1D2C53"/>
<path d="M40.6665 91.3333C40.4621 91.3333 40.2575 91.2863 40.0701 91.1927L13.4035 77.8593C12.7445 77.53 12.4778 76.729 12.8071 76.0703C13.1378 75.4113 13.9375 75.147 14.5961 75.474L40.6665 88.509L88.0701 64.8073C88.7291 64.4793 89.5285 64.7447 89.8591 65.4037C90.1885 66.0627 89.9218 66.8633 89.2628 67.1927L41.2628 91.1927C41.0755 91.2863 40.8711 91.3333 40.6665 91.3333Z" fill="#1D2C53"/>
<path d="M31.333 42L44.6663 35.3333L71.333 50V76.6667L57.9997 83.3333L57.814 57.409L31.333 42Z" fill="white"/>
<path d="M57.9998 84.6667C57.7575 84.6667 57.5155 84.6003 57.3032 84.47C56.9098 84.229 56.6705 83.8033 56.6665 83.3423L56.4855 58.1783L30.6625 43.1523C30.2392 42.9063 29.9855 42.448 30.0012 41.9583C30.0155 41.4687 30.2995 41.026 30.7368 40.8073L44.0702 34.1407C44.4608 33.9453 44.9255 33.952 45.3085 34.1653L71.9752 48.832C72.4022 49.0663 72.6665 49.5143 72.6665 50V76.6667C72.6665 77.172 72.3815 77.6327 71.9295 77.8593L58.5962 84.526C58.4075 84.6197 58.2045 84.6667 57.9998 84.6667ZM34.1365 42.0887L58.4842 56.2567C58.8918 56.4937 59.1432 56.9287 59.1468 57.4L59.3175 81.184L69.9998 75.843V50.7883L44.6365 36.839L34.1365 42.0887Z" fill="#1D2C53"/>
<path d="M71.3331 46.668C70.8435 46.668 70.3735 46.3983 70.1391 45.931C69.8098 45.272 70.0765 44.4713 70.7355 44.142L75.1208 41.9493L63.3058 35.504L58.5961 37.8593C57.9385 38.186 57.1378 37.922 56.8071 37.263C56.4778 36.604 56.7445 35.8033 57.4035 35.474L62.7368 32.8073C63.1261 32.6133 63.5898 32.621 63.9711 32.8293L78.6378 40.8293C79.0741 41.0677 79.3421 41.5273 79.3331 42.0233C79.3241 42.5193 79.0401 42.97 78.5961 43.1927L71.9281 46.5273C71.7368 46.6223 71.5338 46.668 71.3331 46.668Z" fill="#1D2C53"/>
<path d="M40.6662 61.3347C40.4462 61.3347 40.2262 61.28 40.0282 61.172L25.3616 53.172C24.9252 52.9337 24.6572 52.474 24.6662 51.978C24.6752 51.482 24.9592 51.0313 25.4032 50.8087L32.0712 47.474C32.7289 47.146 33.5309 47.4113 33.8602 48.0703C34.1896 48.7293 33.9229 49.53 33.2639 49.8593L28.8786 52.052L40.6936 58.4973L45.4032 56.142C46.0609 55.8153 46.8616 56.0793 47.1922 56.7383C47.5216 57.3973 47.2549 58.198 46.5959 58.5273L41.2626 61.194C41.0752 61.2877 40.8709 61.3347 40.6662 61.3347Z" fill="#1D2C53"/>
<path d="M65.3328 42.4047C66.2183 42.4047 66.9362 41.925 66.9362 41.3333C66.9362 40.7416 66.2183 40.262 65.3328 40.262C64.4473 40.262 63.7295 40.7416 63.7295 41.3333C63.7295 41.925 64.4473 42.4047 65.3328 42.4047Z" fill="#1D2C53"/>
<path d="M38.6663 54.4047C39.5518 54.4047 40.2697 53.925 40.2697 53.3333C40.2697 52.7416 39.5518 52.262 38.6663 52.262C37.7808 52.262 37.063 52.7416 37.063 53.3333C37.063 53.925 37.7808 54.4047 38.6663 54.4047Z" fill="#1D2C53"/>
<path d="M36.6665 14.949L38.9281 19.531L43.9848 20.266L40.3258 23.8327L41.1895 28.869L36.6665 26.4913L32.1435 28.869L33.0075 23.8327L29.3481 20.266L34.4051 19.531L36.6665 14.949Z" fill="#F5D955"/>
<path d="M41.1902 30.2017C40.9779 30.2017 40.7646 30.151 40.5706 30.048L36.6669 27.9973L32.7632 30.048C32.3179 30.2863 31.7699 30.2473 31.3596 29.9463C30.9496 29.648 30.7436 29.143 30.8296 28.643L31.5756 24.298L28.4179 21.22C28.0546 20.866 27.9246 20.336 28.0806 19.8527C28.2382 19.371 28.6549 19.0193 29.1572 18.9463L33.5192 18.3123L35.4709 14.3593C35.9189 13.448 37.4136 13.448 37.8616 14.3593L39.8132 18.3123L44.1752 18.9463C44.6779 19.0193 45.0946 19.3707 45.2519 19.8527C45.4082 20.3357 45.2779 20.8657 44.9146 21.22L41.7569 24.298L42.5029 28.643C42.5889 29.143 42.3832 29.6483 41.9729 29.9463C41.7422 30.116 41.4662 30.2017 41.1902 30.2017ZM36.6666 25.1577C36.8802 25.1577 37.0922 25.2083 37.2862 25.3113L39.4189 26.431L39.0112 24.0587C38.9369 23.6263 39.0802 23.185 39.3939 22.879L41.1192 21.1967L38.7366 20.8503C38.3016 20.7877 37.9266 20.5143 37.7326 20.121L36.6662 17.961L35.5999 20.121C35.4059 20.5143 35.0309 20.7877 34.5959 20.8503L32.2136 21.1967L33.9389 22.879C34.2526 23.185 34.3959 23.6263 34.3216 24.0587L33.9139 26.431L36.0466 25.3113C36.2409 25.2083 36.4532 25.1577 36.6666 25.1577Z" fill="#F5D955"/>
</svg>
