<svg width="140" height="140" viewBox="0 0 140 140" fill="none" xmlns="http://www.w3.org/2000/svg">
<circle cx="70" cy="70" r="69" stroke="#F5D955" stroke-width="2"/>
<path d="M108.224 58.2106C107.812 57.0046 106.955 56.0308 105.813 55.4695L96.2596 50.776L96.2836 50.6545C96.5296 49.4041 96.2755 48.1327 95.5651 47.0743C94.8547 46.0159 93.7756 45.2977 92.5252 45.0517L64.7143 39.5719C62.3107 39.1021 59.9566 40.6747 59.4808 43.084L59.197 44.5246L54.4207 44.2747C51.9634 44.1727 49.8655 46.0384 49.7356 48.4912L49.7104 48.9703L42.5929 49.6723C41.4082 49.7896 40.3393 50.3602 39.5848 51.2812C38.83 52.201 38.4784 53.3602 38.5957 54.5449L40.9093 78.0064C40.219 78.2491 39.6022 78.6835 39.1759 79.3078L32.1211 89.6602C31.2388 90.9538 31.3336 92.6872 32.3521 93.8767L40.9549 103.94C41.6146 104.711 42.5755 105.154 43.588 105.156L53.0977 105.18H53.1082C54.259 105.18 55.3312 104.612 55.9792 103.661L62.8192 93.625L82.6336 103.36C83.2546 103.665 83.9227 103.819 84.5941 103.819C85.0792 103.819 85.5655 103.738 86.0377 103.577C87.1651 103.193 88.0744 102.393 88.5994 101.325L107.99 61.8553C108.553 60.7114 108.635 59.4178 108.224 58.2106ZM93.5716 48.4114C93.8218 48.7846 93.952 49.2115 93.9664 49.6492L87.622 46.5322L92.0611 47.407C92.6821 47.5291 93.2188 47.8864 93.5716 48.4114ZM61.8361 43.5481C62.0542 42.4348 63.1357 41.7013 64.2514 41.9275L75.0577 44.0569C74.8075 44.3452 74.5798 44.6545 74.407 45.0061L56.071 82.3282L54.5062 80.7547L61.8361 43.5481ZM51.9871 89.9599L43.0354 80.2696L50.9587 80.9509C51.2107 80.9731 51.4486 81.0844 51.6289 81.265L60.6154 90.3013L51.9871 89.9599ZM52.1329 48.6178C52.1926 47.4859 53.1676 46.6174 54.2938 46.6726L58.7278 46.9045L52.42 78.9229C52.0288 78.7264 51.6046 78.5977 51.1636 78.5602L50.5639 78.5086L52.1329 48.6178ZM42.8296 52.0606L49.5832 51.3943L48.1708 78.3028L43.3084 77.8846L40.9837 54.3094C40.8724 53.1811 41.6998 52.1719 42.8296 52.0606ZM34.1752 92.317C33.8599 91.9489 33.8308 91.4122 34.1038 91.0126L40.7215 81.3016L49.9135 91.2529L42.5293 102.089L34.1752 92.317ZM53.9962 102.309C53.7946 102.603 53.4631 102.779 53.1067 102.779C53.1055 102.779 53.1043 102.779 53.1043 102.779L44.9767 102.759L52.06 92.3644L60.5446 92.6998L53.9962 102.309ZM105.836 60.7957L86.4454 100.266C85.945 101.286 84.7087 101.706 83.6926 101.205L63.6151 91.3414C63.6088 90.4549 63.2785 89.5759 62.6176 88.9111L57.8608 84.1279L76.5607 46.0651C77.0623 45.0466 78.2974 44.626 79.3147 45.1252L104.754 57.6232C105.322 57.9022 105.747 58.3861 105.953 58.9861C106.156 59.5852 106.115 60.2287 105.836 60.7957ZM85.2409 63.8086C84.9457 63.6622 84.6022 63.6445 84.2917 63.7618C81.001 64.9888 73.234 68.0755 72.1687 70.2424C70.9114 72.8029 72.0913 75.9694 74.8006 77.3017C75.5449 77.6677 76.3375 77.8456 77.1295 77.8699L75.5341 81.1186C75.2422 81.7126 75.4873 82.4323 76.0825 82.7242C76.2523 82.8073 76.4329 82.8472 76.6099 82.8472C77.053 82.8472 77.4793 82.6012 77.6881 82.1758L79.2376 79.0204C79.7119 79.5445 80.278 79.9927 80.9389 80.317C81.7393 80.7106 82.5994 80.9101 83.4583 80.9101C83.9914 80.9101 84.5248 80.8327 85.0414 80.677C86.4196 80.2621 87.5188 79.3423 88.135 78.0859C89.1991 75.9202 86.8963 67.8847 85.8568 64.5307C85.7599 64.2154 85.5361 63.9541 85.2409 63.8086ZM74.776 56.0719L76.4386 52.6876C76.4386 52.6873 76.4389 52.687 76.4392 52.6867L78.2224 49.057C78.5143 48.463 79.228 48.2167 79.8289 48.5098C80.4229 48.8017 80.668 49.5211 80.3761 50.1163L79.0951 52.7233L81.5257 52.4542C82.21 52.3885 82.7785 52.8562 82.8511 53.5147C82.9237 54.1732 82.4491 54.7675 81.7906 54.8401L79.4779 55.0963L80.4898 57.9199C80.7136 58.5433 80.389 59.23 79.7644 59.4538C79.6309 59.5018 79.495 59.524 79.36 59.524C78.8677 59.524 78.406 59.2192 78.2302 58.7284L77.3506 56.2738L76.9294 57.1309C76.7209 57.5551 76.2943 57.8011 75.8512 57.8011C75.6742 57.8011 75.4939 57.7612 75.3226 57.6781C74.7292 57.3868 74.4841 56.6674 74.776 56.0719ZM36.4966 45.1795C38.8123 45.1795 40.6966 43.2952 40.6966 40.9795C40.6966 38.6638 38.8123 36.7795 36.4966 36.7795C34.1809 36.7795 32.2966 38.6638 32.2966 40.9795C32.2966 43.2952 34.1809 45.1795 36.4966 45.1795ZM36.4966 39.1795C37.4893 39.1795 38.2966 39.9868 38.2966 40.9795C38.2966 41.9722 37.4893 42.7795 36.4966 42.7795C35.5039 42.7795 34.6966 41.9722 34.6966 40.9795C34.6966 39.9868 35.5042 39.1795 36.4966 39.1795ZM102.549 94.8235L101.193 96.1795L102.549 97.5355C103.018 98.0041 103.018 98.7637 102.549 99.2323C102.315 99.4666 102.008 99.5839 101.701 99.5839C101.394 99.5839 101.087 99.4666 100.853 99.2323L99.4966 97.8763L98.1406 99.2323C97.9063 99.4666 97.5991 99.5839 97.2922 99.5839C96.9853 99.5839 96.6781 99.4666 96.4438 99.2323C95.9752 98.7637 95.9752 98.0041 96.4438 97.5355L97.7998 96.1795L96.4438 94.8235C95.9752 94.3549 95.9752 93.5953 96.4438 93.1267C96.9124 92.6581 97.672 92.6581 98.1406 93.1267L99.4966 94.4827L100.853 93.1267C101.321 92.6581 102.081 92.6581 102.549 93.1267C103.018 93.5953 103.018 94.3549 102.549 94.8235ZM40.6966 86.9521C40.1593 86.9521 39.724 86.5165 39.724 85.9795C39.724 85.4425 40.1596 85.0069 40.6966 85.0069C41.2336 85.0069 41.6692 85.4425 41.6692 85.9795C41.6692 86.5165 41.2339 86.9521 40.6966 86.9521ZM52.417 86.2999C52.1299 86.587 51.5359 86.4583 51.0904 86.0128C50.6449 85.5673 50.5162 84.9733 50.8033 84.6862C51.0904 84.3991 51.6844 84.5278 52.1299 84.9733C52.5757 85.4188 52.7041 86.0128 52.417 86.2999ZM41.2966 92.2942C40.7914 92.2942 40.3816 91.8847 40.3816 91.3795C40.3816 90.874 40.7911 90.4645 41.2966 90.4645C41.8021 90.4645 42.2116 90.874 42.2116 91.3795C42.2116 91.8847 41.8018 92.2942 41.2966 92.2942ZM56.6116 94.9795C56.6116 95.4847 56.2021 95.8942 55.6966 95.8942C55.1911 95.8942 54.7816 95.4847 54.7816 94.9795C54.7816 94.474 55.1911 94.0645 55.6966 94.0645C56.2021 94.0645 56.6116 94.474 56.6116 94.9795ZM51.8116 99.7795C51.8116 100.285 51.4021 100.694 50.8966 100.694C50.3911 100.694 49.9816 100.285 49.9816 99.7795C49.9816 99.274 50.3911 98.8645 50.8966 98.8645C51.4021 98.8645 51.8116 99.274 51.8116 99.7795ZM41.8966 97.7602C41.3551 97.7602 40.9159 97.3213 40.9159 96.7795C40.9159 96.2377 41.3551 95.7988 41.8966 95.7988C42.4381 95.7988 42.8773 96.2377 42.8773 96.7795C42.8773 97.3213 42.4384 97.7602 41.8966 97.7602ZM31.5379 74.5795C31.5379 73.8289 32.1463 73.2208 32.8969 73.2208C33.6475 73.2208 34.2559 73.8289 34.2559 74.5795C34.2559 75.3298 33.6475 75.9382 32.8969 75.9382C32.1463 75.9382 31.5379 75.3298 31.5379 74.5795ZM47.1379 36.1795C47.1379 35.4289 47.7463 34.8208 48.4969 34.8208C49.2475 34.8208 49.8559 35.4289 49.8559 36.1795C49.8559 36.9298 49.2475 37.5382 48.4969 37.5382C47.7463 37.5382 47.1379 36.9298 47.1379 36.1795Z" fill="#F5D955"/>
</svg>
