<svg width="140" height="140" viewBox="0 0 140 140" fill="none" xmlns="http://www.w3.org/2000/svg">
<circle cx="70" cy="70" r="69" stroke="#F5D955" stroke-width="2"/>
<path d="M65.6775 42.1979C67.9932 42.1979 69.8775 40.3136 69.8775 37.9979C69.8775 35.6822 67.9932 33.7979 65.6775 33.7979C63.3618 33.7979 61.4775 35.6822 61.4775 37.9979C61.4775 40.3136 63.3618 42.1979 65.6775 42.1979ZM65.6775 36.1979C66.6702 36.1979 67.4775 37.0052 67.4775 37.9979C67.4775 38.9906 66.6702 39.7979 65.6775 39.7979C64.6848 39.7979 63.8775 38.9906 63.8775 37.9979C63.8775 37.0052 64.6848 36.1979 65.6775 36.1979ZM37.0362 91.9978C37.0362 92.7481 36.4278 93.3565 35.6772 93.3565C34.9266 93.3565 34.3182 92.7481 34.3182 91.9978C34.3182 91.2472 34.9266 90.6388 35.6772 90.6388C36.4278 90.6388 37.0362 91.2472 37.0362 91.9978ZM99.1185 41.5979C99.1185 40.8473 99.7269 40.2389 100.477 40.2389C101.228 40.2389 101.836 40.8473 101.836 41.5979C101.836 42.3482 101.228 42.9566 100.477 42.9566C99.7269 42.9566 99.1185 42.3485 99.1185 41.5979ZM101.73 101.442L100.374 102.798L101.73 104.154C102.199 104.623 102.199 105.382 101.73 105.851C101.496 106.085 101.189 106.203 100.882 106.203C100.575 106.203 100.268 106.085 100.033 105.851L98.6775 104.495L97.3215 105.851C97.0872 106.085 96.78 106.203 96.4731 106.203C96.1662 106.203 95.859 106.085 95.6247 105.851C95.1561 105.382 95.1561 104.623 95.6247 104.154L96.9807 102.798L95.6247 101.442C95.1561 100.974 95.1561 100.214 95.6247 99.7453C96.0933 99.2767 96.8529 99.2767 97.3215 99.7453L98.6775 101.101L100.033 99.7453C100.502 99.2767 101.262 99.2767 101.73 99.7453C102.199 100.214 102.199 100.973 101.73 101.442ZM40.5303 43.8422L39.1743 45.1982L40.5303 46.5542C40.9989 47.0228 40.9989 47.7824 40.5303 48.2509C40.296 48.4853 39.9888 48.6026 39.6819 48.6026C39.375 48.6026 39.0678 48.4853 38.8335 48.2509L37.4775 46.895L36.1215 48.2509C35.8872 48.4853 35.58 48.6026 35.2731 48.6026C34.9662 48.6026 34.659 48.4853 34.4247 48.2509C33.9561 47.7824 33.9561 47.0228 34.4247 46.5542L35.7807 45.1982L34.4247 43.8422C33.9561 43.3736 33.9561 42.614 34.4247 42.1454C34.8933 41.6768 35.6529 41.6768 36.1215 42.1454L37.4775 43.5014L38.8335 42.1454C39.3021 41.6768 40.0617 41.6768 40.5303 42.1454C40.9989 42.614 40.9989 43.3733 40.5303 43.8422ZM68.3817 87.1204C68.1036 87.8803 67.2618 88.2706 66.5022 87.9922C65.7423 87.7138 65.352 86.8723 65.6304 86.1127C65.9085 85.3528 66.7503 84.9625 67.5099 85.2409C68.2698 85.519 68.6601 86.3605 68.3817 87.1204ZM102.796 52.8416L78.7836 44.0471C76.4772 43.2023 73.9098 44.3915 73.065 46.6997L69.8796 55.3979H47.9346C45.4767 55.3979 43.4775 57.397 43.4775 59.8549V99.827C43.4775 102.458 45.6174 104.598 48.2481 104.598H73.8207C76.278 104.598 78.2772 102.598 78.2772 100.14V96.2575L86.1708 99.1486C86.6748 99.3331 87.1902 99.4204 87.699 99.4204C89.5167 99.4204 91.2288 98.2997 91.8897 96.496L105.636 58.9621C106.541 56.4925 105.267 53.7467 102.796 52.8416ZM75.8775 100.141C75.8775 101.275 74.9553 102.198 73.821 102.198H48.2481C46.941 102.198 45.8775 101.134 45.8775 99.8272V59.8553C45.8775 58.721 46.8003 57.7982 47.9346 57.7982H69.0006L63.2583 73.4785C62.0478 72.0967 61.0881 71.0777 61.038 71.0252C60.8118 70.7854 60.4959 70.6495 60.1662 70.6495C59.8365 70.6495 59.5206 70.7854 59.2944 71.0252C57.0642 73.3847 51.8775 79.1158 51.8775 81.3727C51.8775 84.0541 54.1827 86.2354 57.0156 86.2354C57.7314 86.2354 58.4145 86.0758 59.0487 85.8133C59.0259 87.7798 60.2097 89.641 62.1588 90.3547L75.8775 95.3791V100.141ZM103.381 58.1371L89.6364 95.6704C89.2449 96.7363 88.0662 97.2853 86.9961 96.895L62.9838 88.1008C61.7568 87.6514 61.1235 86.2861 61.5729 85.0585L75.3183 47.5253C75.7098 46.46 76.8921 45.9134 77.9586 46.3007L101.971 55.0949C103.198 55.5449 103.831 56.9095 103.381 58.1371ZM88.6644 94.5487C88.386 95.3086 87.5445 95.6989 86.7849 95.4205C86.0253 95.1421 85.6347 94.3006 85.9131 93.541C86.1915 92.7811 87.033 92.3908 87.7926 92.6692C88.5522 92.9473 88.9425 93.7888 88.6644 94.5487ZM71.5128 98.341C71.7912 97.5811 72.6327 97.1908 73.3923 97.4692C74.1522 97.7473 74.5425 98.5891 74.2641 99.3487C73.9857 100.109 73.1442 100.499 72.3846 100.221C71.625 99.9421 71.2344 99.1006 71.5128 98.341ZM85.0239 62.5744C84.7158 62.4613 84.3711 62.4803 84.0759 62.6273C81.1707 64.0763 74.3295 67.6744 73.5549 69.7934C73.1013 71.0285 73.1904 72.3727 73.8033 73.5784C74.4009 74.755 75.4323 75.6601 76.7061 76.1266C77.388 76.3768 78.0945 76.4669 78.789 76.4342L77.6916 79.4302C77.4642 80.0524 77.7843 80.7415 78.4065 80.9695C78.5424 81.0193 78.6819 81.0434 78.819 81.0434C79.3077 81.0434 79.7682 80.7416 79.9464 80.2552L81.0114 77.3479C81.4821 77.746 82.0203 78.0728 82.623 78.2935C83.229 78.5155 83.8557 78.6256 84.4794 78.6256C85.1661 78.6256 85.8471 78.4916 86.4846 78.223C87.7326 77.698 88.6677 76.729 89.1189 75.4942C89.8959 73.375 86.9967 66.2095 85.7145 63.2269C85.5828 62.9242 85.3344 62.6881 85.0239 62.5744ZM74.5662 56.5604L77.0424 49.7993C77.271 49.1765 77.9634 48.8581 78.5823 49.0849C79.2045 49.313 79.5246 50.0021 79.2972 50.6243L78.4359 52.9762L80.4681 52.531C81.1149 52.3903 81.7548 52.7983 81.8967 53.4469C82.0386 54.0937 81.6294 54.7337 80.9814 54.8762L79.0053 55.3094L80.1543 57.6898C80.4426 58.2862 80.1918 59.0041 79.5954 59.2918C79.4277 59.3731 79.2498 59.4113 79.0752 59.4113C78.6288 59.4113 78.1998 59.1616 77.9937 58.7326L77.0469 56.7709L76.8219 57.3857C76.6437 57.872 76.1832 58.1738 75.6945 58.1738C75.5574 58.1738 75.4179 58.1498 75.282 58.1C74.6586 57.8717 74.3388 57.1826 74.5662 56.5604ZM53.7408 68.4712C53.913 68.5574 54.0966 68.5979 54.2763 68.5979C54.717 68.5979 55.1406 68.3551 55.3509 67.9346C55.6473 67.3414 55.4073 66.6208 54.8142 66.3244L53.8818 65.8582C54.1263 65.4241 54.2775 64.9306 54.2775 64.3979V63.1978C54.2775 61.5436 52.9317 60.1978 51.2775 60.1978C49.6233 60.1978 48.2775 61.5436 48.2775 63.1978V64.3979C48.2775 66.052 49.6233 67.3979 51.2775 67.3979C51.3675 67.3979 51.4524 67.3792 51.5406 67.3711L53.7408 68.4712ZM50.6775 63.1978C50.6775 62.8666 50.9463 62.5979 51.2775 62.5979C51.6087 62.5979 51.8775 62.8666 51.8775 63.1978V64.3979C51.8775 64.729 51.6087 64.9979 51.2775 64.9979C50.9463 64.9979 50.6775 64.729 50.6775 64.3979V63.1978Z" fill="#F5D955"/>
</svg>
