<svg width="140" height="140" viewBox="0 0 140 140" fill="none" xmlns="http://www.w3.org/2000/svg">
<circle cx="70" cy="70" r="69" stroke="#F5D955" stroke-width="2"/>
<path d="M102.204 57.8422C99.8886 57.8422 98.0043 59.7265 98.0043 62.0422C98.0043 64.3579 99.8886 66.2422 102.204 66.2422C104.52 66.2422 106.404 64.3579 106.404 62.0422C106.404 59.7265 104.52 57.8422 102.204 57.8422ZM102.204 63.8422C101.212 63.8422 100.404 63.0349 100.404 62.0422C100.404 61.0495 101.212 60.2422 102.204 60.2422C103.197 60.2422 104.004 61.0495 104.004 62.0422C104.004 63.0349 103.197 63.8422 102.204 63.8422ZM55.4044 43.4422C57.7201 43.4422 59.6044 41.5579 59.6044 39.2422C59.6044 36.9265 57.7201 35.0422 55.4044 35.0422C53.0887 35.0422 51.2044 36.9265 51.2044 39.2422C51.2044 41.5579 53.0887 43.4422 55.4044 43.4422ZM55.4044 37.4422C56.3971 37.4422 57.2044 38.2495 57.2044 39.2422C57.2044 40.2349 56.3971 41.0422 55.4044 41.0422C54.4117 41.0422 53.6044 40.2349 53.6044 39.2422C53.6044 38.2495 54.4117 37.4422 55.4044 37.4422ZM40.759 53.7622C40.759 54.5128 40.1506 55.1212 39.4 55.1212C38.6494 55.1212 38.041 54.5128 38.041 53.7622C38.041 53.0119 38.6494 52.4035 39.4 52.4035C40.1506 52.4035 40.759 53.0119 40.759 53.7622ZM95.6409 50.1622C95.6409 49.4119 96.2494 48.8035 97 48.8035C97.7505 48.8035 98.3589 49.4119 98.3589 50.1622C98.3589 50.9128 97.7505 51.5212 97 51.5212C96.2494 51.5212 95.6409 50.9128 95.6409 50.1622ZM37 39.259L35.644 40.615C35.4097 40.8493 35.1025 40.9666 34.7956 40.9666C34.4887 40.9666 34.1815 40.8493 33.9472 40.615C33.4786 40.1464 33.4786 39.3868 33.9472 38.9182L35.3032 37.5622L33.9472 36.2062C33.4786 35.7376 33.4786 34.978 33.9472 34.5094C34.4158 34.0408 35.1754 34.0408 35.644 34.5094L37 35.8654L38.356 34.5094C38.8246 34.0408 39.5842 34.0408 40.0528 34.5094C40.5214 34.978 40.5214 35.7376 40.0528 36.2062L38.6968 37.5622L40.0528 38.9182C40.5214 39.3868 40.5214 40.1464 40.0528 40.615C39.8185 40.8493 39.5113 40.9666 39.2044 40.9666C38.8975 40.9666 38.5903 40.8493 38.356 40.615L37 39.259ZM83.1472 40.1182L84.5032 38.7622L83.1472 37.4062C82.6786 36.9376 82.6786 36.178 83.1472 35.7094C83.6158 35.2408 84.3754 35.2408 84.8439 35.7094L86.2 37.0654L87.556 35.7094C88.0246 35.2408 88.7841 35.2408 89.2528 35.7094C89.7213 36.178 89.7213 36.9376 89.2528 37.4062L87.8968 38.7622L89.2528 40.1182C89.7213 40.5868 89.7213 41.3464 89.2528 41.815C89.0184 42.0493 88.7113 42.1666 88.4044 42.1666C88.0975 42.1666 87.7903 42.0493 87.556 41.815L86.2 40.459L84.8439 41.815C84.6096 42.0493 84.3024 42.1666 83.9955 42.1666C83.6886 42.1666 83.3815 42.0493 83.1472 41.815C82.6786 41.3461 82.6786 40.5868 83.1472 40.1182ZM98.187 72.2563L87.2044 70.5625V52.7755C87.2044 52.3003 86.9235 51.8695 86.4888 51.6775L70.78 44.7439C70.5433 44.6401 70.2784 44.6143 70.0275 44.6725L47.3365 49.8727C46.7911 49.9975 46.4044 50.4826 46.4044 51.0421V63.8923L37.807 65.3251C37.2286 65.4211 36.8044 65.9221 36.8044 66.5086V90.7753C36.8044 91.2493 37.084 91.6795 37.5169 91.8715L53.1169 98.8048C53.2711 98.8735 53.4373 98.9086 53.6044 98.9086C53.6701 98.9086 53.7361 98.9032 53.8018 98.8921L58.4239 98.1217L58.4044 99.4234C58.3963 99.997 58.7947 100.497 59.356 100.616L83.9248 105.816C84.0067 105.833 84.0901 105.842 84.1732 105.842C84.3589 105.842 84.5428 105.799 84.7111 105.715L98.5423 98.7814C98.9485 98.578 99.2044 98.1628 99.2044 97.7086V73.4419C99.2044 72.8497 98.7724 72.3463 98.187 72.2563ZM70.1752 47.1007L82.0443 52.3396L61.6312 56.7142L51.133 51.4648L70.1752 47.1007ZM52.4044 95.8624L39.2044 89.9956V68.3191L46.4044 71.3638V73.576C46.4044 73.9909 46.6189 74.377 46.9717 74.5954L52.4044 77.9674V95.8624ZM60.8044 80.3563L48.8044 72.9082V52.984L60.9205 59.0419H60.8044V80.3563ZM83.6044 103.295L60.8191 98.4724L61.0465 83.3113C61.2109 83.3914 61.387 83.4427 61.5679 83.4427C61.6774 83.4427 61.7875 83.4274 61.8955 83.3971L64.4842 82.6627C64.5031 82.7842 64.5337 82.9063 64.5769 83.0269C64.9216 83.9869 65.9296 84.5035 66.8284 84.1807C67.7271 83.8582 68.1766 82.8184 67.8319 81.8584C67.8157 81.8128 67.7908 81.7735 67.7716 81.73L75.3544 79.5787L83.6044 81.3466V103.295ZM84.8044 74.4019L63.2044 80.5306V59.0422L84.8044 54.2032V74.4019ZM96.8044 96.9682L86.0044 102.382V81.1174L96.8044 75.7171V96.9682ZM75.2044 66.8422C75.2044 67.8364 74.3986 68.6422 73.4044 68.6422C72.4102 68.6422 71.6044 67.8364 71.6044 66.8422C71.6044 65.848 72.4102 65.0422 73.4044 65.0422C74.3986 65.0422 75.2044 65.848 75.2044 66.8422ZM73.9612 89.3356C74.1843 90.4366 73.579 91.4665 72.6088 91.6357C71.6385 91.8049 70.6708 91.0495 70.4476 89.9482C70.2244 88.8469 70.8298 87.8173 71.8 87.6481C72.7702 87.4789 73.7377 88.2346 73.9612 89.3356ZM95.5197 82.5751C95.3319 83.68 94.7074 84.4282 94.1241 84.2458C93.541 84.0637 93.2206 83.0203 93.4084 81.9154C93.5961 80.8105 94.2211 80.0626 94.8039 80.2447C95.3871 80.4268 95.7076 81.4702 95.5197 82.5751ZM90.7197 84.9751C90.5319 86.08 89.9074 86.8282 89.3242 86.6458C88.741 86.4637 88.4206 85.4203 88.6084 84.3154C88.7962 83.2105 89.421 82.4626 90.0039 82.6447C90.5871 82.8268 90.9076 83.8702 90.7197 84.9751ZM95.5197 92.1751C95.3319 93.28 94.7074 94.0282 94.1241 93.8458C93.541 93.6637 93.2206 92.6203 93.4084 91.5154C93.5961 90.4105 94.2211 89.6626 94.8039 89.8447C95.3871 90.0268 95.7076 91.0702 95.5197 92.1751ZM46.9 82.1224C46.9516 83.3083 46.2613 84.325 45.3577 84.3928C44.4541 84.4606 43.6798 83.5543 43.6279 82.3684C43.576 81.1825 44.2666 80.1658 45.1702 80.098C46.0741 80.0299 46.8484 80.9365 46.9 82.1224ZM90.7197 94.5751C90.5319 95.68 89.9074 96.4282 89.3242 96.2458C88.741 96.0637 88.4206 95.0203 88.6084 93.9154C88.7962 92.8105 89.421 92.0626 90.0039 92.2447C90.5871 92.4268 90.9076 93.4702 90.7197 94.5751ZM81.0318 96.2578C81.3763 97.2178 80.9272 98.2573 80.0284 98.5801C79.1296 98.9029 78.1216 98.3863 77.7769 97.4263C77.4325 96.4666 77.8816 95.4268 78.7804 95.104C79.6792 94.7812 80.6871 95.2981 81.0318 96.2578ZM66.8044 94.4422C66.8044 95.4364 65.9986 96.2422 65.0044 96.2422C64.0102 96.2422 63.2044 95.4364 63.2044 94.4422C63.2044 93.448 64.0102 92.6422 65.0044 92.6422C65.9986 92.6422 66.8044 93.448 66.8044 94.4422ZM77.6044 84.8422C77.6044 83.848 78.4102 83.0422 79.4044 83.0422C80.3986 83.0422 81.2044 83.848 81.2044 84.8422C81.2044 85.8364 80.3986 86.6422 79.4044 86.6422C78.4102 86.6422 77.6044 85.8361 77.6044 84.8422ZM53.389 59.2444C53.6455 60.2662 53.1439 61.273 52.2685 61.4926C51.3931 61.7122 50.4757 61.0618 50.2195 60.0397C49.963 59.0176 50.4646 58.0111 51.34 57.7915C52.2154 57.5719 53.1328 58.2223 53.389 59.2444ZM57.0685 74.6926C56.1934 74.9122 55.2757 74.2618 55.0195 73.2397C54.763 72.2176 55.2646 71.2111 56.14 70.9915C57.0151 70.7719 57.9328 71.4223 58.189 72.4444C58.4455 73.4665 57.9439 74.473 57.0685 74.6926ZM64.2916 51.6052C64.0762 50.8834 64.7581 50.1352 65.8144 49.9348C66.8707 49.7341 67.9015 50.1568 68.1169 50.8789C68.3323 51.601 67.6504 52.3489 66.5941 52.5493C65.5378 52.75 64.507 52.3273 64.2916 51.6052ZM81.7438 60.2422C81.7438 61.2028 80.965 61.9816 80.0044 61.9816C79.0438 61.9816 78.265 61.2028 78.265 60.2422C78.265 59.2816 79.0438 58.5028 80.0044 58.5028C80.965 58.5028 81.7438 59.2813 81.7438 60.2422ZM68.5438 74.6422C68.5438 75.6028 67.765 76.3816 66.8044 76.3816C65.8438 76.3816 65.065 75.6028 65.065 74.6422C65.065 73.6816 65.8438 72.9028 66.8044 72.9028C67.765 72.9028 68.5438 73.6813 68.5438 74.6422Z" fill="#F5D955"/>
</svg>
