<svg width="140" height="140" viewBox="0 0 140 140" fill="none" xmlns="http://www.w3.org/2000/svg">
<circle cx="70" cy="70" r="69" stroke="#F5D955" stroke-width="2"/>
<path d="M105.905 62.8146L99.4482 57.4806C99.4503 57.4524 99.4644 57.4287 99.4644 57.3999V47.7195C99.4644 47.0568 98.9271 46.5195 98.2644 46.5195H40.6644C40.0017 46.5195 39.4644 47.0568 39.4644 47.7195V66.9999V105.4C39.4644 106.063 40.0017 106.6 40.6644 106.6H98.2644C98.9271 106.6 99.4644 106.063 99.4644 105.4V96.9999C99.4644 96.9126 99.4323 96.8355 99.4146 96.7536L99.5799 96.5241C101.86 93.3576 103.064 89.6223 103.064 85.7223V68.136L106.066 64.5039C106.268 64.2591 106.365 63.9432 106.335 63.6261C106.305 63.309 106.15 63.0174 105.905 62.8146ZM41.8644 48.9195H97.0644V55.7016C96.6414 55.6116 96.1845 55.7391 95.889 56.0967L87.8718 65.7999H41.8644V48.9195ZM74.2332 96.0489C74.2332 97.8963 72.7296 99.3999 70.8822 99.3999C69.0342 99.3999 67.5306 97.8963 67.5306 96.0489C67.5306 94.2009 69.0342 92.6973 70.8822 92.6973C71.1165 92.6973 71.3457 92.7291 71.5719 92.7765L71.2161 94.8483C71.1423 95.2761 71.3052 95.7096 71.6415 95.9826C71.8596 96.1596 72.1272 96.2514 72.3984 96.2514C72.5472 96.2514 72.6966 96.2238 72.8391 96.1677L74.1879 95.6349C74.205 95.7729 74.2332 95.9082 74.2332 96.0489ZM71.9781 90.4113C71.6181 90.3417 71.253 90.2973 70.8822 90.2973C67.7106 90.2973 65.1306 92.8773 65.1306 96.0489C65.1306 99.2199 67.7106 101.8 70.8822 101.8C74.0532 101.8 76.6332 99.2199 76.6332 96.0489C76.6332 95.6223 76.5864 95.1975 76.4943 94.7874C76.4898 94.7676 76.4757 94.7532 76.4703 94.734L80.2641 93.2358V96.9999V104.2H61.0641V87.3999H72.495L71.9781 90.4113ZM75.9609 83.9838L77.8641 81.6801V85.5564L75.9609 83.9838ZM77.8644 74.1999V77.9874C77.802 78.0375 77.7312 78.0741 77.6781 78.138L73.3464 83.3811C73.2135 83.5422 73.1244 83.7357 73.0893 83.9418L72.9072 84.9999H61.0644V68.1999H80.2644V70.0677C78.8367 70.9002 77.8644 72.4314 77.8644 74.1999ZM41.8644 68.1999H58.6644V84.9999H41.8644V68.1999ZM82.6644 68.1999H85.8888L84.5709 69.7947C83.9862 69.5409 83.3415 69.3999 82.6644 69.3999V68.1999ZM41.8644 87.3999H58.6644V104.2H41.8644V87.3999ZM97.0644 104.2H82.6644V98.1999H97.0644V104.2ZM100.664 85.7223C100.664 89.1159 99.6162 92.3661 97.6323 95.1213L97.1433 95.7999H82.6641V91.0533C82.6641 90.8229 82.5978 90.597 82.473 90.4035L80.8407 87.8706C80.4633 87.2853 80.2641 86.6079 80.2641 85.9119V74.1999C80.2641 72.8763 81.3405 71.7999 82.6641 71.7999C83.9877 71.7999 85.0641 72.8763 85.0641 74.1999V80.1999C85.0641 81.2892 85.7157 82.2588 86.7246 82.6695C87.7323 83.0826 88.8786 82.8429 89.6391 82.0647L100.664 70.7847V85.7223H100.664ZM101.002 66.8697C100.958 66.9153 100.917 66.9645 100.881 67.0167L100.248 67.7838L87.924 80.3868C87.8403 80.4729 87.7419 80.4924 87.6309 80.4477C87.5208 80.4027 87.4644 80.3193 87.4644 80.1999V74.1999C87.4644 73.0983 87.0912 72.0816 86.4648 71.2707L96.9747 58.5501L103.452 63.9009L101.002 66.8697ZM50.4822 71.0973C47.3106 71.0973 44.7306 73.6773 44.7306 76.8489C44.7306 80.0199 47.3106 82.5999 50.4822 82.5999C53.6532 82.5999 56.2332 80.0199 56.2332 76.8489C56.2332 73.6773 53.6535 71.0973 50.4822 71.0973ZM50.4822 80.1999C48.6342 80.1999 47.1306 78.6963 47.1306 76.8489C47.1306 75.0009 48.6342 73.4973 50.4822 73.4973C52.3296 73.4973 53.8332 75.0009 53.8332 76.8489C53.8332 78.6963 52.3299 80.1999 50.4822 80.1999ZM83.2644 41.7999C85.5801 41.7999 87.4644 39.9156 87.4644 37.5999C87.4644 35.2842 85.5801 33.3999 83.2644 33.3999C80.9487 33.3999 79.0644 35.2842 79.0644 37.5999C79.0644 39.9156 80.9487 41.7999 83.2644 41.7999ZM83.2644 35.7999C84.2571 35.7999 85.0644 36.6072 85.0644 37.5999C85.0644 38.5926 84.2571 39.3999 83.2644 39.3999C82.2717 39.3999 81.4644 38.5926 81.4644 37.5999C81.4644 36.6072 82.2717 35.7999 83.2644 35.7999ZM101.105 41.1999C101.105 40.4493 101.714 39.8409 102.464 39.8409C103.215 39.8409 103.823 40.4493 103.823 41.1999C103.823 41.9502 103.215 42.5586 102.464 42.5586C101.714 42.5586 101.105 41.9502 101.105 41.1999ZM36.6231 93.9999C36.6231 94.7502 36.0147 95.3586 35.2641 95.3586C34.5135 95.3586 33.9051 94.7502 33.9051 93.9999C33.9051 93.2493 34.5135 92.6409 35.2641 92.6409C36.0147 92.6409 36.6231 93.2493 36.6231 93.9999ZM50.7054 37.5999C50.7054 36.8493 51.3138 36.2409 52.0644 36.2409C52.815 36.2409 53.4234 36.8493 53.4234 37.5999C53.4234 38.3502 52.815 38.9586 52.0644 38.9586C51.3138 38.9586 50.7054 38.3502 50.7054 37.5999ZM40.1172 41.8527C39.8829 42.087 39.5757 42.2043 39.2688 42.2043C38.9619 42.2043 38.6547 42.087 38.4204 41.8527L37.0644 40.4967L35.7084 41.8527C35.4741 42.087 35.1669 42.2043 34.86 42.2043C34.5531 42.2043 34.2459 42.087 34.0116 41.8527C33.543 41.3841 33.543 40.6245 34.0116 40.1559L35.3676 38.7999L34.0116 37.4439C33.543 36.9753 33.543 36.2157 34.0116 35.7471C34.4802 35.2785 35.2398 35.2785 35.7084 35.7471L37.0644 37.1031L38.4204 35.7471C38.889 35.2785 39.6486 35.2785 40.1172 35.7471C40.5858 36.2157 40.5858 36.9753 40.1172 37.4439L38.7612 38.7999L40.1172 40.1559C40.5858 40.6245 40.5858 41.3838 40.1172 41.8527ZM85.4043 58.5999H53.8644C53.2017 58.5999 52.6644 58.0626 52.6644 57.3999C52.6644 56.7372 53.2017 56.1999 53.8644 56.1999H85.4043C86.067 56.1999 86.6043 56.7372 86.6043 57.3999C86.6043 58.0626 86.067 58.5999 85.4043 58.5999Z" fill="#F5D955"/>
</svg>
