<svg width="140" height="140" viewBox="0 0 140 140" fill="none" xmlns="http://www.w3.org/2000/svg">
<circle cx="70" cy="70" r="69" stroke="#F5D955" stroke-width="2"/>
<path d="M87.7796 42.4C90.0953 42.4 91.9796 40.5157 91.9796 38.2C91.9796 35.8843 90.0953 34 87.7796 34C85.4639 34 83.5796 35.8843 83.5796 38.2C83.5796 40.5157 85.4639 42.4 87.7796 42.4ZM87.7796 36.4C88.7723 36.4 89.5796 37.2073 89.5796 38.2C89.5796 39.1927 88.7723 40 87.7796 40C86.7869 40 85.9796 39.1927 85.9796 38.2C85.9796 37.2073 86.7869 36.4 87.7796 36.4ZM35.5268 38.956L36.8828 37.6L35.5268 36.244C35.0582 35.7754 35.0582 35.0158 35.5268 34.5472C35.9954 34.0786 36.755 34.0786 37.2236 34.5472L38.5796 35.9032L39.9356 34.5472C40.4042 34.0786 41.1638 34.0786 41.6324 34.5472C42.101 35.0158 42.101 35.7754 41.6324 36.244L40.2764 37.6L41.6324 38.956C42.101 39.4246 42.101 40.1842 41.6324 40.6528C41.3981 40.8871 41.0909 41.0044 40.784 41.0044C40.4771 41.0044 40.1699 40.8871 39.9356 40.6528L38.5796 39.2968L37.2236 40.6528C36.9893 40.8871 36.6821 41.0044 36.3752 41.0044C36.0683 41.0044 35.7611 40.8871 35.5268 40.6528C35.0579 40.1839 35.0579 39.4246 35.5268 38.956ZM96.7268 49.756L98.0828 48.4L96.7268 47.044C96.2582 46.5754 96.2582 45.8158 96.7268 45.3472C97.1954 44.8786 97.955 44.8786 98.4236 45.3472L99.7796 46.7032L101.136 45.3472C101.604 44.8786 102.364 44.8786 102.832 45.3472C103.301 45.8158 103.301 46.5754 102.832 47.044L101.476 48.4L102.832 49.756C103.301 50.2246 103.301 50.9842 102.832 51.4528C102.598 51.6871 102.291 51.8044 101.984 51.8044C101.677 51.8044 101.37 51.6871 101.136 51.4528L99.7796 50.0968L98.4236 51.4528C98.1893 51.6871 97.8821 51.8044 97.5752 51.8044C97.2683 51.8044 96.9611 51.6871 96.7268 51.4528C96.2579 50.9839 96.2579 50.2246 96.7268 49.756ZM56.4206 43C56.4206 42.2494 57.029 41.641 57.7796 41.641C58.5302 41.641 59.1386 42.2494 59.1386 43C59.1386 43.7503 58.5302 44.3587 57.7796 44.3587C57.029 44.3587 56.4206 43.7503 56.4206 43ZM37.5383 57.4C37.5383 58.1503 36.9299 58.7587 36.1793 58.7587C35.4287 58.7587 34.8203 58.1503 34.8203 57.4C34.8203 56.6494 35.4287 56.041 36.1793 56.041C36.9299 56.041 37.5383 56.6494 37.5383 57.4ZM78.1379 51.4327C78.4382 50.6788 78.6083 49.8595 78.6083 49C78.6083 45.3607 75.647 42.4 72.0083 42.4C68.3696 42.4 65.4083 45.3607 65.4083 49C65.4083 49.8703 65.5817 50.6998 65.8892 51.4612C50.324 53.0506 39.1793 60.2833 39.1793 68.9539V88.1884C39.1793 98.1763 53.6741 106 72.1793 106C90.6845 106 105.179 98.1763 105.179 88.1884V68.9539C105.18 60.2362 93.8654 52.9534 78.1379 51.4327ZM72.0083 44.8C74.324 44.8 76.2083 46.6843 76.2083 49C76.2083 51.3157 74.324 53.2 72.0083 53.2C69.6926 53.2 67.8083 51.3157 67.8083 49C67.8083 46.6843 69.6929 44.8 72.0083 44.8ZM75.1796 69.4V61.7068C84.8279 62.3437 90.7796 65.836 90.7796 68.8C90.7796 72.2056 83.1413 76 72.1796 76C61.2179 76 53.5796 72.2056 53.5796 68.8C53.5796 65.8207 59.5262 62.3428 69.1796 61.7077V69.4C69.1796 71.0542 70.5248 72.4 72.1796 72.4C73.8344 72.4 75.1796 71.0542 75.1796 69.4ZM60.0092 59.6029L60.893 60.6472C58.5224 61.3198 56.5073 62.2051 54.9281 63.244L52.9988 62.5594C54.9032 61.3804 57.2879 60.3709 60.0092 59.6029ZM50.6918 64.2871L52.7966 65.0341C51.8915 66.0406 51.3527 67.138 51.2291 68.2963L48.2756 68.2183C48.5303 66.8338 49.3733 65.5045 50.6918 64.2871ZM57.7895 75.8368C59.9339 76.7518 62.5043 77.4583 65.3756 77.8945L64.5707 79.594C61.1495 79.0447 58.049 78.1456 55.4903 76.9864L57.7895 75.8368ZM80.6234 79.4494L79.5629 77.7994C82.289 77.344 84.7334 76.6462 86.7725 75.7528L89.1887 76.8403C86.7767 77.9728 83.8544 78.8665 80.6234 79.4494ZM93.1427 68.4256C93.0269 66.9754 92.2592 65.6134 90.9356 64.4047L92.9549 63.6883C94.721 65.0998 95.8358 66.685 96.0974 68.3476L93.1427 68.4256ZM88.5362 62.71C86.5832 61.6057 84.0932 60.7129 81.2057 60.1036L82.1738 59.0608C85.3601 59.7652 88.178 60.7891 90.4424 62.0335L88.5362 62.71ZM72.7796 69.4C72.7796 69.7312 72.5102 70 72.1796 70C71.849 70 71.5796 69.7312 71.5796 69.4V55.5781C71.7221 55.5874 71.8637 55.6 72.0086 55.6C72.2699 55.6 72.5264 55.5808 72.7796 55.5511V69.4ZM67.4204 53.7343C67.9334 54.2317 68.5277 54.643 69.1796 54.9541V55.6984C55.7834 56.4553 45.7796 62.1322 45.7796 69.1003C45.7796 76.6705 57.3752 82.6003 72.1796 82.6003C86.984 82.6003 98.5796 76.6705 98.5796 69.1003C98.5796 62.1334 88.5752 56.4553 75.1796 55.6987V54.7855C75.7343 54.4801 76.241 54.0982 76.6844 53.6524C76.7774 53.6842 76.8665 53.7256 76.9691 53.734C91.6832 54.9193 102.78 61.4626 102.78 68.9542C102.78 77.452 89.0522 84.3655 72.1796 84.3655C55.307 84.3655 41.5796 77.452 41.5796 68.9542C41.5796 61.444 52.6814 54.9142 67.4204 53.7343ZM102.78 88.1887C102.78 96.6865 89.0522 103.6 72.1796 103.6C55.307 103.6 41.5796 96.6865 41.5796 88.1887V75.7363C46.4288 82.2655 58.148 86.7655 72.1796 86.7655C86.2112 86.7655 97.9304 82.2655 102.78 75.7363V88.1887Z" fill="#F5D955"/>
</svg>
